<svg width="165" height="198" viewBox="0 0 165 198" fill="none" xmlns="http://www.w3.org/2000/svg">
<path d="M163.817 148.5L165 139.728L97.5806 73.9367C97.5806 73.9367 95.2151 71.7437 92.5538 65.7911C92.2581 53.8861 91.9624 42.2943 91.371 32.269C89.8925 13.4715 86.3441 0 82.5 0C78.6559 0 75.1075 13.4715 73.629 32.269C73.0376 42.2943 72.4462 53.8861 72.4462 65.7911C69.7849 71.7437 67.4194 73.9367 67.4194 73.9367L0 139.728L1.1828 148.5L72.4462 106.832C72.7419 132.209 73.629 152.886 73.629 156.332C73.629 158.525 74.8118 167.297 76.586 176.07L55.2957 192.361V197.373L80.4301 193.614C81.0215 196.12 81.9086 197.687 82.2043 197.687C82.7957 197.687 83.3871 196.12 83.9785 193.614L109.113 197.373V192.361L87.8226 176.07C89.5968 167.297 90.7796 158.839 90.7796 156.332C90.7796 152.886 91.6667 132.209 91.9624 106.832L163.817 148.5Z" fill="#C3C0C0"/>
</svg>
