<svg xmlns="http://www.w3.org/2000/svg" viewBox="0 0 30 39.02"><path d="M25.09,36.88a.62.62,0,0,0,.54-.18.57.57,0,0,0,.14-.13,1.29,1.29,0,0,0,.15-.17A3.21,3.21,0,0,0,26.2,36a4.54,4.54,0,0,0,.26-.54l.12-.32.06-.16.05-.17c.06-.24.13-.48.17-.74s.05-.26.07-.39,0-.27,0-.41,0-.09,0-.16l0-.26a3.49,3.49,0,0,0,0-.35L27,32a23.28,23.28,0,0,0-.1-2.7l0-.21a1.49,1.49,0,0,0,0-.21l-.06-.45c0-.3-.09-.62-.15-1-.11-.65-.27-1.34-.47-2.07a20.53,20.53,0,0,0-2-4.62l-.08-.15-.09-.15-.18-.3-.05-.07-.05-.07-.09-.15-.2-.3c-.27-.39-.56-.78-.87-1.16s-.64-.76-1-1.12-.72-.73-1.11-1.07A19.82,19.82,0,0,0,18,14.37l-.35-.2-.18-.11L17.3,14l-.36-.19-.37-.19-.19-.09-.18-.09-.38-.18-.77-.32-.79-.29-.41-.13-.2-.06-.21-.06c-.54-.16-1.1-.28-1.67-.39l-.42-.07-.43-.06-.43-.05-.44,0-.43,0-.44,0H8.3l-.44,0-.44,0-.22,0-.22,0-.22,0-.11,0-.12,0a5.64,5.64,0,0,0-1,.25,4.24,4.24,0,0,0-.94.49,3.19,3.19,0,0,0-.46.38,2.2,2.2,0,0,0-.39.54,1.88,1.88,0,0,0-.23.69c0,.06,0,.12,0,.19v.18c0,.11,0,.23,0,.35a2.57,2.57,0,0,0,.22.61A4.68,4.68,0,0,0,4,16a7.6,7.6,0,0,0,.62.76A6.62,6.62,0,0,0,6.17,18a7,7,0,0,0,1.75.71,6.92,6.92,0,0,0,1.87.2,6.11,6.11,0,0,0,1.85-.34,6.28,6.28,0,0,0,1.64-.87,7.11,7.11,0,0,0,1.31-1.26,6.58,6.58,0,0,0,.91-1.53,6.34,6.34,0,0,0,.3-.83c.07-.29.13-.58.17-.87a7,7,0,0,0,0-1.71,7.4,7.4,0,0,0-.15-.82c0-.13-.07-.26-.1-.39l-.12-.38A12.55,12.55,0,0,0,15,8.43a14.14,14.14,0,0,0-.73-1.33c-.26-.42-.55-.82-.84-1.2l-.23-.28L13,5.35l-.11-.13-.12-.13L12.61,5l-.12-.13-.24-.24c-.08-.09-.17-.16-.25-.24l-.12-.12-.13-.12-.25-.22c-.17-.14-.33-.29-.5-.42l-.26-.21-.26-.19-.26-.18A1.51,1.51,0,0,0,10,2.71c-.17-.12-.34-.24-.51-.34l-.26-.16-.26-.15L8.8,2l-.13-.07-.26-.14a15.47,15.47,0,0,0-2-.88A17,17,0,0,0,4.57.33L4.14.24l-.2,0-.21,0A7.13,7.13,0,0,0,3,.05,6,6,0,0,0,1.63,0a3.56,3.56,0,0,0-1,.23L.58.3l0,0,0,0L.35.42.23.5.14.57C0,.66,0,.71,0,.73s.08,0,.2,0L.43.59l.15,0,0,0h0L.75.5a3.73,3.73,0,0,1,.9-.1A6.54,6.54,0,0,1,2.89.53c.23,0,.47.1.72.17l.2.05L4,.81l.41.11c.54.17,1.12.38,1.73.64A19.28,19.28,0,0,1,8,2.51l.24.15.12.07.12.08L8.72,3,9,3.12l.48.34.23.18.24.19.23.19.24.2.45.42.23.22.11.11.11.11.22.23.22.24a1.47,1.47,0,0,1,.1.13l.11.12.1.12.11.13c.06.09.13.17.2.26l.2.27c.25.36.5.73.73,1.13a10.11,10.11,0,0,1,.62,1.23,9.79,9.79,0,0,1,.49,1.31l.09.34c0,.12,0,.23.07.34a5.5,5.5,0,0,1,.11.69q0,.35,0,.69c0,.06,0,.12,0,.17s0,.12,0,.17a.88.88,0,0,1,0,.17.88.88,0,0,1,0,.17,5,5,0,0,1-.16.67,3.86,3.86,0,0,1-.25.64,5.24,5.24,0,0,1-.75,1.18,5.63,5.63,0,0,1-1,1,4.92,4.92,0,0,1-1.26.62,4.58,4.58,0,0,1-1.38.22,5.24,5.24,0,0,1-1.42-.2,5.06,5.06,0,0,1-2.41-1.47,4.63,4.63,0,0,1-.43-.56,1.66,1.66,0,0,1-.14-.25.46.46,0,0,1-.06-.18.24.24,0,0,1,0-.12.26.26,0,0,1,0-.1.48.48,0,0,1,.1-.12,1,1,0,0,1,.19-.15,2.46,2.46,0,0,1,.54-.26,3.71,3.71,0,0,1,.64-.15H7l.2,0,.19,0h.19l.39,0H9.51l.38,0,.38,0,.38,0,.38.06.38.08a15,15,0,0,1,1.47.37l.18.06.17.06.36.12c.23.09.47.17.7.27s.45.2.68.3l.33.16.16.08.17.09.32.17.32.18.15.1.16.09.3.19a16.08,16.08,0,0,1,2.23,1.72c.34.31.65.63,1,.95s.59.66.85,1a12.15,12.15,0,0,1,.74,1l.17.26.08.14,0,.06,0,.07.16.26.08.13.07.14A18,18,0,0,1,24,26a18.24,18.24,0,0,1,.39,1.86q.07.44.12.84l0,.4a1.37,1.37,0,0,1,0,.19l0,.19a21,21,0,0,1,.05,2.42l0,.4c0,.12,0,.23,0,.32l0,.23a.82.82,0,0,0,0,.14,13.16,13.16,0,0,0,0,2.58,3.46,3.46,0,0,0,.07.48l.06.2.06.18A.69.69,0,0,0,25.09,36.88Z"/><polygon points="24.98 39.02 20.93 31.04 25.2 33.13 30 31.61 24.98 39.02"/></svg>