<svg width="202" height="192" viewBox="0 0 202 192" fill="none"
    xmlns="http://www.w3.org/2000/svg">
    <rect x="5.5" y="44.5" width="191" height="142" stroke="black"/>
    <rect x="1" y="41" width="200" height="150" stroke="black" stroke-miterlimit="2.3662"/>
    <path d="M32.5 39C32.5 42.5579 29.399 45.5 25.5 45.5C21.601 45.5 18.5 42.5579 18.5 39C18.5 35.4421 21.601 32.5 25.5 32.5C29.399 32.5 32.5 35.4421 32.5 39Z" stroke="black"/>
    <circle cx="25.5" cy="32.5" r="7" stroke="black"/>
    <circle cx="25.5" cy="23.5" r="7" stroke="black"/>
    <circle cx="25.5" cy="16.5" r="7" stroke="black"/>
    <circle cx="25.5" cy="7.5" r="7" stroke="black"/>
    <path d="M183.5 39C183.5 42.5579 180.399 45.5 176.5 45.5C172.601 45.5 169.5 42.5579 169.5 39C169.5 35.4421 172.601 32.5 176.5 32.5C180.399 32.5 183.5 35.4421 183.5 39Z" stroke="black"/>
    <circle cx="176.5" cy="32.5" r="7" stroke="black"/>
    <circle cx="176.5" cy="23.5" r="7" stroke="black"/>
    <circle cx="176.5" cy="16.5" r="7" stroke="black"/>
    <circle cx="176.5" cy="7.5" r="7" stroke="black"/>
</svg>
