<svg xmlns="http://www.w3.org/2000/svg" viewBox="0 0 1647.07 207.03"><defs><style>.a{fill:#555559;}.b{fill:#6b6b70;}</style></defs><path class="a" d="M393.2,708.51c62.33-6.9,118.51-22.93,177.56-34.86,5.76-1.17,11.86-2.32,18-1.94,5.53.33,10.42,1.84,15.26,3.2,46.76,13.06,103.79,13.77,157.38,11s106.88-8.67,160.72-7.54c-4.81,8.56-7.26,20,8.86,24.12,5.19,1.33,11.26,1.48,17.12,1.61,125.27,2.57,250.87,1.4,375.86-3.52q-1.53,5.05-3,10.12c55.34,2.56,110.26,7.26,164.07,14C1415.27,734,1343.75,740.09,1271.7,743c3.43-2.77-.73-6.58-6.73-8s-13-1-19.61-.66L777.74,760.82l31.63-14.53q-104.43,5.16-209.48,6.35c7-7.07,12-14.6,14.94-22.32,0-4.92-433.82.38-473.24.74,35.35-4.65,71.32-8.31,107.17-12C296.51,714.25,345.65,713.77,393.2,708.51Z" transform="translate(-131 -581)"/><polygon class="b" points="786.2 111.26 820.31 169.99 995.43 160.06 1015 124.05 786.2 111.26"/><polygon class="b" points="1189.97 129.7 1215.73 157.79 1388.83 145.83 1189.97 129.7"/><polygon class="b" points="625.02 105.18 596.02 168.74 555.16 169.99 496.68 99.34 625.02 105.18"/><polygon class="b" points="483.83 149.32 508.44 171.05 441.08 173.17 483.83 149.32"/><polygon class="b" points="678.37 165.29 678.37 178.03 625.02 184 678.37 165.29"/><polygon class="b" points="308.11 120.8 302.76 147.47 0 149.32 308.11 120.8"/><polygon class="b" points="454.65 90.64 459.19 147.78 417.19 147.78 439.76 92.64 457.81 90.71 454.65 90.64"/><path class="b" d="M1587.22,721.66a56.06,56.06,0,0,1-7.8,17.64l105.35-4.46-11.27,19.3a602.21,602.21,0,0,1,104.57,15.25c-42.64-6-85.85-12-129.09-9.57l22.73-15.73c-37.86,7.45-63.69,4.21-106.92,10,3-12.71,2.89-8.64,9.54-20.51-9.69,2-19.88,1.78-29.9,1.57-57.36-1.18-115-2.89-172,2.34,5.33-.49,13.3-5.7,18.23-7.61q9.27-3.58,18.82-6.73c5.77-1.89,10.61-4.13,16.43-3a143.13,143.13,0,0,0,18.16,2.41c30.29,1.95,60.74,2.53,91.12,1.75Q1561.27,723.68,1587.22,721.66Z" transform="translate(-131 -581)"/><path class="a" d="M925.37,652.59l-142.3-10.48,128.68-21.67a89.46,89.46,0,0,0-29.12-11c32.66-9.93,65.34-19.85,98.65-28.42L918.6,606q18.9,4.66,38,8.79a471,471,0,0,0-73.39,24.65,296.56,296.56,0,0,1,83.29,8.31,544.09,544.09,0,0,0-87.35,66.4l-23.61-6.62c-22.06-6.18-13.49-19.51,2.59-26.1C880.79,672.19,903,662.23,925.37,652.59Z" transform="translate(-131 -581)"/><path class="b" d="M468.26,763.52a70.65,70.65,0,0,1,20.92,10.23q-61.92,8.24-124.51,13c50.3,3.59,100.9-1.13,151-5.84a87.72,87.72,0,0,0-16-10.94c16.28,1,32.45-2.08,48.41-4.73,28.85-4.79,58.08-8.12,87.29-11.45A80.87,80.87,0,0,0,610,744.64a35.52,35.52,0,0,0-8.55-.72C593.79,744.37,490.83,763.14,468.26,763.52Z" transform="translate(-131 -581)"/><path class="a" d="M1315.72,678.57c1.84-.61,45.87,4.65,45.87,4.65l21.2-10.81s117.82-4.36,164.07-5.07c21.4-.33,42.89-.66,64.14,1.28-66.87-4-134,2.6-200.49,9.19a14,14,0,0,0-4.44.92,10,10,0,0,0-4,4,88.21,88.21,0,0,1-16.19,17.7,301.81,301.81,0,0,0-39.35-2.42,68.32,68.32,0,0,0-11.37.74c-5.43.95-10.38,3-15.24,5.11l-44,18.71a19.16,19.16,0,0,1-6.28,1.84,20.46,20.46,0,0,1-6.73-1c-12.46-3.44-25.61-6.36-37.61-10.55C1252.46,697.23,1284.6,688.77,1315.72,678.57Z" transform="translate(-131 -581)"/><path class="a" d="M1166.37,748.69l17.76,3.4c4.14.79,8.63,1.76,11.09,4.42q-11.76,6.53-24.2,12.26c8.59-.95,17.3.47,25.73,2.05q22.45,4.23,44.31,10.09c-16.71-5.15-33.85-9.5-51.27-13a70.64,70.64,0,0,0,24-13.49,58.59,58.59,0,0,0-17.06-3.57,326.42,326.42,0,0,1,56.86-21.65c-5.87,1.64-19.81-1.3-26.41-1.21-9.59.13-7.56,1.5-13.2,5.38C1202.6,741.17,1180.74,745.44,1166.37,748.69Z" transform="translate(-131 -581)"/></svg>