<svg width="27" height="40" viewBox="0 0 27 40" fill="none"
    xmlns="http://www.w3.org/2000/svg">
    <path d="M24.9 1.95L24.1064 2.55843L24.1177 2.57321L24.1296 2.58757L24.9 1.95ZM24.85 12.1L25.8293 12.3023L25.8296 12.3007L24.85 12.1ZM21.95 24.65L20.9807 24.404L20.9791 24.4106L21.95 24.65ZM15.65 38.4L14.9026 39.0644L14.9221 39.0863L14.9429 39.1071L15.65 38.4ZM15.2 34.25L16.1843 34.4267L16.7577 31.2318L14.4858 33.5501L15.2 34.25ZM2.65 37.25L1.89735 37.9086L1.90671 37.919L2.65 37.25ZM2.55 25.75L1.62002 25.3823L1.61779 25.3881L2.55 25.75ZM7.4 17.95L8.14329 18.619L8.14329 18.619L7.4 17.95ZM19.05 18.7L18.1002 19.0129L19.2001 22.3517L20.0223 18.9339L19.05 18.7ZM21.85 1.95L22.8492 1.99061L22.85 1.97031V1.95H21.85ZM16.5 20.45L15.6008 20.8875L15.6055 20.8972L15.6104 20.9068L16.5 20.45ZM6.3 27.35L5.36873 26.9856L5.36595 26.9929L6.3 27.35ZM5.65 34.7L6.29594 33.9366L6.29594 33.9366L5.65 34.7ZM12.45 32.45L11.8087 31.6827L11.803 31.6875L12.45 32.45ZM17.3 25.85L18.2302 26.2172L18.2542 26.1562L18.2701 26.0925L17.3 25.85ZM17.45 25.25L18.4201 25.4925L18.45 25.3731V25.25H17.45ZM22.95 1.45C22.9056 1.45 22.9889 1.43385 23.2278 1.61762C23.4573 1.79415 23.751 2.09483 24.1064 2.55843L25.6936 1.34157C25.2824 0.805171 24.8677 0.355848 24.4472 0.0323749C24.0361 -0.283849 23.5277 -0.55 22.95 -0.55V1.45ZM24.1296 2.58757C24.846 3.45324 25.1 4.15075 25.1 4.7H27.1C27.1 3.51591 26.554 2.38009 25.6704 1.31243L24.1296 2.58757ZM25.1 4.7C25.1 5.0363 25.0118 5.78846 24.8015 7.03344C24.5959 8.25037 24.286 9.87094 23.8704 11.8993L25.8296 12.3007C26.2473 10.2624 26.5624 8.61629 26.7735 7.36656C26.9799 6.14487 27.1 5.23036 27.1 4.7H25.1ZM23.8707 11.8977C23.0406 15.9152 22.0774 20.0839 20.9807 24.404L22.9193 24.896C24.0226 20.5494 24.9927 16.3515 25.8293 12.3023L23.8707 11.8977ZM20.9791 24.4106C19.7805 29.2715 18.7916 32.8929 18.0116 35.2906C17.6197 36.4951 17.2915 37.3563 17.0276 37.9027C16.8932 38.181 16.7971 38.3318 16.7441 38.3982C16.718 38.4309 16.7284 38.4098 16.7797 38.3738C16.8309 38.338 16.9776 38.25 17.2 38.25V40.25C17.5183 40.25 17.7672 40.124 17.9269 40.0121C18.0868 39.9001 18.2122 39.7649 18.3074 39.6456C18.4972 39.4078 18.6693 39.1023 18.8286 38.7723C19.1523 38.1021 19.5136 37.1383 19.9134 35.9094C20.7167 33.4404 21.7195 29.7619 22.9209 24.8894L20.9791 24.4106ZM17.2 38.25C17.1348 38.25 16.8618 38.1975 16.3571 37.6929L14.9429 39.1071C15.5716 39.7358 16.3319 40.25 17.2 40.25V38.25ZM16.3974 37.7356C15.9039 37.1804 15.85 36.9014 15.85 36.85H13.85C13.85 37.6653 14.3295 38.4196 14.9026 39.0644L16.3974 37.7356ZM15.85 36.85C15.85 36.5209 15.9481 35.7426 16.1843 34.4267L14.2157 34.0733C13.9853 35.3574 13.85 36.3124 13.85 36.85H15.85ZM14.4858 33.5501C11.2538 36.848 8.65479 38.25 6.65 38.25V40.25C9.51188 40.25 12.6129 38.3186 15.9142 34.9499L14.4858 33.5501ZM6.65 38.25C5.52871 38.25 4.44943 37.7545 3.39329 36.581L1.90671 37.919C3.25057 39.4122 4.83796 40.25 6.65 40.25V38.25ZM3.40258 36.5915C2.35628 35.3957 1.9 34.2376 1.9 33.1H-0.0999999C-0.0999999 34.829 0.610389 36.4376 1.89742 37.9085L3.40258 36.5915ZM1.9 33.1C1.9 31.2009 2.40784 28.8792 3.48221 26.1119L1.61779 25.3881C0.49216 28.2874 -0.0999999 30.8658 -0.0999999 33.1H1.9ZM3.47996 26.1177C4.5687 23.3638 6.12147 20.8654 8.14329 18.619L6.65671 17.281C4.47853 19.7012 2.79797 22.4029 1.62004 25.3823L3.47996 26.1177ZM8.14329 18.619C10.1188 16.4239 12.1015 15.45 14.1 15.45V13.45C11.3652 13.45 8.88119 14.8094 6.65671 17.281L8.14329 18.619ZM14.1 15.45C15.0671 15.45 15.8339 15.7328 16.4611 16.2712C17.1057 16.8247 17.6702 17.7074 18.1002 19.0129L19.9998 18.3871C19.4965 16.8592 18.7693 15.617 17.7639 14.7538C16.7411 13.8756 15.4996 13.45 14.1 13.45V15.45ZM20.0223 18.9339C21.7278 11.8443 22.6786 6.1872 22.8492 1.99061L20.8508 1.90938C20.6881 5.9128 19.7722 11.4224 18.0777 18.4661L20.0223 18.9339ZM22.85 1.95C22.85 1.75787 22.8679 1.62207 22.8901 1.5312C22.9122 1.44109 22.934 1.41285 22.9314 1.41636C22.9245 1.42579 22.9053 1.44377 22.8826 1.45412C22.8654 1.46192 22.8795 1.45 22.95 1.45V-0.55C22.3308 -0.55 21.7262 -0.32219 21.3186 0.233635C20.9534 0.731622 20.85 1.35729 20.85 1.95H22.85ZM18.45 25C18.45 23.0869 18.1139 21.4036 17.3896 19.9932L15.6104 20.9068C16.1528 21.963 16.45 23.3131 16.45 25H18.45ZM17.3992 20.0125C16.7387 18.6549 15.7444 17.6 14.3 17.6V19.6C14.5889 19.6 15.0613 19.7785 15.6008 20.8875L17.3992 20.0125ZM14.3 17.6C12.4325 17.6 10.7125 18.7481 9.13771 20.6028L10.6623 21.8972C12.0875 20.2186 13.3008 19.6 14.3 19.6V17.6ZM9.13771 20.6028C7.56157 22.4591 6.30639 24.5894 5.36876 26.9856L7.23124 27.7144C8.09361 25.5106 9.23843 23.5742 10.6623 21.8972L9.13771 20.6028ZM5.36595 26.9929C4.47382 29.3261 4 31.4191 4 33.25H6C6 31.7476 6.39285 29.9072 7.23405 27.7071L5.36595 26.9929ZM4 33.25C4 34.125 4.33196 34.8947 5.00406 35.4634L6.29594 33.9366C6.10138 33.772 6 33.575 6 33.25H4ZM5.00406 35.4634C5.6288 35.992 6.37809 36.25 7.2 36.25V34.25C6.82191 34.25 6.53787 34.1413 6.29594 33.9366L5.00406 35.4634ZM7.2 36.25C8.07813 36.25 9.00782 35.9392 9.95809 35.4324C10.9173 34.9208 11.9648 34.1731 13.097 33.2125L11.803 31.6875C10.7352 32.5935 9.80769 33.2459 9.01691 33.6676C8.21718 34.0942 7.62187 34.25 7.2 34.25V36.25ZM13.0913 33.2173C15.4438 31.2511 17.1646 28.9165 18.2302 26.2172L16.3698 25.4828C15.4354 27.8501 13.9229 29.9156 11.8087 31.6827L13.0913 33.2173ZM18.2701 26.0925L18.4201 25.4925L16.4799 25.0075L16.3299 25.6075L18.2701 26.0925ZM18.45 25.25V25H16.45V25.25H18.45Z" stroke="black"/>
</svg>
