<svg width="221" height="529" viewBox="0 0 221 529" fill="none" xmlns="http://www.w3.org/2000/svg">
<circle cx="2.5" cy="2.5" r="2.5" fill="black"/>
<circle cx="26.5" cy="2.5" r="2.5" fill="black"/>
<circle cx="50.5" cy="2.5" r="2.5" fill="black"/>
<circle cx="74.5" cy="2.5" r="2.5" fill="black"/>
<circle cx="98.5" cy="2.5" r="2.5" fill="black"/>
<circle cx="122.5" cy="2.5" r="2.5" fill="black"/>
<circle cx="146.5" cy="2.5" r="2.5" fill="black"/>
<circle cx="170.5" cy="2.5" r="2.5" fill="black"/>
<circle cx="194.5" cy="2.5" r="2.5" fill="black"/>
<circle cx="218.5" cy="2.5" r="2.5" fill="black"/>
<circle cx="2.5" cy="25.5" r="2.5" fill="black"/>
<circle cx="26.5" cy="25.5" r="2.5" fill="black"/>
<circle cx="50.5" cy="25.5" r="2.5" fill="black"/>
<circle cx="74.5" cy="25.5" r="2.5" fill="black"/>
<circle cx="98.5" cy="25.5" r="2.5" fill="black"/>
<circle cx="122.5" cy="25.5" r="2.5" fill="black"/>
<circle cx="146.5" cy="25.5" r="2.5" fill="black"/>
<circle cx="170.5" cy="25.5" r="2.5" fill="black"/>
<circle cx="194.5" cy="25.5" r="2.5" fill="black"/>
<circle cx="218.5" cy="25.5" r="2.5" fill="black"/>
<circle cx="2.5" cy="48.5" r="2.5" fill="black"/>
<circle cx="26.5" cy="48.5" r="2.5" fill="black"/>
<circle cx="50.5" cy="48.5" r="2.5" fill="black"/>
<circle cx="74.5" cy="48.5" r="2.5" fill="black"/>
<circle cx="98.5" cy="48.5" r="2.5" fill="black"/>
<circle cx="122.5" cy="48.5" r="2.5" fill="black"/>
<circle cx="146.5" cy="48.5" r="2.5" fill="black"/>
<circle cx="170.5" cy="48.5" r="2.5" fill="black"/>
<circle cx="194.5" cy="48.5" r="2.5" fill="black"/>
<circle cx="218.5" cy="48.5" r="2.5" fill="black"/>
<circle cx="2.5" cy="71.5" r="2.5" fill="black"/>
<circle cx="26.5" cy="71.5" r="2.5" fill="black"/>
<circle cx="50.5" cy="71.5" r="2.5" fill="black"/>
<circle cx="74.5" cy="71.5" r="2.5" fill="black"/>
<circle cx="98.5" cy="71.5" r="2.5" fill="black"/>
<circle cx="122.5" cy="71.5" r="2.5" fill="black"/>
<circle cx="146.5" cy="71.5" r="2.5" fill="black"/>
<circle cx="170.5" cy="71.5" r="2.5" fill="black"/>
<circle cx="194.5" cy="71.5" r="2.5" fill="black"/>
<circle cx="218.5" cy="71.5" r="2.5" fill="black"/>
<circle cx="2.5" cy="94.5" r="2.5" fill="black"/>
<circle cx="26.5" cy="94.5" r="2.5" fill="black"/>
<circle cx="50.5" cy="94.5" r="2.5" fill="black"/>
<circle cx="74.5" cy="94.5" r="2.5" fill="black"/>
<circle cx="98.5" cy="94.5" r="2.5" fill="black"/>
<circle cx="122.5" cy="94.5" r="2.5" fill="black"/>
<circle cx="146.5" cy="94.5" r="2.5" fill="black"/>
<circle cx="170.5" cy="94.5" r="2.5" fill="black"/>
<circle cx="194.5" cy="94.5" r="2.5" fill="black"/>
<circle cx="218.5" cy="94.5" r="2.5" fill="black"/>
<circle cx="2.5" cy="116.5" r="2.5" fill="black"/>
<circle cx="26.5" cy="116.5" r="2.5" fill="black"/>
<circle cx="50.5" cy="116.5" r="2.5" fill="black"/>
<circle cx="74.5" cy="116.5" r="2.5" fill="black"/>
<circle cx="98.5" cy="116.5" r="2.5" fill="black"/>
<circle cx="122.5" cy="116.5" r="2.5" fill="black"/>
<circle cx="146.5" cy="116.5" r="2.5" fill="black"/>
<circle cx="170.5" cy="116.5" r="2.5" fill="black"/>
<circle cx="194.5" cy="116.5" r="2.5" fill="black"/>
<circle cx="218.5" cy="116.5" r="2.5" fill="black"/>
<circle cx="2.5" cy="2.5" r="2.5" fill="black"/>
<circle cx="26.5" cy="2.5" r="2.5" fill="black"/>
<circle cx="50.5" cy="2.5" r="2.5" fill="black"/>
<circle cx="74.5" cy="2.5" r="2.5" fill="black"/>
<circle cx="98.5" cy="2.5" r="2.5" fill="black"/>
<circle cx="122.5" cy="2.5" r="2.5" fill="black"/>
<circle cx="146.5" cy="2.5" r="2.5" fill="black"/>
<circle cx="170.5" cy="2.5" r="2.5" fill="black"/>
<circle cx="194.5" cy="2.5" r="2.5" fill="black"/>
<circle cx="218.5" cy="2.5" r="2.5" fill="black"/>
<circle cx="2.5" cy="25.5" r="2.5" fill="black"/>
<circle cx="26.5" cy="25.5" r="2.5" fill="black"/>
<circle cx="50.5" cy="25.5" r="2.5" fill="black"/>
<circle cx="74.5" cy="25.5" r="2.5" fill="black"/>
<circle cx="98.5" cy="25.5" r="2.5" fill="black"/>
<circle cx="122.5" cy="25.5" r="2.5" fill="black"/>
<circle cx="146.5" cy="25.5" r="2.5" fill="black"/>
<circle cx="170.5" cy="25.5" r="2.5" fill="black"/>
<circle cx="194.5" cy="25.5" r="2.5" fill="black"/>
<circle cx="218.5" cy="25.5" r="2.5" fill="black"/>
<circle cx="2.5" cy="48.5" r="2.5" fill="black"/>
<circle cx="26.5" cy="48.5" r="2.5" fill="black"/>
<circle cx="50.5" cy="48.5" r="2.5" fill="black"/>
<circle cx="74.5" cy="48.5" r="2.5" fill="black"/>
<circle cx="98.5" cy="48.5" r="2.5" fill="black"/>
<circle cx="122.5" cy="48.5" r="2.5" fill="black"/>
<circle cx="146.5" cy="48.5" r="2.5" fill="black"/>
<circle cx="170.5" cy="48.5" r="2.5" fill="black"/>
<circle cx="194.5" cy="48.5" r="2.5" fill="black"/>
<circle cx="218.5" cy="48.5" r="2.5" fill="black"/>
<circle cx="2.5" cy="71.5" r="2.5" fill="black"/>
<circle cx="26.5" cy="71.5" r="2.5" fill="black"/>
<circle cx="50.5" cy="71.5" r="2.5" fill="black"/>
<circle cx="74.5" cy="71.5" r="2.5" fill="black"/>
<circle cx="98.5" cy="71.5" r="2.5" fill="black"/>
<circle cx="122.5" cy="71.5" r="2.5" fill="black"/>
<circle cx="146.5" cy="71.5" r="2.5" fill="black"/>
<circle cx="170.5" cy="71.5" r="2.5" fill="black"/>
<circle cx="194.5" cy="71.5" r="2.5" fill="black"/>
<circle cx="218.5" cy="71.5" r="2.5" fill="black"/>
<circle cx="2.5" cy="94.5" r="2.5" fill="black"/>
<circle cx="26.5" cy="94.5" r="2.5" fill="black"/>
<circle cx="50.5" cy="94.5" r="2.5" fill="black"/>
<circle cx="74.5" cy="94.5" r="2.5" fill="black"/>
<circle cx="98.5" cy="94.5" r="2.5" fill="black"/>
<circle cx="122.5" cy="94.5" r="2.5" fill="black"/>
<circle cx="146.5" cy="94.5" r="2.5" fill="black"/>
<circle cx="170.5" cy="94.5" r="2.5" fill="black"/>
<circle cx="194.5" cy="94.5" r="2.5" fill="black"/>
<circle cx="218.5" cy="94.5" r="2.5" fill="black"/>
<circle cx="2.5" cy="116.5" r="2.5" fill="black"/>
<circle cx="26.5" cy="116.5" r="2.5" fill="black"/>
<circle cx="50.5" cy="116.5" r="2.5" fill="black"/>
<circle cx="74.5" cy="116.5" r="2.5" fill="black"/>
<circle cx="98.5" cy="116.5" r="2.5" fill="black"/>
<circle cx="122.5" cy="116.5" r="2.5" fill="black"/>
<circle cx="146.5" cy="116.5" r="2.5" fill="black"/>
<circle cx="170.5" cy="116.5" r="2.5" fill="black"/>
<circle cx="194.5" cy="116.5" r="2.5" fill="black"/>
<circle cx="218.5" cy="116.5" r="2.5" fill="black"/>
<circle cx="2.5" cy="137.5" r="2.5" fill="black"/>
<circle cx="26.5" cy="137.5" r="2.5" fill="black"/>
<circle cx="50.5" cy="137.5" r="2.5" fill="black"/>
<circle cx="74.5" cy="137.5" r="2.5" fill="black"/>
<circle cx="98.5" cy="137.5" r="2.5" fill="black"/>
<circle cx="122.5" cy="137.5" r="2.5" fill="black"/>
<circle cx="146.5" cy="137.5" r="2.5" fill="black"/>
<circle cx="170.5" cy="137.5" r="2.5" fill="black"/>
<circle cx="194.5" cy="137.5" r="2.5" fill="black"/>
<circle cx="218.5" cy="137.5" r="2.5" fill="black"/>
<circle cx="2.5" cy="160.5" r="2.5" fill="black"/>
<circle cx="26.5" cy="160.5" r="2.5" fill="black"/>
<circle cx="50.5" cy="160.5" r="2.5" fill="black"/>
<circle cx="74.5" cy="160.5" r="2.5" fill="black"/>
<circle cx="98.5" cy="160.5" r="2.5" fill="black"/>
<circle cx="122.5" cy="160.5" r="2.5" fill="black"/>
<circle cx="146.5" cy="160.5" r="2.5" fill="black"/>
<circle cx="170.5" cy="160.5" r="2.5" fill="black"/>
<circle cx="194.5" cy="160.5" r="2.5" fill="black"/>
<circle cx="218.5" cy="160.5" r="2.5" fill="black"/>
<circle cx="2.5" cy="183.5" r="2.5" fill="black"/>
<circle cx="26.5" cy="183.5" r="2.5" fill="black"/>
<circle cx="50.5" cy="183.5" r="2.5" fill="black"/>
<circle cx="74.5" cy="183.5" r="2.5" fill="black"/>
<circle cx="98.5" cy="183.5" r="2.5" fill="black"/>
<circle cx="122.5" cy="183.5" r="2.5" fill="black"/>
<circle cx="146.5" cy="183.5" r="2.5" fill="black"/>
<circle cx="170.5" cy="183.5" r="2.5" fill="black"/>
<circle cx="194.5" cy="183.5" r="2.5" fill="black"/>
<circle cx="218.5" cy="183.5" r="2.5" fill="black"/>
<circle cx="2.5" cy="206.5" r="2.5" fill="black"/>
<circle cx="26.5" cy="206.5" r="2.5" fill="black"/>
<circle cx="50.5" cy="206.5" r="2.5" fill="black"/>
<circle cx="74.5" cy="206.5" r="2.5" fill="black"/>
<circle cx="98.5" cy="206.5" r="2.5" fill="black"/>
<circle cx="122.5" cy="206.5" r="2.5" fill="black"/>
<circle cx="146.5" cy="206.5" r="2.5" fill="black"/>
<circle cx="170.5" cy="206.5" r="2.5" fill="black"/>
<circle cx="194.5" cy="206.5" r="2.5" fill="black"/>
<circle cx="218.5" cy="206.5" r="2.5" fill="black"/>
<circle cx="2.5" cy="229.5" r="2.5" fill="black"/>
<circle cx="26.5" cy="229.5" r="2.5" fill="black"/>
<circle cx="50.5" cy="229.5" r="2.5" fill="black"/>
<circle cx="74.5" cy="229.5" r="2.5" fill="black"/>
<circle cx="98.5" cy="229.5" r="2.5" fill="black"/>
<circle cx="122.5" cy="229.5" r="2.5" fill="black"/>
<circle cx="146.5" cy="229.5" r="2.5" fill="black"/>
<circle cx="170.5" cy="229.5" r="2.5" fill="black"/>
<circle cx="194.5" cy="229.5" r="2.5" fill="black"/>
<circle cx="218.5" cy="229.5" r="2.5" fill="black"/>
<circle cx="2.5" cy="251.5" r="2.5" fill="black"/>
<circle cx="26.5" cy="251.5" r="2.5" fill="black"/>
<circle cx="50.5" cy="251.5" r="2.5" fill="black"/>
<circle cx="74.5" cy="251.5" r="2.5" fill="black"/>
<circle cx="98.5" cy="251.5" r="2.5" fill="black"/>
<circle cx="122.5" cy="251.5" r="2.5" fill="black"/>
<circle cx="146.5" cy="251.5" r="2.5" fill="black"/>
<circle cx="170.5" cy="251.5" r="2.5" fill="black"/>
<circle cx="194.5" cy="251.5" r="2.5" fill="black"/>
<circle cx="218.5" cy="251.5" r="2.5" fill="black"/>
<circle cx="2.5" cy="137.5" r="2.5" fill="black"/>
<circle cx="26.5" cy="137.5" r="2.5" fill="black"/>
<circle cx="50.5" cy="137.5" r="2.5" fill="black"/>
<circle cx="74.5" cy="137.5" r="2.5" fill="black"/>
<circle cx="98.5" cy="137.5" r="2.5" fill="black"/>
<circle cx="122.5" cy="137.5" r="2.5" fill="black"/>
<circle cx="146.5" cy="137.5" r="2.5" fill="black"/>
<circle cx="170.5" cy="137.5" r="2.5" fill="black"/>
<circle cx="194.5" cy="137.5" r="2.5" fill="black"/>
<circle cx="218.5" cy="137.5" r="2.5" fill="black"/>
<circle cx="2.5" cy="160.5" r="2.5" fill="black"/>
<circle cx="26.5" cy="160.5" r="2.5" fill="black"/>
<circle cx="50.5" cy="160.5" r="2.5" fill="black"/>
<circle cx="74.5" cy="160.5" r="2.5" fill="black"/>
<circle cx="98.5" cy="160.5" r="2.5" fill="black"/>
<circle cx="122.5" cy="160.5" r="2.5" fill="black"/>
<circle cx="146.5" cy="160.5" r="2.5" fill="black"/>
<circle cx="170.5" cy="160.5" r="2.5" fill="black"/>
<circle cx="194.5" cy="160.5" r="2.5" fill="black"/>
<circle cx="218.5" cy="160.5" r="2.5" fill="black"/>
<circle cx="2.5" cy="183.5" r="2.5" fill="black"/>
<circle cx="26.5" cy="183.5" r="2.5" fill="black"/>
<circle cx="50.5" cy="183.5" r="2.5" fill="black"/>
<circle cx="74.5" cy="183.5" r="2.5" fill="black"/>
<circle cx="98.5" cy="183.5" r="2.5" fill="black"/>
<circle cx="122.5" cy="183.5" r="2.5" fill="black"/>
<circle cx="146.5" cy="183.5" r="2.5" fill="black"/>
<circle cx="170.5" cy="183.5" r="2.5" fill="black"/>
<circle cx="194.5" cy="183.5" r="2.5" fill="black"/>
<circle cx="218.5" cy="183.5" r="2.5" fill="black"/>
<circle cx="2.5" cy="206.5" r="2.5" fill="black"/>
<circle cx="26.5" cy="206.5" r="2.5" fill="black"/>
<circle cx="50.5" cy="206.5" r="2.5" fill="black"/>
<circle cx="74.5" cy="206.5" r="2.5" fill="black"/>
<circle cx="98.5" cy="206.5" r="2.5" fill="black"/>
<circle cx="122.5" cy="206.5" r="2.5" fill="black"/>
<circle cx="146.5" cy="206.5" r="2.5" fill="black"/>
<circle cx="170.5" cy="206.5" r="2.5" fill="black"/>
<circle cx="194.5" cy="206.5" r="2.5" fill="black"/>
<circle cx="218.5" cy="206.5" r="2.5" fill="black"/>
<circle cx="2.5" cy="229.5" r="2.5" fill="black"/>
<circle cx="26.5" cy="229.5" r="2.5" fill="black"/>
<circle cx="50.5" cy="229.5" r="2.5" fill="black"/>
<circle cx="74.5" cy="229.5" r="2.5" fill="black"/>
<circle cx="98.5" cy="229.5" r="2.5" fill="black"/>
<circle cx="122.5" cy="229.5" r="2.5" fill="black"/>
<circle cx="146.5" cy="229.5" r="2.5" fill="black"/>
<circle cx="170.5" cy="229.5" r="2.5" fill="black"/>
<circle cx="194.5" cy="229.5" r="2.5" fill="black"/>
<circle cx="218.5" cy="229.5" r="2.5" fill="black"/>
<circle cx="2.5" cy="251.5" r="2.5" fill="black"/>
<circle cx="26.5" cy="251.5" r="2.5" fill="black"/>
<circle cx="50.5" cy="251.5" r="2.5" fill="black"/>
<circle cx="74.5" cy="251.5" r="2.5" fill="black"/>
<circle cx="98.5" cy="251.5" r="2.5" fill="black"/>
<circle cx="122.5" cy="251.5" r="2.5" fill="black"/>
<circle cx="146.5" cy="251.5" r="2.5" fill="black"/>
<circle cx="170.5" cy="251.5" r="2.5" fill="black"/>
<circle cx="194.5" cy="251.5" r="2.5" fill="black"/>
<circle cx="218.5" cy="251.5" r="2.5" fill="black"/>
<circle cx="2.5" cy="274.5" r="2.5" fill="black"/>
<circle cx="26.5" cy="274.5" r="2.5" fill="black"/>
<circle cx="50.5" cy="274.5" r="2.5" fill="black"/>
<circle cx="74.5" cy="274.5" r="2.5" fill="black"/>
<circle cx="98.5" cy="274.5" r="2.5" fill="black"/>
<circle cx="122.5" cy="274.5" r="2.5" fill="black"/>
<circle cx="146.5" cy="274.5" r="2.5" fill="black"/>
<circle cx="170.5" cy="274.5" r="2.5" fill="black"/>
<circle cx="194.5" cy="274.5" r="2.5" fill="black"/>
<circle cx="218.5" cy="274.5" r="2.5" fill="black"/>
<circle cx="2.5" cy="297.5" r="2.5" fill="black"/>
<circle cx="26.5" cy="297.5" r="2.5" fill="black"/>
<circle cx="50.5" cy="297.5" r="2.5" fill="black"/>
<circle cx="74.5" cy="297.5" r="2.5" fill="black"/>
<circle cx="98.5" cy="297.5" r="2.5" fill="black"/>
<circle cx="122.5" cy="297.5" r="2.5" fill="black"/>
<circle cx="146.5" cy="297.5" r="2.5" fill="black"/>
<circle cx="170.5" cy="297.5" r="2.5" fill="black"/>
<circle cx="194.5" cy="297.5" r="2.5" fill="black"/>
<circle cx="218.5" cy="297.5" r="2.5" fill="black"/>
<circle cx="2.5" cy="320.5" r="2.5" fill="black"/>
<circle cx="26.5" cy="320.5" r="2.5" fill="black"/>
<circle cx="50.5" cy="320.5" r="2.5" fill="black"/>
<circle cx="74.5" cy="320.5" r="2.5" fill="black"/>
<circle cx="98.5" cy="320.5" r="2.5" fill="black"/>
<circle cx="122.5" cy="320.5" r="2.5" fill="black"/>
<circle cx="146.5" cy="320.5" r="2.5" fill="black"/>
<circle cx="170.5" cy="320.5" r="2.5" fill="black"/>
<circle cx="194.5" cy="320.5" r="2.5" fill="black"/>
<circle cx="218.5" cy="320.5" r="2.5" fill="black"/>
<circle cx="2.5" cy="343.5" r="2.5" fill="black"/>
<circle cx="26.5" cy="343.5" r="2.5" fill="black"/>
<circle cx="50.5" cy="343.5" r="2.5" fill="black"/>
<circle cx="74.5" cy="343.5" r="2.5" fill="black"/>
<circle cx="98.5" cy="343.5" r="2.5" fill="black"/>
<circle cx="122.5" cy="343.5" r="2.5" fill="black"/>
<circle cx="146.5" cy="343.5" r="2.5" fill="black"/>
<circle cx="170.5" cy="343.5" r="2.5" fill="black"/>
<circle cx="194.5" cy="343.5" r="2.5" fill="black"/>
<circle cx="218.5" cy="343.5" r="2.5" fill="black"/>
<circle cx="2.5" cy="366.5" r="2.5" fill="black"/>
<circle cx="26.5" cy="366.5" r="2.5" fill="black"/>
<circle cx="50.5" cy="366.5" r="2.5" fill="black"/>
<circle cx="74.5" cy="366.5" r="2.5" fill="black"/>
<circle cx="98.5" cy="366.5" r="2.5" fill="black"/>
<circle cx="122.5" cy="366.5" r="2.5" fill="black"/>
<circle cx="146.5" cy="366.5" r="2.5" fill="black"/>
<circle cx="170.5" cy="366.5" r="2.5" fill="black"/>
<circle cx="194.5" cy="366.5" r="2.5" fill="black"/>
<circle cx="218.5" cy="366.5" r="2.5" fill="black"/>
<circle cx="2.5" cy="388.5" r="2.5" fill="black"/>
<circle cx="26.5" cy="388.5" r="2.5" fill="black"/>
<circle cx="50.5" cy="388.5" r="2.5" fill="black"/>
<circle cx="74.5" cy="388.5" r="2.5" fill="black"/>
<circle cx="98.5" cy="388.5" r="2.5" fill="black"/>
<circle cx="122.5" cy="388.5" r="2.5" fill="black"/>
<circle cx="146.5" cy="388.5" r="2.5" fill="black"/>
<circle cx="170.5" cy="388.5" r="2.5" fill="black"/>
<circle cx="194.5" cy="388.5" r="2.5" fill="black"/>
<circle cx="218.5" cy="388.5" r="2.5" fill="black"/>
<circle cx="2.5" cy="274.5" r="2.5" fill="black"/>
<circle cx="26.5" cy="274.5" r="2.5" fill="black"/>
<circle cx="50.5" cy="274.5" r="2.5" fill="black"/>
<circle cx="74.5" cy="274.5" r="2.5" fill="black"/>
<circle cx="98.5" cy="274.5" r="2.5" fill="black"/>
<circle cx="122.5" cy="274.5" r="2.5" fill="black"/>
<circle cx="146.5" cy="274.5" r="2.5" fill="black"/>
<circle cx="170.5" cy="274.5" r="2.5" fill="black"/>
<circle cx="194.5" cy="274.5" r="2.5" fill="black"/>
<circle cx="218.5" cy="274.5" r="2.5" fill="black"/>
<circle cx="2.5" cy="297.5" r="2.5" fill="black"/>
<circle cx="26.5" cy="297.5" r="2.5" fill="black"/>
<circle cx="50.5" cy="297.5" r="2.5" fill="black"/>
<circle cx="74.5" cy="297.5" r="2.5" fill="black"/>
<circle cx="98.5" cy="297.5" r="2.5" fill="black"/>
<circle cx="122.5" cy="297.5" r="2.5" fill="black"/>
<circle cx="146.5" cy="297.5" r="2.5" fill="black"/>
<circle cx="170.5" cy="297.5" r="2.5" fill="black"/>
<circle cx="194.5" cy="297.5" r="2.5" fill="black"/>
<circle cx="218.5" cy="297.5" r="2.5" fill="black"/>
<circle cx="2.5" cy="320.5" r="2.5" fill="black"/>
<circle cx="26.5" cy="320.5" r="2.5" fill="black"/>
<circle cx="50.5" cy="320.5" r="2.5" fill="black"/>
<circle cx="74.5" cy="320.5" r="2.5" fill="black"/>
<circle cx="98.5" cy="320.5" r="2.5" fill="black"/>
<circle cx="122.5" cy="320.5" r="2.5" fill="black"/>
<circle cx="146.5" cy="320.5" r="2.5" fill="black"/>
<circle cx="170.5" cy="320.5" r="2.5" fill="black"/>
<circle cx="194.5" cy="320.5" r="2.5" fill="black"/>
<circle cx="218.5" cy="320.5" r="2.5" fill="black"/>
<circle cx="2.5" cy="343.5" r="2.5" fill="black"/>
<circle cx="26.5" cy="343.5" r="2.5" fill="black"/>
<circle cx="50.5" cy="343.5" r="2.5" fill="black"/>
<circle cx="74.5" cy="343.5" r="2.5" fill="black"/>
<circle cx="98.5" cy="343.5" r="2.5" fill="black"/>
<circle cx="122.5" cy="343.5" r="2.5" fill="black"/>
<circle cx="2.5" cy="412.5" r="2.5" fill="black"/>
<circle cx="26.5" cy="412.5" r="2.5" fill="black"/>
<circle cx="50.5" cy="412.5" r="2.5" fill="black"/>
<circle cx="74.5" cy="412.5" r="2.5" fill="black"/>
<circle cx="98.5" cy="412.5" r="2.5" fill="black"/>
<circle cx="122.5" cy="412.5" r="2.5" fill="black"/>
<circle cx="146.5" cy="412.5" r="2.5" fill="black"/>
<circle cx="170.5" cy="412.5" r="2.5" fill="black"/>
<circle cx="194.5" cy="412.5" r="2.5" fill="black"/>
<circle cx="218.5" cy="412.5" r="2.5" fill="black"/>
<circle cx="2.5" cy="435.5" r="2.5" fill="black"/>
<circle cx="26.5" cy="435.5" r="2.5" fill="black"/>
<circle cx="50.5" cy="435.5" r="2.5" fill="black"/>
<circle cx="74.5" cy="435.5" r="2.5" fill="black"/>
<circle cx="98.5" cy="435.5" r="2.5" fill="black"/>
<circle cx="122.5" cy="435.5" r="2.5" fill="black"/>
<circle cx="146.5" cy="435.5" r="2.5" fill="black"/>
<circle cx="170.5" cy="435.5" r="2.5" fill="black"/>
<circle cx="194.5" cy="435.5" r="2.5" fill="black"/>
<circle cx="218.5" cy="435.5" r="2.5" fill="black"/>
<circle cx="2.5" cy="458.5" r="2.5" fill="black"/>
<circle cx="26.5" cy="458.5" r="2.5" fill="black"/>
<circle cx="50.5" cy="458.5" r="2.5" fill="black"/>
<circle cx="74.5" cy="458.5" r="2.5" fill="black"/>
<circle cx="98.5" cy="458.5" r="2.5" fill="black"/>
<circle cx="122.5" cy="458.5" r="2.5" fill="black"/>
<circle cx="146.5" cy="458.5" r="2.5" fill="black"/>
<circle cx="170.5" cy="458.5" r="2.5" fill="black"/>
<circle cx="194.5" cy="458.5" r="2.5" fill="black"/>
<circle cx="218.5" cy="458.5" r="2.5" fill="black"/>
<circle cx="2.5" cy="481.5" r="2.5" fill="black"/>
<circle cx="26.5" cy="481.5" r="2.5" fill="black"/>
<circle cx="50.5" cy="481.5" r="2.5" fill="black"/>
<circle cx="74.5" cy="481.5" r="2.5" fill="black"/>
<circle cx="98.5" cy="481.5" r="2.5" fill="black"/>
<circle cx="122.5" cy="481.5" r="2.5" fill="black"/>
<circle cx="146.5" cy="481.5" r="2.5" fill="black"/>
<circle cx="170.5" cy="481.5" r="2.5" fill="black"/>
<circle cx="194.5" cy="481.5" r="2.5" fill="black"/>
<circle cx="218.5" cy="481.5" r="2.5" fill="black"/>
<circle cx="2.5" cy="504.5" r="2.5" fill="black"/>
<circle cx="26.5" cy="504.5" r="2.5" fill="black"/>
<circle cx="50.5" cy="504.5" r="2.5" fill="black"/>
<circle cx="74.5" cy="504.5" r="2.5" fill="black"/>
<circle cx="98.5" cy="504.5" r="2.5" fill="black"/>
<circle cx="122.5" cy="504.5" r="2.5" fill="black"/>
<circle cx="146.5" cy="504.5" r="2.5" fill="black"/>
<circle cx="170.5" cy="504.5" r="2.5" fill="black"/>
<circle cx="194.5" cy="504.5" r="2.5" fill="black"/>
<circle cx="218.5" cy="504.5" r="2.5" fill="black"/>
<circle cx="2.5" cy="526.5" r="2.5" fill="black"/>
<circle cx="26.5" cy="526.5" r="2.5" fill="black"/>
<circle cx="50.5" cy="526.5" r="2.5" fill="black"/>
<circle cx="74.5" cy="526.5" r="2.5" fill="black"/>
<circle cx="98.5" cy="526.5" r="2.5" fill="black"/>
<circle cx="122.5" cy="526.5" r="2.5" fill="black"/>
<circle cx="146.5" cy="526.5" r="2.5" fill="black"/>
<circle cx="170.5" cy="526.5" r="2.5" fill="black"/>
<circle cx="194.5" cy="526.5" r="2.5" fill="black"/>
<circle cx="218.5" cy="526.5" r="2.5" fill="black"/>
<circle cx="2.5" cy="412.5" r="2.5" fill="black"/>
<circle cx="26.5" cy="412.5" r="2.5" fill="black"/>
<circle cx="50.5" cy="412.5" r="2.5" fill="black"/>
<circle cx="74.5" cy="412.5" r="2.5" fill="black"/>
<circle cx="98.5" cy="412.5" r="2.5" fill="black"/>
<circle cx="122.5" cy="412.5" r="2.5" fill="black"/>
<circle cx="146.5" cy="412.5" r="2.5" fill="black"/>
<circle cx="170.5" cy="412.5" r="2.5" fill="black"/>
<circle cx="194.5" cy="412.5" r="2.5" fill="black"/>
<circle cx="218.5" cy="412.5" r="2.5" fill="black"/>
<circle cx="2.5" cy="435.5" r="2.5" fill="black"/>
<circle cx="26.5" cy="435.5" r="2.5" fill="black"/>
<circle cx="50.5" cy="435.5" r="2.5" fill="black"/>
<circle cx="74.5" cy="435.5" r="2.5" fill="black"/>
<circle cx="98.5" cy="435.5" r="2.5" fill="black"/>
<circle cx="122.5" cy="435.5" r="2.5" fill="black"/>
<circle cx="146.5" cy="435.5" r="2.5" fill="black"/>
<circle cx="170.5" cy="435.5" r="2.5" fill="black"/>
<circle cx="194.5" cy="435.5" r="2.5" fill="black"/>
<circle cx="218.5" cy="435.5" r="2.5" fill="black"/>
<circle cx="2.5" cy="458.5" r="2.5" fill="black"/>
<circle cx="26.5" cy="458.5" r="2.5" fill="black"/>
<circle cx="50.5" cy="458.5" r="2.5" fill="black"/>
<circle cx="74.5" cy="458.5" r="2.5" fill="black"/>
<circle cx="98.5" cy="458.5" r="2.5" fill="black"/>
<circle cx="122.5" cy="458.5" r="2.5" fill="black"/>
<circle cx="146.5" cy="458.5" r="2.5" fill="black"/>
<circle cx="170.5" cy="458.5" r="2.5" fill="black"/>
<circle cx="194.5" cy="458.5" r="2.5" fill="black"/>
<circle cx="218.5" cy="458.5" r="2.5" fill="black"/>
<circle cx="2.5" cy="481.5" r="2.5" fill="black"/>
<circle cx="26.5" cy="481.5" r="2.5" fill="black"/>
<circle cx="50.5" cy="481.5" r="2.5" fill="black"/>
<circle cx="74.5" cy="481.5" r="2.5" fill="black"/>
<circle cx="98.5" cy="481.5" r="2.5" fill="black"/>
<circle cx="122.5" cy="481.5" r="2.5" fill="black"/>
<circle cx="146.5" cy="481.5" r="2.5" fill="black"/>
<circle cx="170.5" cy="481.5" r="2.5" fill="black"/>
<circle cx="194.5" cy="481.5" r="2.5" fill="black"/>
<circle cx="218.5" cy="481.5" r="2.5" fill="black"/>
<circle cx="2.5" cy="504.5" r="2.5" fill="black"/>
<circle cx="26.5" cy="504.5" r="2.5" fill="black"/>
<circle cx="50.5" cy="504.5" r="2.5" fill="black"/>
<circle cx="74.5" cy="504.5" r="2.5" fill="black"/>
<circle cx="98.5" cy="504.5" r="2.5" fill="black"/>
<circle cx="122.5" cy="504.5" r="2.5" fill="black"/>
<circle cx="146.5" cy="504.5" r="2.5" fill="black"/>
<circle cx="170.5" cy="504.5" r="2.5" fill="black"/>
<circle cx="194.5" cy="504.5" r="2.5" fill="black"/>
<circle cx="218.5" cy="504.5" r="2.5" fill="black"/>
<circle cx="2.5" cy="526.5" r="2.5" fill="black"/>
<circle cx="26.5" cy="526.5" r="2.5" fill="black"/>
<circle cx="50.5" cy="526.5" r="2.5" fill="black"/>
<circle cx="74.5" cy="526.5" r="2.5" fill="black"/>
<circle cx="98.5" cy="526.5" r="2.5" fill="black"/>
<circle cx="122.5" cy="526.5" r="2.5" fill="black"/>
<circle cx="146.5" cy="526.5" r="2.5" fill="black"/>
<circle cx="170.5" cy="526.5" r="2.5" fill="black"/>
<circle cx="194.5" cy="526.5" r="2.5" fill="black"/>
<circle cx="218.5" cy="526.5" r="2.5" fill="black"/>
<circle cx="146.5" cy="343.5" r="2.5" fill="black"/>
<circle cx="170.5" cy="343.5" r="2.5" fill="black"/>
<circle cx="194.5" cy="343.5" r="2.5" fill="black"/>
<circle cx="218.5" cy="343.5" r="2.5" fill="black"/>
<circle cx="2.5" cy="366.5" r="2.5" fill="black"/>
<circle cx="26.5" cy="366.5" r="2.5" fill="black"/>
<circle cx="50.5" cy="366.5" r="2.5" fill="black"/>
<circle cx="74.5" cy="366.5" r="2.5" fill="black"/>
<circle cx="98.5" cy="366.5" r="2.5" fill="black"/>
<circle cx="122.5" cy="366.5" r="2.5" fill="black"/>
<circle cx="146.5" cy="366.5" r="2.5" fill="black"/>
<circle cx="170.5" cy="366.5" r="2.5" fill="black"/>
<circle cx="194.5" cy="366.5" r="2.5" fill="black"/>
<circle cx="218.5" cy="366.5" r="2.5" fill="black"/>
<circle cx="2.5" cy="388.5" r="2.5" fill="black"/>
<circle cx="26.5" cy="388.5" r="2.5" fill="black"/>
<circle cx="50.5" cy="388.5" r="2.5" fill="black"/>
<circle cx="74.5" cy="388.5" r="2.5" fill="black"/>
<circle cx="98.5" cy="388.5" r="2.5" fill="black"/>
<circle cx="122.5" cy="388.5" r="2.5" fill="black"/>
<circle cx="146.5" cy="388.5" r="2.5" fill="black"/>
<circle cx="170.5" cy="388.5" r="2.5" fill="black"/>
<circle cx="194.5" cy="388.5" r="2.5" fill="black"/>
<circle cx="218.5" cy="388.5" r="2.5" fill="black"/>
</svg>
