<svg xmlns="http://www.w3.org/2000/svg" xmlns:xlink="http://www.w3.org/1999/xlink" viewBox="0 0 220.27 22.86"><defs><style>.cls-1{fill:url(#鍊踑臇_蜸馯鳺艜_8);}.cls-2{fill:url(#鍊踑臇_蜸馯鳺艜_8-2);}.cls-3{fill:url(#鍊踑臇_蜸馯鳺艜_8-3);}.cls-4{fill:url(#鍊踑臇_蜸馯鳺艜_8-4);}.cls-5{fill:url(#鍊踑臇_蜸馯鳺艜_8-5);}.cls-6{fill:url(#鍊踑臇_蜸馯鳺艜_8-6);}.cls-7{fill:url(#鍊踑臇_蜸馯鳺艜_8-7);}</style><linearGradient id="鍊踑臇_蜸馯鳺艜_8" x1="94.05" y1="-4.84" x2="116.05" y2="16.91" gradientUnits="userSpaceOnUse"><stop offset="0" stop-color="#bb7239"/><stop offset="0.23" stop-color="#fceeae"/><stop offset="0.52" stop-color="#e09e5b"/><stop offset="0.75" stop-color="#fce9a4"/><stop offset="0.83" stop-color="#f1d693"/><stop offset="0.92" stop-color="#e1bd7c"/><stop offset="1" stop-color="#d08a4a"/></linearGradient><linearGradient id="鍊踑臇_蜸馯鳺艜_8-2" x1="117.85" y1="-4.89" x2="104.1" y2="13.36" xlink:href="#鍊踑臇_蜸馯鳺艜_8"/><linearGradient id="鍊踑臇_蜸馯鳺艜_8-3" x1="114.92" y1="-5.26" x2="104.92" y2="18.24" xlink:href="#鍊踑臇_蜸馯鳺艜_8"/><linearGradient id="鍊踑臇_蜸馯鳺艜_8-4" x1="169.48" y1="32.39" x2="39.23" y2="13.39" xlink:href="#鍊踑臇_蜸馯鳺艜_8"/><linearGradient id="鍊踑臇_蜸馯鳺艜_8-5" x1="0" y1="10.14" x2="95.18" y2="10.14" xlink:href="#鍊踑臇_蜸馯鳺艜_8"/><linearGradient id="鍊踑臇_蜸馯鳺艜_8-6" x1="171.49" y1="18.67" x2="41.23" y2="-0.33" xlink:href="#鍊踑臇_蜸馯鳺艜_8"/><linearGradient id="鍊踑臇_蜸馯鳺艜_8-7" x1="125.09" y1="10.14" x2="220.27" y2="10.14" xlink:href="#鍊踑臇_蜸馯鳺艜_8"/></defs><g id="圖層_2" data-name="圖層 2"><g id="_鋋嶱x5F_1" data-name="—鋋嶱x5F 1"><path class="cls-1" d="M110.13,22.86,98.27,11H122Zm-9-10.66,9,9,9-9Z"/><path class="cls-2" d="M110.13,21.7,101.85,0h16.57ZM103.59,1.2l6.54,17.13L116.68,1.2Z"/><path class="cls-3" d="M110.13,22.11,99.61,6h21ZM101.83,7.2l8.3,12.72L118.44,7.2Z"/><polygon class="cls-4" points="103.49 22.79 96.58 15.88 0 15.88 0 13.68 97.49 13.68 105.04 21.24 103.49 22.79"/><rect class="cls-5" y="9.54" width="95.18" height="1.2"/><polygon class="cls-6" points="116.78 22.79 115.22 21.24 122.78 13.68 220.27 13.68 220.27 15.88 123.69 15.88 116.78 22.79"/><rect class="cls-7" x="125.09" y="9.54" width="95.18" height="1.2"/></g></g></svg>