<svg xmlns="http://www.w3.org/2000/svg" viewBox="0 0 192.36 91.81">
    <path class="a" d="M161.47,9.2a84.87,84.87,0,0,1,16,2.27c1.27.32,2.38,1.08,3.72,1.21.55.06.56.68.6,1.19a1.56,1.56,0,0,1-1,1.59c-2.16,1-4.18,2.71-6.85,1.59-.07,0-.26.2-.53.41.82.76,1.91.63,2.8.89a9.35,9.35,0,0,1,1.85,1c.6.32.7,1.3.16,1.49-.87.31-1.35.88-1.3,1.58.08,1.16,1.39.56,2,1.06.2.16.58.07,1,.1a2.7,2.7,0,0,1-1.38,2.28l.8.36c-.06.08-.1.18-.17.21-2.24,1.18-4.46,2.13-7,.86-1.75-.85-7.13-.61-9.26.2-1.65-1.19-2.23-1.29-5.21-.86,1.78,2.38,4.52.83,6.58,1.88-.13,1.23-1.68.65-2.15,1.68,6,1,12.07,1.06,18.2,2.76.6.73,0,2.1.55,3-5.64.88-11.36-.7-17.06-.13-.39,1.09-.21,2,.79,1.72,2.19-.54,4.28.13,6.38.31a41.35,41.35,0,0,1,8.2,1.12c.1.81.55,1.83.22,2.37a7.14,7.14,0,0,1-2.82,2.89c-1,.42-2.43-.22-3.68-.33-5.5-.46-11-.74-16.51.63.79,1.24.79,1.25,2,1.26,3.52,0,7-.31,10.52-.59,2.44-.21,5.2-.15,7.27,2,.71.72,1.89.93,2.54,1.81-1.44,1.88-3.65,1.68-5.66,1.91-2.62.3-5.29,0-7.94.75,1.92.65,3.56,2,5.74,1.85s3.09,2.13,4.71,3.11c.2.13.21.67-.26.88-1.31.59-1.41,2.41-3.23,2.64a2.83,2.83,0,0,0,3.2.85,2.29,2.29,0,0,1,2.52.63c.91,1.19.42,2-1.05,2.51-1,.37-2.26.29-3.15,1.12,2,1.85,4.91.78,7.1,2.51,0,.35.13,1,.21,1.66a31.6,31.6,0,0,1-9.11,1.7c-4,.35-7.91-.06-11.85.26-5.35.44-10.71.21-16.07.37-2.09.06-4.12.72-6.24.73a16.67,16.67,0,0,1-4.78-.66c-1-.31-1.89.22-2.83.31a38.55,38.55,0,0,1-10.62,0,10.39,10.39,0,0,0-1.6,0c2.67,1.4,3.25,2.42,3,5-.82.28-1.91-.24-2.64.78,1.92,1.12,4.34,1.48,5.72,3.58a7.81,7.81,0,0,1-5.87,1.49c1.82,2.12,5.1,2.24,5.6,5.24-2.19.91-4.55.36-6.76.75-4.13.73-7.93-.79-11.86-1.37-1.09-.16-1.93.43-3,.25s-2.11,0-3.11-.69c-1.2-.78-2.36.34-3.58.41-.73,0-1.53.23-2.3.23-3.74,0-7.44.35-11.16.64a35.41,35.41,0,0,1-4,0c-3.23-.12-6.29,1-9.63.66s-7,.37-10.44.94a63.24,63.24,0,0,1-12.16,1.1c-2-.06-3.83.84-5.86.74a14.53,14.53,0,0,1-4.3-.39c-2.13-.76-4.35-.26-6.54-.37a10,10,0,0,1-7.35-3.54,7.6,7.6,0,0,0-1.53-1c.23-.34.32-.66,1.06-.68a27.81,27.81,0,0,1,5.06.43,79.18,79.18,0,0,0,13.69.38,4.2,4.2,0,0,0,2.16-.13,16.45,16.45,0,0,0-5.76-1.22,43.89,43.89,0,0,0-8.33-.35c-5.11.43-10.22.06-15.31.35-2.63.15-5.24.7-7.89.68C3.26,85.9.38,83.65.11,82.33c-.13-.63.28-.87.82-1.19a9.21,9.21,0,0,1,5.63-1c-.17-2.65-2.94-1.35-3.72-2.87-.35-1.5,1.44-2,1.92-3.3C4,73.41,3,73.42,2.64,72.37c.23-.64,1.4-1,.84-2l1.2-.2c.47-1-.4-1.63-.71-2.17-1-1.75-.47-3.91-1.64-5.58a.54.54,0,0,1,.1-.49c1.77-1.75.45-3.47-.19-5C.7,53.07-.38,49.19.13,45.12a80.67,80.67,0,0,0,.3-8.5c0-2.68.1-5.37,0-8-.19-4.7.14-9.38.39-14.06A1.65,1.65,0,0,1,1,13.66C2.54,11.82,2.26,9,4.4,7.48c.19-.13.08-.7.46-.91.56.41.51.41.51,1.82a16.49,16.49,0,0,0,.31,2.3c1.54-.55,2.74-1.6,4.71-1.2A5.2,5.2,0,0,0,15.47,8c-3.36-.62-5.86-.82-8.26-2.81C7.26,4,8.3,4.08,9,3.86c3.18-1,6.51-1,9.79-1.09,5-.13,10,0,15,0,4.47-.05,8.94-.25,13.42-.34A20.93,20.93,0,0,0,51,1.47c3.06-.6,6-.15,9-.14,4.9,0,9.75-.77,14.63-.74,3.93,0,7.84-.1,11.77-.26a40,40,0,0,1,4.47.22c3.21.27,6.37-1,9.56-.34,2.32.5,4.62-.3,7,.27S112,.09,114.31.17c4.28.15,8.55.09,12.84.63,2.21.28,4.61-.46,6.9-.21,5.56.61,11.16.44,16.72.79,4.19.26,7.29,2.44,10.92,3.6,1.58.5,1.61,1.92.37,3.08C161.78,8.33,161.32,8.53,161.47,9.2Zm-62,63.57c.36,1,1.19,1,1.6,1.58-.08.47-.56.86-.35,1.54a20.45,20.45,0,0,1,6.78,1.18c1.74.56,3.61,1.45,5.55.5.13-.06.37-.06.28-.28l-1.17-.83c1.66.06.94-1.08.63-1.19-1.06-.37-1.07-1.16-1.18-2.11.94.23,1.48-.63,2.31-.87C109.1,72.29,104.36,73,99.43,72.77Zm65.1-21.39c-1.4-.28-2.95.08-3.95-.3-2.35-.88-3.34.56-4.79,1.69C159.6,54.6,163.17,54,164.53,51.38Zm-145,14.79a12,12,0,0,0-7-1.73l1.11.86c-.11.39-.95,0-.75.68C15.11,66.85,17.3,65.89,19.57,66.17ZM170.75,17.56a4.68,4.68,0,0,0-5.65-.75C166.82,18.6,168.93,17,170.75,17.56Zm-6.2-.68c-1.56.45-3.37-.71-5,.52C161.44,18.48,163,17.23,164.55,16.88ZM107.33,82.75c-1.42-2-3.13-1.23-4.46-1.76-.05.16-.1.32-.14.47Z"/>
    <path class="a" d="M187.81,18.41c1.67-.86,4.15.05,4.52,1.46.12.49-.19.77-.49,1.08s-.6.32-1.08.15C189.42,20.63,189,19.33,187.81,18.41Z"/>
    <path class="a" d="M188.49,26.46c-2.12-.64-3-1.84-2.48-3.21C189.05,24.07,189.05,24.07,188.49,26.46Z"/>
</svg>