<svg width="847" height="452" viewBox="0 0 847 452" fill="none" xmlns="http://www.w3.org/2000/svg">
<rect x="1" y="2" width="845" height="448" stroke="black" stroke-opacity="0.1" stroke-width="2"/>
<line x1="1.29289" y1="43.78" x2="43.0122" y2="2.06065" stroke="black" stroke-opacity="0.1" stroke-width="2"/>
<line x1="1.29289" y1="68.5493" x2="67.7609" y2="2.08127" stroke="black" stroke-opacity="0.1" stroke-width="2"/>
<line x1="1.29289" y1="93.5493" x2="92.5097" y2="2.33253" stroke="black" stroke-opacity="0.1" stroke-width="2"/>
<line x1="1.29289" y1="118.549" x2="117.258" y2="2.58379" stroke="black" stroke-opacity="0.1" stroke-width="2"/>
<line x1="1.29289" y1="143.549" x2="142.714" y2="2.12795" stroke="black" stroke-opacity="0.1" stroke-width="2"/>
<line x1="1.29289" y1="168.549" x2="167.463" y2="2.37921" stroke="black" stroke-opacity="0.1" stroke-width="2"/>
<line x1="1.29289" y1="193.549" x2="192.919" y2="1.92337" stroke="black" stroke-opacity="0.1" stroke-width="2"/>
<line x1="1.29289" y1="218.549" x2="217.668" y2="2.17463" stroke="black" stroke-opacity="0.1" stroke-width="2"/>
<line x1="1.29289" y1="243.549" x2="243.123" y2="1.71879" stroke="black" stroke-opacity="0.1" stroke-width="2"/>
<line x1="1.29289" y1="268.549" x2="267.872" y2="1.97005" stroke="black" stroke-opacity="0.1" stroke-width="2"/>
<line x1="1.29289" y1="293.549" x2="292.621" y2="2.22131" stroke="black" stroke-opacity="0.1" stroke-width="2"/>
<line x1="1.29289" y1="318.549" x2="317.37" y2="2.47258" stroke="black" stroke-opacity="0.1" stroke-width="2"/>
<line x1="1.29289" y1="343.549" x2="342.825" y2="2.01673" stroke="black" stroke-opacity="0.1" stroke-width="2"/>
<line x1="1.29289" y1="368.549" x2="367.574" y2="2.26793" stroke="black" stroke-opacity="0.1" stroke-width="2"/>
<line x1="1.29289" y1="393.549" x2="392.323" y2="2.5192" stroke="black" stroke-opacity="0.1" stroke-width="2"/>
<line x1="1.29289" y1="418.549" x2="417.779" y2="2.06335" stroke="black" stroke-opacity="0.1" stroke-width="2"/>
<line x1="1.29289" y1="443.549" x2="443.235" y2="1.60751" stroke="black" stroke-opacity="0.1" stroke-width="2"/>
<line x1="468.707" y1="2.70711" x2="21.1085" y2="450.306" stroke="black" stroke-opacity="0.1" stroke-width="2"/>
<line x1="493.707" y1="2.70711" x2="46.1085" y2="450.306" stroke="black" stroke-opacity="0.1" stroke-width="2"/>
<line x1="518.707" y1="2.70711" x2="71.1085" y2="450.306" stroke="black" stroke-opacity="0.1" stroke-width="2"/>
<line x1="546.306" y1="2.70711" x2="98.7072" y2="450.306" stroke="black" stroke-opacity="0.1" stroke-width="2"/>
<line x1="571.306" y1="2.70711" x2="123.707" y2="450.306" stroke="black" stroke-opacity="0.1" stroke-width="2"/>
<line x1="596.306" y1="2.70711" x2="148.707" y2="450.306" stroke="black" stroke-opacity="0.1" stroke-width="2"/>
<line x1="776.306" y1="2.70711" x2="328.707" y2="450.306" stroke="black" stroke-opacity="0.1" stroke-width="2"/>
<line x1="801.306" y1="2.70711" x2="353.707" y2="450.306" stroke="black" stroke-opacity="0.1" stroke-width="2"/>
<line x1="826.306" y1="2.70711" x2="378.707" y2="450.306" stroke="black" stroke-opacity="0.1" stroke-width="2"/>
<line x1="845.649" y1="8.70711" x2="404.414" y2="449.942" stroke="black" stroke-opacity="0.1" stroke-width="2"/>
<line x1="845.942" y1="36.7071" x2="432.284" y2="450.365" stroke="black" stroke-opacity="0.1" stroke-width="2"/>
<line x1="845.306" y1="69.7071" x2="464.882" y2="450.131" stroke="black" stroke-opacity="0.1" stroke-width="2"/>
<line x1="801.306" y1="2.70711" x2="353.707" y2="450.306" stroke="black" stroke-opacity="0.1" stroke-width="2"/>
<line x1="826.306" y1="2.70711" x2="378.707" y2="450.306" stroke="black" stroke-opacity="0.1" stroke-width="2"/>
<line x1="845.649" y1="8.70711" x2="404.414" y2="449.942" stroke="black" stroke-opacity="0.1" stroke-width="2"/>
<line x1="845.942" y1="36.7071" x2="432.284" y2="450.365" stroke="black" stroke-opacity="0.1" stroke-width="2"/>
<line x1="845.306" y1="69.7071" x2="464.882" y2="450.131" stroke="black" stroke-opacity="0.1" stroke-width="2"/>
<line x1="845.942" y1="97.7071" x2="493.803" y2="449.846" stroke="black" stroke-opacity="0.1" stroke-width="2"/>
<line x1="845.365" y1="128.707" x2="523.631" y2="450.441" stroke="black" stroke-opacity="0.1" stroke-width="2"/>
<line x1="846.131" y1="158.707" x2="554.095" y2="450.742" stroke="black" stroke-opacity="0.1" stroke-width="2"/>
<line x1="845.942" y1="223.707" x2="619.668" y2="449.981" stroke="black" stroke-opacity="0.1" stroke-width="2"/>
<line x1="845.365" y1="189.707" x2="585.149" y2="449.922" stroke="black" stroke-opacity="0.1" stroke-width="2"/>
<line x1="846.131" y1="253.707" x2="649.555" y2="450.283" stroke="black" stroke-opacity="0.1" stroke-width="2"/>
<line x1="845.283" y1="289.707" x2="684.77" y2="450.22" stroke="black" stroke-opacity="0.1" stroke-width="2"/>
<line x1="845.283" y1="326.707" x2="721.539" y2="450.451" stroke="black" stroke-opacity="0.1" stroke-width="2"/>
<line x1="845.283" y1="365.707" x2="760.43" y2="450.56" stroke="black" stroke-opacity="0.1" stroke-width="2"/>
<line x1="845.283" y1="405.707" x2="800.735" y2="450.255" stroke="black" stroke-opacity="0.1" stroke-width="2"/>
<line x1="621.306" y1="2.70711" x2="173.707" y2="450.306" stroke="black" stroke-opacity="0.1" stroke-width="2"/>
<line x1="646.306" y1="2.70711" x2="198.707" y2="450.306" stroke="black" stroke-opacity="0.1" stroke-width="2"/>
<line x1="671.306" y1="2.70711" x2="223.707" y2="450.306" stroke="black" stroke-opacity="0.1" stroke-width="2"/>
<line x1="698.904" y1="2.70711" x2="251.306" y2="450.306" stroke="black" stroke-opacity="0.1" stroke-width="2"/>
<line x1="723.904" y1="2.70711" x2="276.306" y2="450.306" stroke="black" stroke-opacity="0.1" stroke-width="2"/>
<line x1="748.904" y1="2.70711" x2="301.306" y2="450.306" stroke="black" stroke-opacity="0.1" stroke-width="2"/>
<rect x="1" y="2" width="845" height="448" stroke="black" stroke-opacity="0.1" stroke-width="2"/>
<line x1="1.29289" y1="43.78" x2="43.0122" y2="2.06065" stroke="black" stroke-opacity="0.1" stroke-width="2"/>
<line x1="1.29289" y1="68.5493" x2="67.7609" y2="2.08127" stroke="black" stroke-opacity="0.1" stroke-width="2"/>
<line x1="1.29289" y1="93.5493" x2="92.5097" y2="2.33253" stroke="black" stroke-opacity="0.1" stroke-width="2"/>
<line x1="1.29289" y1="118.549" x2="117.258" y2="2.58379" stroke="black" stroke-opacity="0.1" stroke-width="2"/>
<line x1="1.29289" y1="143.549" x2="142.714" y2="2.12795" stroke="black" stroke-opacity="0.1" stroke-width="2"/>
<line x1="1.29289" y1="168.549" x2="167.463" y2="2.37921" stroke="black" stroke-opacity="0.1" stroke-width="2"/>
<line x1="1.29289" y1="193.549" x2="192.919" y2="1.92337" stroke="black" stroke-opacity="0.1" stroke-width="2"/>
<line x1="1.29289" y1="218.549" x2="217.668" y2="2.17463" stroke="black" stroke-opacity="0.1" stroke-width="2"/>
<line x1="1.29289" y1="243.549" x2="243.123" y2="1.71879" stroke="black" stroke-opacity="0.1" stroke-width="2"/>
<line x1="1.29289" y1="268.549" x2="267.872" y2="1.97005" stroke="black" stroke-opacity="0.1" stroke-width="2"/>
<line x1="1.29289" y1="293.549" x2="292.621" y2="2.22131" stroke="black" stroke-opacity="0.1" stroke-width="2"/>
<line x1="1.29289" y1="318.549" x2="317.37" y2="2.47258" stroke="black" stroke-opacity="0.1" stroke-width="2"/>
<line x1="1.29289" y1="343.549" x2="342.825" y2="2.01673" stroke="black" stroke-opacity="0.1" stroke-width="2"/>
<line x1="1.29289" y1="368.549" x2="367.574" y2="2.26793" stroke="black" stroke-opacity="0.1" stroke-width="2"/>
<line x1="1.29289" y1="393.549" x2="392.323" y2="2.5192" stroke="black" stroke-opacity="0.1" stroke-width="2"/>
<line x1="1.29289" y1="418.549" x2="417.779" y2="2.06335" stroke="black" stroke-opacity="0.1" stroke-width="2"/>
<line x1="1.29289" y1="443.549" x2="443.235" y2="1.60751" stroke="black" stroke-opacity="0.1" stroke-width="2"/>
<line x1="468.707" y1="2.70711" x2="21.1085" y2="450.306" stroke="black" stroke-opacity="0.1" stroke-width="2"/>
<line x1="493.707" y1="2.70711" x2="46.1085" y2="450.306" stroke="black" stroke-opacity="0.1" stroke-width="2"/>
<line x1="518.707" y1="2.70711" x2="71.1085" y2="450.306" stroke="black" stroke-opacity="0.1" stroke-width="2"/>
<line x1="546.306" y1="2.70711" x2="98.7072" y2="450.306" stroke="black" stroke-opacity="0.1" stroke-width="2"/>
<line x1="571.306" y1="2.70711" x2="123.707" y2="450.306" stroke="black" stroke-opacity="0.1" stroke-width="2"/>
<line x1="596.306" y1="2.70711" x2="148.707" y2="450.306" stroke="black" stroke-opacity="0.1" stroke-width="2"/>
<line x1="776.306" y1="2.70711" x2="328.707" y2="450.306" stroke="black" stroke-opacity="0.1" stroke-width="2"/>
<line x1="845.942" y1="97.7071" x2="493.803" y2="449.846" stroke="black" stroke-opacity="0.1" stroke-width="2"/>
<line x1="845.365" y1="128.707" x2="523.631" y2="450.441" stroke="black" stroke-opacity="0.1" stroke-width="2"/>
<line x1="846.131" y1="158.707" x2="554.095" y2="450.742" stroke="black" stroke-opacity="0.1" stroke-width="2"/>
<line x1="845.942" y1="223.707" x2="619.668" y2="449.981" stroke="black" stroke-opacity="0.1" stroke-width="2"/>
<line x1="845.365" y1="189.707" x2="585.149" y2="449.922" stroke="black" stroke-opacity="0.1" stroke-width="2"/>
<line x1="846.131" y1="253.707" x2="649.555" y2="450.283" stroke="black" stroke-opacity="0.1" stroke-width="2"/>
<line x1="845.283" y1="289.707" x2="684.77" y2="450.22" stroke="black" stroke-opacity="0.1" stroke-width="2"/>
<line x1="845.283" y1="326.707" x2="721.539" y2="450.451" stroke="black" stroke-opacity="0.1" stroke-width="2"/>
<line x1="845.283" y1="365.707" x2="760.43" y2="450.56" stroke="black" stroke-opacity="0.1" stroke-width="2"/>
<line x1="845.283" y1="405.707" x2="800.735" y2="450.255" stroke="black" stroke-opacity="0.1" stroke-width="2"/>
<line x1="621.306" y1="2.70711" x2="173.707" y2="450.306" stroke="black" stroke-opacity="0.1" stroke-width="2"/>
<line x1="646.306" y1="2.70711" x2="198.707" y2="450.306" stroke="black" stroke-opacity="0.1" stroke-width="2"/>
<line x1="671.306" y1="2.70711" x2="223.707" y2="450.306" stroke="black" stroke-opacity="0.1" stroke-width="2"/>
<line x1="698.904" y1="2.70711" x2="251.306" y2="450.306" stroke="black" stroke-opacity="0.1" stroke-width="2"/>
<line x1="723.904" y1="2.70711" x2="276.306" y2="450.306" stroke="black" stroke-opacity="0.1" stroke-width="2"/>
<line x1="748.904" y1="2.70711" x2="301.306" y2="450.306" stroke="black" stroke-opacity="0.1" stroke-width="2"/>
</svg>
