<svg width="1229.4650146484375px" height="131.36000366210936px" xmlns="http://www.w3.org/2000/svg" viewBox="-364.7325073242188 9.319998168945318 1229.4650146484375 131.36000366210936" style="background: none;" preserveAspectRatio="xMidYMid"><defs><filter id="editing-raise" x="-100%" y="-100%" width="300%" height="300%"><feFlood flood-color="#ccc" result="flood-surface"></feFlood><feFlood flood-color="#777777" result="flood-extrude"></feFlood><feMorphology operator="erode" in="SourceAlpha" radius="1" result="erode"></feMorphology><feConvolveMatrix in="erode" result="shadow" order="11,8" divisor="1" kernelMatrix="0 0 0 1 1 1 1 1 0 0 0 0 0 1 0 0 0 0 0 1 0 0 0 0 1 0 0 0 0 0 1 0 0 0 0 1 0 0 0 0 0 1 0 0 0 0 1 0 0 0 0 0 1 0 0 0 0 0 1 0 0 0 1 0 0 0 0 0 0 1 1 0 1 1 0 0 0 0 0 0 0 0 1 0 0 0 0 0"></feConvolveMatrix><feOffset dx="0" dy="4" in="shadow" result="offset"></feOffset><feGaussianBlur in="offset" stdDeviation="0.2" result="blur"></feGaussianBlur><feComposite operator="in" in="flood-extrude" in2="blur" result="extrude"></feComposite><feMorphology operator="erode" in="SourceAlpha" radius="1" result="erode2"></feMorphology><feConvolveMatrix in="erode2" result="out" order="4,4" divisor="1" kernelMatrix="0 1 1 0 1 0 0 1 1 0 0 1 0 1 1 0 "></feConvolveMatrix><feComposite operator="in" in="flood-surface" in2="out" result="text"></feComposite><feMerge><feMergeNode in="extrude"></feMergeNode><feMergeNode in="text"></feMergeNode></feMerge></filter></defs><g filter="url(#editing-raise)"><g transform="translate(-193.56501293182373, 107.59500122070312)"><path d="M27.13-48.56L34.75-48.56L34.75 0L27.56 0L27.13-4.19L27.13-48.56ZM3.13-18.13L3.13-18.13L3.13-18.13Q3.13-23 4.47-26.31L4.47-26.31L4.47-26.31Q5.81-29.63 7.94-31.69L7.94-31.69L7.94-31.69Q10.06-33.75 12.66-34.66L12.66-34.66L12.66-34.66Q15.25-35.56 17.75-35.56L17.75-35.56L17.75-35.56Q19.69-35.56 21.44-35.13L21.44-35.13L21.44-35.13Q23.19-34.69 24.56-33.88L24.56-33.88L24.56-27.25L24.56-27.25Q23.50-28.38 22.19-29.06L22.19-29.06L22.19-29.06Q20.88-29.75 19.25-29.75L19.25-29.75L19.25-29.75Q17.31-29.75 15.81-28.78L15.81-28.78L15.81-28.78Q14.31-27.81 13.28-26.13L13.28-26.13L13.28-26.13Q12.25-24.44 11.69-22.25L11.69-22.25L11.69-22.25Q11.13-20.06 11.13-17.56L11.13-17.56L11.13-17.56Q11.13-15.06 11.75-12.91L11.75-12.91L11.75-12.91Q12.38-10.75 13.44-9.13L13.44-9.13L13.44-9.13Q14.50-7.50 16.03-6.56L16.03-6.56L16.03-6.56Q17.56-5.63 19.38-5.63L19.38-5.63L19.38-5.63Q22.44-5.63 24.56-8.06L24.56-8.06L24.56-1.56L24.56-1.56Q23.06-0.75 21.09-0.22L21.09-0.22L21.09-0.22Q19.13 0.31 16.94 0.31L16.94 0.31L16.94 0.31Q14.44 0.31 12.03-0.59L12.03-0.59L12.03-0.59Q9.63-1.50 7.75-3.56L7.75-3.56L7.75-3.56Q5.38-6.25 4.25-10.22L4.25-10.22L4.25-10.22Q3.13-14.19 3.13-18.13ZM61.81-29.69L61.81-35.56L61.81-35.56Q65.19-35.25 67.91-33.75L67.91-33.75L67.91-33.75Q70.63-32.25 72.56-29.88L72.56-29.88L72.56-29.88Q74.50-27.50 75.53-24.44L75.53-24.44L75.53-24.44Q76.56-21.38 76.56-18.06L76.56-18.06L76.56-18.06Q76.56-16.56 76.38-15.06L76.38-15.06L54.94-15.06L54.94-20.56L69.38-20.56L69.38-20.56Q69.38-22.19 68.84-23.69L68.84-23.69L68.84-23.69Q68.31-25.19 67.28-26.47L67.28-26.47L67.28-26.47Q66.25-27.75 64.88-28.63L64.88-28.63L64.88-28.63Q63.50-29.50 61.81-29.69L61.81-29.69ZM61.56-5.88L61.56-5.88L61.56-5.88Q62.25-5.88 63.28-6.03L63.28-6.03L63.28-6.03Q64.31-6.19 65.47-6.59L65.47-6.59L65.47-6.59Q66.63-7 67.78-7.63L67.78-7.63L67.78-7.63Q68.94-8.25 69.81-9.13L69.81-9.13L72.56-4.94L72.56-4.94Q70.50-2.38 67.75-1.06L67.75-1.06L67.75-1.06Q65 0.25 60.75 0.25L60.75 0.25L60.75 0.25Q57.31 0.25 54.31-1.16L54.31-1.16L54.31-1.16Q51.31-2.56 49.19-5L49.19-5L49.19-5Q47.06-7.44 45.81-10.69L45.81-10.69L45.81-10.69Q44.56-13.94 44.56-17.69L44.56-17.69L44.56-17.69Q44.56-21.25 45.72-24.44L45.72-24.44L45.72-24.44Q46.88-27.63 48.88-30.03L48.88-30.03L48.88-30.03Q50.88-32.44 53.53-33.94L53.53-33.94L53.53-33.94Q56.19-35.44 59.25-35.63L59.25-35.63L59.25-29.63L59.25-29.63Q56.94-29.19 55.44-27.75L55.44-27.75L55.44-27.75Q53.94-26.31 53.09-24.47L53.09-24.47L53.09-24.47Q52.25-22.63 51.91-20.69L51.91-20.69L51.91-20.69Q51.56-18.75 51.56-17.38L51.56-17.38L51.56-17.38Q51.56-14.94 52.16-12.84L52.16-12.84L52.16-12.84Q52.75-10.75 54-9.22L54-9.22L54-9.22Q55.25-7.69 57.09-6.78L57.09-6.78L57.09-6.78Q58.94-5.88 61.56-5.88ZM102-43.31L102-43.31L102-43.31Q100.75-43.31 99.91-42.69L99.91-42.69L99.91-42.69Q99.06-42.06 98.50-40.94L98.50-40.94L98.50-40.94Q97.94-39.81 97.69-38.34L97.69-38.34L97.69-38.34Q97.44-36.88 97.38-35.25L97.38-35.25L102.81-35.25L102.81-30.13L97.25-30.13L97.25-27.13L97.25 0L89.63 0L89.63-27.13L89.63-30.13L85-30.13L85-35.25L89.75-35.25L89.75-35.25Q89.94-37.94 90.50-40.41L90.50-40.41L90.50-40.41Q91.06-42.88 92.28-44.72L92.28-44.72L92.28-44.72Q93.50-46.56 95.59-47.69L95.59-47.69L95.59-47.69Q97.69-48.81 100.88-48.81L100.88-48.81L100.88-48.81Q101.81-48.81 102.88-48.66L102.88-48.66L102.88-48.66Q103.94-48.50 104.97-48.28L104.97-48.28L104.97-48.28Q106-48.06 106.88-47.75L106.88-47.75L106.88-47.75Q107.75-47.44 108.25-47.06L108.25-47.06L105.81-42.56L105.81-42.56Q104.94-43.06 103.72-43.19L103.72-43.19L103.72-43.19Q102.50-43.31 102-43.31ZM129.19 0.31L129.19 0.31L129.19 0.31Q125.69 0.31 123.06-1.22L123.06-1.22L123.06-1.22Q120.44-2.75 118.69-5.31L118.69-5.31L118.69-5.31Q116.94-7.88 116.13-11.19L116.13-11.19L116.13-11.19Q115.31-14.50 115.31-18.13L115.31-18.13L115.31-18.13Q115.31-23 116.66-26.31L116.66-26.31L116.66-26.31Q118-29.63 120.09-31.72L120.09-31.72L120.09-31.72Q122.19-33.81 124.78-34.69L124.78-34.69L124.78-34.69Q127.38-35.56 129.88-35.56L129.88-35.56L129.88-35.56Q131.81-35.56 133.56-35.13L133.56-35.13L133.56-35.13Q135.31-34.69 136.75-33.88L136.75-33.88L136.75-27.25L136.75-27.25Q135.75-28.38 134.41-29.06L134.41-29.06L134.41-29.06Q133.06-29.75 131.50-29.75L131.50-29.75L131.50-29.75Q129.63-29.75 128.09-28.78L128.09-28.78L128.09-28.78Q126.56-27.81 125.50-26.19L125.50-26.19L125.50-26.19Q124.44-24.56 123.88-22.38L123.88-22.38L123.88-22.38Q123.31-20.19 123.31-17.75L123.31-17.75L123.31-17.75Q123.31-15.25 123.91-13.03L123.91-13.03L123.91-13.03Q124.50-10.81 125.59-9.19L125.59-9.19L125.59-9.19Q126.69-7.56 128.22-6.59L128.22-6.59L128.22-6.59Q129.75-5.63 131.63-5.63L131.63-5.63L131.63-5.63Q133.19-5.63 134.44-6.28L134.44-6.28L134.44-6.28Q135.69-6.94 136.75-8L136.75-8L136.75-1.50L136.75-1.50Q135.25-0.75 133.31-0.22L133.31-0.22L133.31-0.22Q131.38 0.31 129.19 0.31ZM140.13-35.25L146.88-35.25L146.81 0L146.81 0Q146.56 3.81 145.28 6.50L145.28 6.50L145.28 6.50Q144 9.19 142 10.94L142 10.94L142 10.94Q140 12.69 137.38 13.44L137.38 13.44L137.38 13.44Q134.75 14.19 131.75 14.19L131.75 14.19L131.75 14.19Q128.25 14.19 124.84 12.97L124.84 12.97L124.84 12.97Q121.44 11.75 119.19 8.88L119.19 8.88L123.56 4.56L123.56 4.56Q124.19 5.63 125.16 6.31L125.16 6.31L125.16 6.31Q126.13 7 127.16 7.38L127.16 7.38L127.16 7.38Q128.19 7.75 129.22 7.91L129.22 7.91L129.22 7.91Q130.25 8.06 131.06 8.06L131.06 8.06L131.06 8.06Q134.94 8.06 137.13 5.81L137.13 5.81L137.13 5.81Q139.31 3.56 139.31-1.88L139.31-1.88L139.31-31.69L140.13-35.25ZM159.06 0L159.06-48.56L166.63-48.56L166.63 0L159.06 0ZM185.31-31.38L185.31-31.38L185.31-31.38Q186.38-30.31 186.97-28.91L186.97-28.91L186.97-28.91Q187.56-27.50 187.84-25.97L187.84-25.97L187.84-25.97Q188.13-24.44 188.19-22.88L188.19-22.88L188.19-22.88Q188.25-21.31 188.25-19.81L188.25-19.81L188.25-1.25L188.25 0L180.63 0L180.63-19.19L180.63-19.19Q180.63-21.31 180.44-23.25L180.44-23.25L180.44-23.25Q180.25-25.19 179.56-26.69L179.56-26.69L179.56-26.69Q178.88-28.19 177.69-29.03L177.69-29.03L177.69-29.03Q176.50-29.88 174.38-29.88L174.38-29.88L174.38-29.88Q173.50-29.88 172.03-29.59L172.03-29.59L172.03-29.59Q170.56-29.31 169.19-28.69L169.19-28.69L169.19-33.50L169.19-33.50Q170.88-34.38 172.84-35L172.84-35L172.84-35Q174.81-35.63 176.69-35.63L176.69-35.63L176.69-35.63Q179.50-35.63 181.44-34.47L181.44-34.47L181.44-34.47Q183.38-33.31 185.31-31.38ZM204.63-48.56L204.63-10.75L204.63-10.75Q204.63-8.63 205.19-7.41L205.19-7.41L205.19-7.41Q205.75-6.19 206.75-5.59L206.75-5.59L206.75-5.59Q207.75-5 209.03-4.81L209.03-4.81L209.03-4.81Q210.31-4.63 211.81-4.63L211.81-4.63L211.81 0L211.81 0Q211 0.13 210.13 0.19L210.13 0.19L210.13 0.19Q209.44 0.25 208.50 0.28L208.50 0.28L208.50 0.28Q207.56 0.31 206.63 0.31L206.63 0.31L206.63 0.31Q205.69 0.31 204.75 0.25L204.75 0.25L204.75 0.25Q203.81 0.19 203.06 0.06L203.06 0.06L203.06 0.06Q200.94-0.38 199.75-1.81L199.75-1.81L199.75-1.81Q198.56-3.25 197.94-5.03L197.94-5.03L197.94-5.03Q197.31-6.81 197.16-8.50L197.16-8.50L197.16-8.50Q197-10.19 197-11.13L197-11.13L197-11.88L197-48.56L204.63-48.56ZM229.44 0L222.44 0L238.44-39.94L218.38-39.94L218.38-46.06L247.31-46.06L229.44 0ZM269.06-28.63L269.06-28.63L269.06-28.63Q272.31-28.63 274.91-27.47L274.91-27.47L274.91-27.47Q277.50-26.31 279.31-24.38L279.31-24.38L279.31-24.38Q281.13-22.44 282.06-20L282.06-20L282.06-20Q283-17.56 283-14.94L283-14.94L283-14.94Q283-9.81 281.31-6.78L281.31-6.78L281.31-6.78Q279.63-3.75 277.16-2.16L277.16-2.16L277.16-2.16Q274.69-0.56 272-0.13L272-0.13L272-0.13Q269.31 0.31 267.38 0.31L267.38 0.31L267.38 0.31Q265.25 0.31 263.31-0.03L263.31-0.03L263.31-0.03Q261.38-0.38 259.78-0.91L259.78-0.91L259.78-0.91Q258.19-1.44 257-1.97L257-1.97L257-1.97Q255.81-2.50 255.19-2.81L255.19-2.81L255.19-9.06L255.19-9.06Q256.06-8.50 257.41-7.84L257.41-7.84L257.41-7.84Q258.75-7.19 260.25-6.59L260.25-6.59L260.25-6.59Q261.75-6 263.41-5.63L263.41-5.63L263.41-5.63Q265.06-5.25 266.50-5.25L266.50-5.25L266.50-5.25Q271.13-5.25 273.75-7.63L273.75-7.63L273.75-7.63Q276.38-10 276.38-14.94L276.38-14.94L276.38-14.94Q276.38-18.50 274.09-20.56L274.09-20.56L274.09-20.56Q271.81-22.63 268.13-22.63L268.13-22.63L268.13-22.63Q266.94-22.63 265.75-22.47L265.75-22.47L265.75-22.47Q264.56-22.31 263.50-22L263.50-22L264.25-28.19L264.25-28.19Q265.50-28.44 266.91-28.53L266.91-28.53L266.91-28.53Q268.31-28.63 269.06-28.63ZM261.06-22.88L260.75-20.38L254.88-20.38L254.88-20.38Q254.88-20.88 255-22.25L255-22.25L255-22.25Q255.13-23.63 255.31-25.53L255.31-25.53L255.31-25.53Q255.50-27.44 255.75-29.69L255.75-29.69L255.75-29.69Q256-31.94 256.25-34.25L256.25-34.25L256.25-34.25Q256.88-39.63 257.69-46.06L257.69-46.06L280.50-46.06L280.50-39.94L263.31-39.94L263.31-39.94Q262.69-35.31 262.31-32.75L262.31-32.75L262.31-32.75Q261.94-30.19 261.78-28.94L261.78-28.94L261.78-28.94Q261.63-27.69 261.59-27.41L261.59-27.41L261.59-27.41Q261.56-27.13 261.56-27.06L261.56-27.06L261.06-22.88ZM309.75-40.56L309.75-40.56L309.75-40.56Q307.19-40.56 305.31-39.44L305.31-39.44L305.31-39.44Q303.44-38.31 302.22-36.44L302.22-36.44L302.22-36.44Q301-34.56 300.38-32.13L300.38-32.13L300.38-32.13Q299.75-29.69 299.75-27.06L299.75-27.06L299.75-27.06Q299.81-27.13 300-27.13L300-27.13L300-27.13Q300.19-27.13 300.25-27.19L300.25-27.19L300.25-27.19Q300.94-28.56 302.88-29.66L302.88-29.66L302.88-29.66Q304.81-30.75 307.44-31.06L307.44-31.06L307.44-25.56L307.44-25.56Q305.69-25.38 304.25-24.59L304.25-24.59L304.25-24.59Q302.81-23.81 301.75-22.53L301.75-22.53L301.75-22.53Q300.69-21.25 300.06-19.53L300.06-19.53L300.06-19.53Q299.44-17.81 299.44-15.81L299.44-15.81L299.44-15.81Q299.44-13.75 300.06-12L300.06-12L300.06-12Q300.69-10.25 301.75-8.94L301.75-8.94L301.75-8.94Q302.81-7.63 304.28-6.78L304.28-6.78L304.28-6.78Q305.75-5.94 307.44-5.75L307.44-5.75L307.44 0.38L307.44 0.38Q303.63 0.19 300.78-1.25L300.78-1.25L300.78-1.25Q297.94-2.69 296.03-5.16L296.03-5.16L296.03-5.16Q294.13-7.63 293.25-10.94L293.25-10.94L293.25-10.94Q292.38-14.25 292.38-18.19L292.38-18.19L292.38-18.19Q292.38-26.44 293.88-31.91L293.88-31.91L293.88-31.91Q295.38-37.38 297.78-40.56L297.78-40.56L297.78-40.56Q300.19-43.75 303.16-45.06L303.16-45.06L303.16-45.06Q306.13-46.38 309.06-46.38L309.06-46.38L309.06-46.38Q312.56-46.38 315.66-45.94L315.66-45.94L315.66-45.94Q318.75-45.50 320.94-44.06L320.94-44.06L318.56-38.88L318.56-38.88Q316.81-40 314.69-40.28L314.69-40.28L314.69-40.28Q312.56-40.56 309.75-40.56ZM310-25.50L310-31.19L310-31.19Q313.13-31.06 315.69-29.72L315.69-29.72L315.69-29.72Q318.25-28.38 320.06-26.28L320.06-26.28L320.06-26.28Q321.88-24.19 322.81-21.59L322.81-21.59L322.81-21.59Q323.75-19 323.75-16.44L323.75-16.44L323.75-16.44Q323.75-12 322.47-8.91L322.47-8.91L322.47-8.91Q321.19-5.81 319.13-3.88L319.13-3.88L319.13-3.88Q317.06-1.94 314.63-0.94L314.63-0.94L314.63-0.94Q312.19 0.06 310 0.31L310 0.31L310-5.81L310-5.81Q313.13-6.44 315.16-9.16L315.16-9.16L315.16-9.16Q317.19-11.88 317.19-15.81L317.19-15.81L317.19-15.81Q317.19-19.63 315.19-22.25L315.19-22.25L315.19-22.25Q313.19-24.88 310-25.50L310-25.50ZM351.13-24.25L351.13-24.25L351.13-24.25Q352.56-24.06 354.09-23.31L354.09-23.31L354.09-23.31Q355.63-22.56 356.94-21.19L356.94-21.19L356.94-21.19Q358.25-19.81 359.13-17.84L359.13-17.84L359.13-17.84Q360-15.88 360-13.31L360-13.31L360-13.31Q360-10.19 359.09-7.91L359.09-7.91L359.09-7.91Q358.19-5.63 356.81-4.13L356.81-4.13L356.81-4.13Q355.44-2.63 353.72-1.72L353.72-1.72L353.72-1.72Q352-0.81 350.38-0.38L350.38-0.38L350.38-0.38Q348.75 0.06 347.41 0.19L347.41 0.19L347.41 0.19Q346.06 0.31 345.31 0.31L345.31 0.31L345.31 0.31Q340.06 0.31 337.03-0.41L337.03-0.41L337.03-0.41Q334-1.13 332.81-1.88L332.81-1.88L334.50-7.25L334.50-7.25Q335.06-6.94 335.56-6.56L335.56-6.56L335.56-6.56Q336.06-6.19 337-5.84L337-5.84L337-5.84Q337.94-5.50 339.63-5.28L339.63-5.28L339.63-5.28Q341.31-5.06 344.25-5.06L344.25-5.06L344.25-5.06Q348.56-5.06 350.69-7.41L350.69-7.41L350.69-7.41Q352.81-9.75 352.81-13.31L352.81-13.31L352.81-13.31Q352.81-16.69 350.88-19L350.88-19L350.88-19Q348.94-21.31 345.19-21.31L345.19-21.31L338.81-21.31L338.88-21.31L338.81-26.38L343.06-26.38L343.06-26.38Q344.44-26.38 345.84-26.44L345.84-26.44L345.84-26.44Q347.25-26.50 348.50-27.13L348.50-27.13L348.50-27.13Q349.75-27.75 350.56-29.25L350.56-29.25L350.56-29.25Q351.38-30.75 351.38-33.56L351.38-33.56L351.38-33.56Q351.38-34.69 351.19-35.94L351.19-35.94L351.19-35.94Q351-37.19 350.16-38.25L350.16-38.25L350.16-38.25Q349.31-39.31 347.69-39.97L347.69-39.97L347.69-39.97Q346.06-40.63 343.19-40.63L343.19-40.63L343.19-40.63Q340.31-40.63 338.59-40.09L338.59-40.09L338.59-40.09Q336.88-39.56 336-39.25L336-39.25L333.81-44.88L333.81-44.88Q335.31-45.31 337.53-45.81L337.53-45.81L337.53-45.81Q339.75-46.31 343.94-46.31L343.94-46.31L343.94-46.31Q346.88-46.31 349.50-45.59L349.50-45.59L349.50-45.59Q352.13-44.88 354.09-43.31L354.09-43.31L354.09-43.31Q356.06-41.75 357.22-39.31L357.22-39.31L357.22-39.31Q358.38-36.88 358.38-33.56L358.38-33.56L358.38-33.56Q358.38-31.63 357.69-30.03L357.69-30.03L357.69-30.03Q357-28.44 355.94-27.25L355.94-27.25L355.94-27.25Q354.88-26.06 353.56-25.28L353.56-25.28L353.56-25.28Q352.25-24.50 351.13-24.25ZM386.75-40.63L386.75-40.63L386.75-40.63Q384.44-40.63 382.56-39.75L382.56-39.75L382.56-39.75Q380.69-38.88 379.38-36.78L379.38-36.78L379.38-36.78Q378.06-34.69 377.34-31.38L377.34-31.38L377.34-31.38Q376.63-28.06 376.56-23.25L376.56-23.25L376.56-23.25Q376.63-19.44 377.06-16.50L377.06-16.50L377.06-16.50Q377.50-13.56 378.38-11.50L378.38-11.50L374.94-4.19L374.94-4.19Q372.06-7.13 370.50-11.84L370.50-11.84L370.50-11.84Q368.94-16.56 368.94-23.25L368.94-23.25L368.94-23.25Q368.94-29.06 370.16-33.47L370.16-33.47L370.16-33.47Q371.38-37.88 373.66-40.81L373.66-40.81L373.66-40.81Q375.94-43.75 379.22-45.28L379.22-45.28L379.22-45.28Q382.50-46.81 386.56-46.81L386.56-46.81L386.56-46.81Q390.88-46.81 394.13-45.19L394.13-45.19L391.38-39.31L391.38-39.31Q389.31-40.63 386.75-40.63ZM394.56-35.25L398-42.50L398-42.50Q401.06-39.63 402.66-34.81L402.66-34.81L402.66-34.81Q404.25-30 404.25-23.25L404.25-23.25L404.25-23.25Q404.25-17.44 403.03-13L403.03-13L403.03-13Q401.81-8.56 399.50-5.63L399.50-5.63L399.50-5.63Q397.19-2.69 393.94-1.19L393.94-1.19L393.94-1.19Q390.69 0.31 386.56 0.31L386.56 0.31L386.56 0.31Q382.13 0.31 378.69-1.44L378.69-1.44L381.50-7.38L381.50-7.38Q383.44-5.81 386.38-5.81L386.38-5.81L386.38-5.81Q388.69-5.81 390.59-6.72L390.59-6.72L390.59-6.72Q392.50-7.63 393.81-9.69L393.81-9.69L393.81-9.69Q395.13-11.75 395.84-15.09L395.84-15.09L395.84-15.09Q396.56-18.44 396.63-23.25L396.63-23.25L396.63-23.25Q396.56-27.19 396.06-30.13L396.06-30.13L396.06-30.13Q395.56-33.06 394.63-35.13L394.63-35.13L394.63-35.13Q394.56-35.19 394.56-35.25L394.56-35.25ZM431.25-40.63L431.25-40.63L431.25-40.63Q428.94-40.63 427.06-39.75L427.06-39.75L427.06-39.75Q425.19-38.88 423.88-36.78L423.88-36.78L423.88-36.78Q422.56-34.69 421.84-31.38L421.84-31.38L421.84-31.38Q421.13-28.06 421.06-23.25L421.06-23.25L421.06-23.25Q421.13-19.44 421.56-16.50L421.56-16.50L421.56-16.50Q422-13.56 422.88-11.50L422.88-11.50L419.44-4.19L419.44-4.19Q416.56-7.13 415-11.84L415-11.84L415-11.84Q413.44-16.56 413.44-23.25L413.44-23.25L413.44-23.25Q413.44-29.06 414.66-33.47L414.66-33.47L414.66-33.47Q415.88-37.88 418.16-40.81L418.16-40.81L418.16-40.81Q420.44-43.75 423.72-45.28L423.72-45.28L423.72-45.28Q427-46.81 431.06-46.81L431.06-46.81L431.06-46.81Q435.38-46.81 438.63-45.19L438.63-45.19L435.88-39.31L435.88-39.31Q433.81-40.63 431.25-40.63ZM439.06-35.25L442.50-42.50L442.50-42.50Q445.56-39.63 447.16-34.81L447.16-34.81L447.16-34.81Q448.75-30 448.75-23.25L448.75-23.25L448.75-23.25Q448.75-17.44 447.53-13L447.53-13L447.53-13Q446.31-8.56 444-5.63L444-5.63L444-5.63Q441.69-2.69 438.44-1.19L438.44-1.19L438.44-1.19Q435.19 0.31 431.06 0.31L431.06 0.31L431.06 0.31Q426.63 0.31 423.19-1.44L423.19-1.44L426-7.38L426-7.38Q427.94-5.81 430.88-5.81L430.88-5.81L430.88-5.81Q433.19-5.81 435.09-6.72L435.09-6.72L435.09-6.72Q437-7.63 438.31-9.69L438.31-9.69L438.31-9.69Q439.63-11.75 440.34-15.09L440.34-15.09L440.34-15.09Q441.06-18.44 441.13-23.25L441.13-23.25L441.13-23.25Q441.06-27.19 440.56-30.13L440.56-30.13L440.56-30.13Q440.06-33.06 439.13-35.13L439.13-35.13L439.13-35.13Q439.06-35.19 439.06-35.25L439.06-35.25ZM475.75-40.63L475.75-40.63L475.75-40.63Q473.44-40.63 471.56-39.75L471.56-39.75L471.56-39.75Q469.69-38.88 468.38-36.78L468.38-36.78L468.38-36.78Q467.06-34.69 466.34-31.38L466.34-31.38L466.34-31.38Q465.63-28.06 465.56-23.25L465.56-23.25L465.56-23.25Q465.63-19.44 466.06-16.50L466.06-16.50L466.06-16.50Q466.50-13.56 467.38-11.50L467.38-11.50L463.94-4.19L463.94-4.19Q461.06-7.13 459.50-11.84L459.50-11.84L459.50-11.84Q457.94-16.56 457.94-23.25L457.94-23.25L457.94-23.25Q457.94-29.06 459.16-33.47L459.16-33.47L459.16-33.47Q460.38-37.88 462.66-40.81L462.66-40.81L462.66-40.81Q464.94-43.75 468.22-45.28L468.22-45.28L468.22-45.28Q471.50-46.81 475.56-46.81L475.56-46.81L475.56-46.81Q479.88-46.81 483.13-45.19L483.13-45.19L480.38-39.31L480.38-39.31Q478.31-40.63 475.75-40.63ZM483.56-35.25L487-42.50L487-42.50Q490.06-39.63 491.66-34.81L491.66-34.81L491.66-34.81Q493.25-30 493.25-23.25L493.25-23.25L493.25-23.25Q493.25-17.44 492.03-13L492.03-13L492.03-13Q490.81-8.56 488.50-5.63L488.50-5.63L488.50-5.63Q486.19-2.69 482.94-1.19L482.94-1.19L482.94-1.19Q479.69 0.31 475.56 0.31L475.56 0.31L475.56 0.31Q471.13 0.31 467.69-1.44L467.69-1.44L470.50-7.38L470.50-7.38Q472.44-5.81 475.38-5.81L475.38-5.81L475.38-5.81Q477.69-5.81 479.59-6.72L479.59-6.72L479.59-6.72Q481.50-7.63 482.81-9.69L482.81-9.69L482.81-9.69Q484.13-11.75 484.84-15.09L484.84-15.09L484.84-15.09Q485.56-18.44 485.63-23.25L485.63-23.25L485.63-23.25Q485.56-27.19 485.06-30.13L485.06-30.13L485.06-30.13Q484.56-33.06 483.63-35.13L483.63-35.13L483.63-35.13Q483.56-35.19 483.56-35.25L483.56-35.25ZM502.44-18.81L502.44-18.81L502.44-18.81Q502.44-25.75 504.28-31.22L504.28-31.22L504.28-31.22Q506.13-36.69 509.53-40.59L509.53-40.59L509.53-40.59Q512.94-44.50 517.66-46.78L517.66-46.78L517.66-46.78Q522.38-49.06 528.13-49.75L528.13-49.75L528.13-43.56L528.13-43.56Q523.06-42.94 519.38-40.78L519.38-40.78L519.38-40.78Q515.69-38.63 513.28-35.34L513.28-35.34L513.28-35.34Q510.88-32.06 509.69-27.84L509.69-27.84L509.69-27.84Q508.50-23.63 508.50-18.81L508.50-18.81L508.50-18.81Q508.50-14.44 509.72-10.72L509.72-10.72L509.72-10.72Q510.94-7 512.59-4.09L512.59-4.09L512.59-4.09Q514.25-1.19 516 0.69L516 0.69L516 0.69Q517.75 2.56 518.88 3.31L518.88 3.31L515.38 7.50L515.38 7.50Q513.44 5.88 511.16 3.25L511.16 3.25L511.16 3.25Q508.88 0.63 506.94-2.78L506.94-2.78L506.94-2.78Q505-6.19 503.72-10.25L503.72-10.25L503.72-10.25Q502.44-14.31 502.44-18.81ZM517.25-19.19L517.25-19.19L517.25-19.19Q517.25-22.81 518.25-25.38L518.25-25.38L518.25-25.38Q519.25-27.94 520.78-29.59L520.78-29.59L520.78-29.59Q522.31-31.25 524.28-31.97L524.28-31.97L524.28-31.97Q526.25-32.69 528.13-32.81L528.13-32.81L528.13-28.06L528.13-28.06Q525.88-27.31 524.69-24.69L524.69-24.69L524.69-24.69Q523.50-22.06 523.50-18.75L523.50-18.75L523.50-18.75Q523.50-15.50 524.78-13.03L524.78-13.03L524.78-13.03Q526.06-10.56 528.13-9.81L528.13-9.81L528.13-4.88L528-4.88L528-4.88Q525.31-4.88 523.31-6.06L523.31-6.06L523.31-6.06Q521.31-7.25 519.97-9.22L519.97-9.22L519.97-9.22Q518.63-11.19 517.94-13.78L517.94-13.78L517.94-13.78Q517.25-16.38 517.25-19.19ZM532.31-49.94L532.31-49.94L532.31-49.94Q538.94-49.94 544-47.53L544-47.53L544-47.53Q549.06-45.13 552.47-41.13L552.47-41.13L552.47-41.13Q555.88-37.13 557.59-31.94L557.59-31.94L557.59-31.94Q559.31-26.75 559.31-21.13L559.31-21.13L559.31-21.13Q559.31-17.19 558.34-13.97L558.34-13.97L558.34-13.97Q557.38-10.75 555.59-8.50L555.59-8.50L555.59-8.50Q553.81-6.25 551.25-5L551.25-5L551.25-5Q548.69-3.75 545.50-3.75L545.50-3.75L545.50-3.75Q544.44-3.75 543.06-4.09L543.06-4.09L543.06-4.09Q541.69-4.44 540.44-5.03L540.44-5.03L540.44-5.03Q539.19-5.63 538.09-6.47L538.09-6.47L538.09-6.47Q537-7.31 536.56-8.38L536.56-8.38L535.94-8.38L535.94-8.38Q535.75-7.38 534.28-6.47L534.28-6.47L534.28-6.47Q532.81-5.56 530.69-5.13L530.69-5.13L530.69-9.56L530.69-9.56Q533.38-10 534.84-12.63L534.84-12.63L534.84-12.63Q536.31-15.25 536.31-18.81L536.31-18.81L536.31-18.81Q536.31-22.44 534.78-25.06L534.78-25.06L534.78-25.06Q533.25-27.69 530.69-28.25L530.69-28.25L530.69-32.63L530.69-32.63Q532.44-32.31 533.81-31.63L533.81-31.63L533.81-31.63Q535.19-30.94 535.94-29.81L535.94-29.81L536.63-32.56L541.94-32.56L542-14.38L542-14.38Q542-12.81 542.44-11.84L542.44-11.84L542.44-11.84Q542.88-10.88 543.50-10.28L543.50-10.28L543.50-10.28Q544.13-9.69 544.91-9.44L544.91-9.44L544.91-9.44Q545.69-9.19 546.31-9.19L546.31-9.19L546.31-9.19Q549.81-9.19 551.53-12.06L551.53-12.06L551.53-12.06Q553.25-14.94 553.25-21.13L553.25-21.13L553.25-21.13Q553.25-26.19 551.72-30.34L551.72-30.34L551.72-30.34Q550.19-34.50 547.44-37.50L547.44-37.50L547.44-37.50Q544.69-40.50 540.84-42.16L540.84-42.16L540.84-42.16Q537-43.81 532.31-43.81L532.31-43.81L532.31-43.81Q531.94-43.81 531.50-43.81L531.50-43.81L531.50-43.81Q531.06-43.81 530.69-43.75L530.69-43.75L530.69-49.88L530.69-49.88Q531.06-49.94 531.50-49.94L531.50-49.94L531.50-49.94Q531.94-49.94 532.31-49.94ZM581 0.31L581 0.31L581 0.31Q577.50 0.31 574.88-1.22L574.88-1.22L574.88-1.22Q572.25-2.75 570.50-5.31L570.50-5.31L570.50-5.31Q568.75-7.88 567.94-11.19L567.94-11.19L567.94-11.19Q567.13-14.50 567.13-18.13L567.13-18.13L567.13-18.13Q567.13-23 568.47-26.31L568.47-26.31L568.47-26.31Q569.81-29.63 571.91-31.72L571.91-31.72L571.91-31.72Q574-33.81 576.59-34.69L576.59-34.69L576.59-34.69Q579.19-35.56 581.69-35.56L581.69-35.56L581.69-35.56Q583.63-35.56 585.38-35.13L585.38-35.13L585.38-35.13Q587.13-34.69 588.56-33.88L588.56-33.88L588.56-27.25L588.56-27.25Q587.56-28.38 586.22-29.06L586.22-29.06L586.22-29.06Q584.88-29.75 583.31-29.75L583.31-29.75L583.31-29.75Q581.44-29.75 579.91-28.78L579.91-28.78L579.91-28.78Q578.38-27.81 577.31-26.19L577.31-26.19L577.31-26.19Q576.25-24.56 575.69-22.38L575.69-22.38L575.69-22.38Q575.13-20.19 575.13-17.75L575.13-17.75L575.13-17.75Q575.13-15.25 575.72-13.03L575.72-13.03L575.72-13.03Q576.31-10.81 577.41-9.19L577.41-9.19L577.41-9.19Q578.50-7.56 580.03-6.59L580.03-6.59L580.03-6.59Q581.56-5.63 583.44-5.63L583.44-5.63L583.44-5.63Q585-5.63 586.25-6.28L586.25-6.28L586.25-6.28Q587.50-6.94 588.56-8L588.56-8L588.56-1.50L588.56-1.50Q587.06-0.75 585.13-0.22L585.13-0.22L585.13-0.22Q583.19 0.31 581 0.31ZM591.94-35.25L598.69-35.25L598.63 0L598.63 0Q598.38 3.81 597.09 6.50L597.09 6.50L597.09 6.50Q595.81 9.19 593.81 10.94L593.81 10.94L593.81 10.94Q591.81 12.69 589.19 13.44L589.19 13.44L589.19 13.44Q586.56 14.19 583.56 14.19L583.56 14.19L583.56 14.19Q580.06 14.19 576.66 12.97L576.66 12.97L576.66 12.97Q573.25 11.75 571 8.88L571 8.88L575.38 4.56L575.38 4.56Q576 5.63 576.97 6.31L576.97 6.31L576.97 6.31Q577.94 7 578.97 7.38L578.97 7.38L578.97 7.38Q580 7.75 581.03 7.91L581.03 7.91L581.03 7.91Q582.06 8.06 582.88 8.06L582.88 8.06L582.88 8.06Q586.75 8.06 588.94 5.81L588.94 5.81L588.94 5.81Q591.13 3.56 591.13-1.88L591.13-1.88L591.13-31.69L591.94-35.25ZM610.88-35.25L617.69-35.25L618.50-31.63L618.50 0L610.88 0L610.88-35.25ZM647.19-35.63L647.19-35.63L647.19-35.63Q649.31-35.63 651.19-34.78L651.19-34.78L651.19-34.78Q653.06-33.94 654.47-32.38L654.47-32.38L654.47-32.38Q655.88-30.81 656.66-28.66L656.66-28.66L656.66-28.66Q657.44-26.50 657.44-24L657.44-24L657.44 0L649.94 0L649.94-19.19L649.94-19.19Q649.94-21.31 649.91-23.22L649.91-23.22L649.91-23.22Q649.88-25.13 649.50-26.63L649.50-26.63L649.50-26.63Q649.13-28.13 648.28-28.97L648.28-28.97L648.28-28.97Q647.44-29.81 645.69-29.81L645.69-29.81L645.69-29.81Q645.25-29.81 643.81-29.63L643.81-29.63L643.81-29.63Q642.38-29.44 640.50-28.56L640.50-28.56L640.50-33.50L640.50-33.50Q642.19-34.50 643.94-35.06L643.94-35.06L643.94-35.06Q645.69-35.63 647.19-35.63ZM636.38-30.81L636.38-30.81L636.38-30.81Q637.13-29.69 637.47-28.41L637.47-28.41L637.47-28.41Q637.81-27.13 637.91-25.75L637.91-25.75L637.91-25.75Q638-24.38 637.97-22.91L637.97-22.91L637.97-22.91Q637.94-21.44 637.94-19.81L637.94-19.81L637.94 0L630.38 0L630.38-19.19L630.38-19.19Q630.38-21.31 630.38-23.22L630.38-23.22L630.38-23.22Q630.38-25.13 630-26.63L630-26.63L630-26.63Q629.63-28.13 628.75-28.97L628.75-28.97L628.75-28.97Q627.88-29.81 626.19-29.81L626.19-29.81L626.19-29.81Q625.44-29.81 623.97-29.53L623.97-29.53L623.97-29.53Q622.50-29.25 621.06-28.56L621.06-28.56L621.06-33.50L621.06-33.50Q622.56-34.38 624.28-34.94L624.28-34.94L624.28-34.94Q626-35.50 627.69-35.50L627.69-35.50L627.69-35.50Q630.56-35.50 632.53-34.31L632.53-34.31L632.53-34.31Q634.50-33.13 636.38-30.81ZM674.31-10.63L674.31-10.63L674.31-10.63Q674.31-7.81 675.47-6.44L675.47-6.44L675.47-6.44Q676.63-5.06 678.81-4.81L678.81-4.81L678.81 0.25L678.81 0.25Q678.56 0.31 678 0.31L678 0.31L678 0.31Q675.88 0.31 673.91-0.25L673.91-0.25L673.91-0.25Q671.94-0.81 670.44-2.06L670.44-2.06L670.44-2.06Q668.94-3.31 668.09-5.38L668.09-5.38L668.09-5.38Q667.25-7.44 667.25-10.44L667.25-10.44L667.25-10.44Q667.25-13.31 668.47-15.41L668.47-15.41L668.47-15.41Q669.69-17.50 671.59-18.84L671.59-18.84L671.59-18.84Q673.50-20.19 675.94-20.84L675.94-20.84L675.94-20.84Q678.38-21.50 680.88-21.50L680.88-21.50L683.63-21.50L683.63-17.06L682.25-17.06L682.25-17.06Q681-17.06 679.63-16.81L679.63-16.81L679.63-16.81Q678.25-16.56 677.06-15.88L677.06-15.88L677.06-15.88Q675.88-15.19 675.09-13.91L675.09-13.91L675.09-13.91Q674.31-12.63 674.31-10.63ZM693.75-10.94L693.75-10.44L693.75-10.44Q693.75-9.94 693.81-8.97L693.81-8.97L693.81-8.97Q693.88-8 694.06-7L694.06-7L694.06-7Q694.25-6 694.66-5.19L694.66-5.19L694.66-5.19Q695.06-4.38 695.75-4.13L695.75-4.13L693.75 0.06L693.75 0.06Q692.94 0.06 692.03-0.31L692.03-0.31L692.03-0.31Q691.13-0.69 690.28-1.38L690.28-1.38L690.28-1.38Q689.44-2.06 688.84-2.91L688.84-2.91L688.84-2.91Q688.25-3.75 687.94-4.75L687.94-4.75L687.94-4.75Q687.31-3.19 685.47-1.97L685.47-1.97L685.47-1.97Q683.63-0.75 681.38-0.19L681.38-0.19L681.38-4.94L681.38-4.94Q682.88-5.25 684.09-6.16L684.09-6.16L684.09-6.16Q685.31-7.06 686.19-8.31L686.19-8.31L686.19-21.50L686.19-21.50Q686.19-24.56 685.88-26.38L685.88-26.38L685.88-26.38Q685.56-28.19 684.81-29.03L684.81-29.03L684.81-29.03Q684.06-29.88 682.97-30.09L682.97-30.09L682.97-30.09Q681.88-30.31 680.38-30.31L680.38-30.31L680.38-30.31Q679-30.31 677.78-29.97L677.78-29.97L677.78-29.97Q676.56-29.63 675.53-29.16L675.53-29.16L675.53-29.16Q674.50-28.69 673.72-28.13L673.72-28.13L673.72-28.13Q672.94-27.56 672.56-27.25L672.56-27.25L669.75-31.56L669.75-31.56Q670.38-32.25 671.63-32.97L671.63-32.97L671.63-32.97Q672.88-33.69 674.50-34.25L674.50-34.25L674.50-34.25Q676.13-34.81 678.03-35.16L678.03-35.16L678.03-35.16Q679.94-35.50 682-35.50L682-35.50L682-35.50Q683.88-35.50 685.66-35.13L685.66-35.13L685.66-35.13Q687.44-34.75 688.91-33.88L688.91-33.88L688.91-33.88Q690.38-33 691.47-31.53L691.47-31.53L691.47-31.53Q692.56-30.06 693-27.88L693-27.88L693-27.88Q693.44-25.69 693.59-23.47L693.59-23.47L693.59-23.47Q693.75-21.25 693.75-19.06L693.75-19.06L693.75-10.94ZM713.25-35.25L713.25 0L705.63 0L705.63-35.25L713.25-35.25ZM713.94-46.50L713.94-46.50L713.94-46.50Q713.94-44.63 712.63-43.34L712.63-43.34L712.63-43.34Q711.31-42.06 709.44-42.06L709.44-42.06L709.44-42.06Q707.56-42.06 706.28-43.38L706.28-43.38L706.28-43.38Q705-44.69 705-46.50L705-46.50L705-46.50Q705-48.38 706.31-49.69L706.31-49.69L706.31-49.69Q707.63-51 709.44-51L709.44-51L709.44-51Q711.31-51 712.63-49.69L712.63-49.69L712.63-49.69Q713.94-48.38 713.94-46.50ZM731.38-48.56L731.38-10.75L731.38-10.75Q731.38-8.63 731.94-7.41L731.94-7.41L731.94-7.41Q732.50-6.19 733.50-5.59L733.50-5.59L733.50-5.59Q734.50-5 735.78-4.81L735.78-4.81L735.78-4.81Q737.06-4.63 738.56-4.63L738.56-4.63L738.56 0L738.56 0Q737.75 0.13 736.88 0.19L736.88 0.19L736.88 0.19Q736.19 0.25 735.25 0.28L735.25 0.28L735.25 0.28Q734.31 0.31 733.38 0.31L733.38 0.31L733.38 0.31Q732.44 0.31 731.50 0.25L731.50 0.25L731.50 0.25Q730.56 0.19 729.81 0.06L729.81 0.06L729.81 0.06Q727.69-0.38 726.50-1.81L726.50-1.81L726.50-1.81Q725.31-3.25 724.69-5.03L724.69-5.03L724.69-5.03Q724.06-6.81 723.91-8.50L723.91-8.50L723.91-8.50Q723.75-10.19 723.75-11.13L723.75-11.13L723.75-11.88L723.75-48.56L731.38-48.56ZM752.19-4.25L752.19-4.25L752.19-4.25Q752.19-2.38 750.88-1.06L750.88-1.06L750.88-1.06Q749.56 0.25 747.69 0.25L747.69 0.25L747.69 0.25Q745.81 0.25 744.53-1.06L744.53-1.06L744.53-1.06Q743.25-2.38 743.25-4.25L743.25-4.25L743.25-4.25Q743.25-6.13 744.56-7.41L744.56-7.41L744.56-7.41Q745.88-8.69 747.69-8.69L747.69-8.69L747.69-8.69Q749.56-8.69 750.88-7.41L750.88-7.41L750.88-7.41Q752.19-6.13 752.19-4.25ZM786.31-30.19L782.94-26.13L782.94-26.13Q782-27.25 780.34-28.22L780.34-28.22L780.34-28.22Q778.69-29.19 775.94-29.38L775.94-29.38L775.94-35.38L775.94-35.38Q779.38-35.19 781.84-33.91L781.84-33.91L781.84-33.91Q784.31-32.63 786.31-30.19L786.31-30.19ZM775.94 0.25L775.94-5.94L775.94-5.94Q778.19-6.19 779.78-7.03L779.78-7.03L779.78-7.03Q781.38-7.88 782.81-9L782.81-9L785.63-4.94L785.63-4.94Q783.69-2.50 781.44-1.22L781.44-1.22L781.44-1.22Q779.19 0.06 775.94 0.25L775.94 0.25ZM758.50-17.63L758.50-17.63L758.50-17.63Q758.50-21.19 759.53-24.31L759.53-24.31L759.53-24.31Q760.56-27.44 762.56-29.81L762.56-29.81L762.56-29.81Q764.56-32.19 767.28-33.66L767.28-33.66L767.28-33.66Q770-35.13 773.38-35.38L773.38-35.38L773.38-29.31L773.38-29.31Q770.25-28.63 768.38-25.47L768.38-25.47L768.38-25.47Q766.50-22.31 766.50-17.81L766.50-17.81L766.50-17.81Q766.50-15.50 766.97-13.47L766.97-13.47L766.97-13.47Q767.44-11.44 768.31-9.88L768.31-9.88L768.31-9.88Q769.19-8.31 770.47-7.25L770.47-7.25L770.47-7.25Q771.75-6.19 773.38-5.94L773.38-5.94L773.38 0.25L773.38 0.25Q769.94 0.06 767.19-1.41L767.19-1.41L767.19-1.41Q764.44-2.88 762.50-5.28L762.50-5.28L762.50-5.28Q760.56-7.69 759.53-10.88L759.53-10.88L759.53-10.88Q758.50-14.06 758.50-17.63ZM812.63-29.56L812.63-35.44L812.63-35.44Q816.06-35.25 818.88-33.78L818.88-33.78L818.88-33.78Q821.69-32.31 823.59-29.91L823.59-29.91L823.59-29.91Q825.50-27.50 826.56-24.31L826.56-24.31L826.56-24.31Q827.63-21.13 827.63-17.50L827.63-17.50L827.63-17.50Q827.63-13.88 826.53-10.72L826.53-10.72L826.53-10.72Q825.44-7.56 823.50-5.22L823.50-5.22L823.50-5.22Q821.56-2.88 818.75-1.44L818.75-1.44L818.75-1.44Q815.94 0 812.63 0.25L812.63 0.25L812.63-5.75L812.63-5.75Q815.75-6.44 817.72-9.69L817.72-9.69L817.72-9.69Q819.69-12.94 819.69-17.50L819.69-17.50L819.69-17.50Q819.69-19.81 819.22-21.84L819.22-21.84L819.22-21.84Q818.75-23.88 817.81-25.50L817.81-25.50L817.81-25.50Q816.88-27.13 815.56-28.19L815.56-28.19L815.56-28.19Q814.25-29.25 812.63-29.56L812.63-29.56ZM795.19-17.63L795.19-17.63L795.19-17.63Q795.19-21.25 796.25-24.38L796.25-24.38L796.25-24.38Q797.31-27.50 799.28-29.84L799.28-29.84L799.28-29.84Q801.25-32.19 804-33.63L804-33.63L804-33.63Q806.75-35.06 810.06-35.38L810.06-35.38L810.06-29.56L810.06-29.56Q806.94-28.88 805.06-25.63L805.06-25.63L805.06-25.63Q803.19-22.38 803.19-17.81L803.19-17.81L803.19-17.81Q803.19-15.50 803.66-13.44L803.66-13.44L803.66-13.44Q804.13-11.38 805-9.75L805-9.75L805-9.75Q805.88-8.13 807.16-7.06L807.16-7.06L807.16-7.06Q808.44-6 810.06-5.75L810.06-5.75L810.06 0.25L810.06 0.25Q806.63 0 803.88-1.47L803.88-1.47L803.88-1.47Q801.13-2.94 799.19-5.31L799.19-5.31L799.19-5.31Q797.25-7.69 796.22-10.88L796.22-10.88L796.22-10.88Q795.19-14.06 795.19-17.63ZM837.44-35.25L844.25-35.25L845.06-31.63L845.06 0L837.44 0L837.44-35.25ZM873.75-35.63L873.75-35.63L873.75-35.63Q875.88-35.63 877.75-34.78L877.75-34.78L877.75-34.78Q879.63-33.94 881.03-32.38L881.03-32.38L881.03-32.38Q882.44-30.81 883.22-28.66L883.22-28.66L883.22-28.66Q884-26.50 884-24L884-24L884 0L876.50 0L876.50-19.19L876.50-19.19Q876.50-21.31 876.47-23.22L876.47-23.22L876.47-23.22Q876.44-25.13 876.06-26.63L876.06-26.63L876.06-26.63Q875.69-28.13 874.84-28.97L874.84-28.97L874.84-28.97Q874-29.81 872.25-29.81L872.25-29.81L872.25-29.81Q871.81-29.81 870.38-29.63L870.38-29.63L870.38-29.63Q868.94-29.44 867.06-28.56L867.06-28.56L867.06-33.50L867.06-33.50Q868.75-34.50 870.50-35.06L870.50-35.06L870.50-35.06Q872.25-35.63 873.75-35.63ZM862.94-30.81L862.94-30.81L862.94-30.81Q863.69-29.69 864.03-28.41L864.03-28.41L864.03-28.41Q864.38-27.13 864.47-25.75L864.47-25.75L864.47-25.75Q864.56-24.38 864.53-22.91L864.53-22.91L864.53-22.91Q864.50-21.44 864.50-19.81L864.50-19.81L864.50 0L856.94 0L856.94-19.19L856.94-19.19Q856.94-21.31 856.94-23.22L856.94-23.22L856.94-23.22Q856.94-25.13 856.56-26.63L856.56-26.63L856.56-26.63Q856.19-28.13 855.31-28.97L855.31-28.97L855.31-28.97Q854.44-29.81 852.75-29.81L852.75-29.81L852.75-29.81Q852-29.81 850.53-29.53L850.53-29.53L850.53-29.53Q849.06-29.25 847.63-28.56L847.63-28.56L847.63-33.50L847.63-33.50Q849.13-34.38 850.84-34.94L850.84-34.94L850.84-34.94Q852.56-35.50 854.25-35.50L854.25-35.50L854.25-35.50Q857.13-35.50 859.09-34.31L859.09-34.31L859.09-34.31Q861.06-33.13 862.94-30.81Z"></path></g></g><style>text {
  font-size: 64px;
  font-family: Arial Black;
  dominant-baseline: central;
  text-anchor: middle;
}</style></svg>