<svg xmlns="http://www.w3.org/2000/svg" viewBox="0 0 119.19 116.09">
  <defs>
    <style>
      .a {
        fill: #4d4d4d;
      }
    </style>
  </defs>
  <g>
    <path class="a" d="M83,30.37,78.58,34V28.71s-6.43-5.57-7.7-8.26a34.62,34.62,0,0,1-10.56,1.66,34.68,34.68,0,0,1-10.57-1.66,24.44,24.44,0,0,1-4.27,5.11c-1.75,1.73-3.35,3.14-3.35,3.14h0V31c-3.06-.15-5.64-.28-5.79-.31S37.53,16,41.08,13.24s3.54-3.35,3.54-3.35l4.43-6.05.79,3.59,3.89-4.57.34,3.49L58.28,0l2.44,5.39,2.07-4.26,2,4.19,1.75-3.84,2.39,5.76,1-3.16,5,6s3.62.84,5.88,5.56S83,30.37,83,30.37Z"/>
    <path class="a" d="M119.19,116.09l-8.72-25.41a25.21,25.21,0,0,0-17-16.07C84.93,72.18,75.81,70.5,73.13,70l.14.15-4.71,3.9a13.13,13.13,0,0,1-16.47.23l-5.28-4.13A1,1,0,0,0,47,70c-2.58.45-12.3,2.17-21.28,4.67a25.2,25.2,0,0,0-17,16.08L0,116.09Z"/>
    <path class="a" d="M74.1,69.33c-1.68-1.63-2.72-6.18-3.2-10.24-.08-.67-.14-1.32-.19-2l0-.74a16.4,16.4,0,0,1-3.44,2h1.24c.05.54.12,1.19.22,1.91.43,3.13,1.32,7.48,3.1,9.92a14.55,14.55,0,0,1-11.54,5.92H60a14.53,14.53,0,0,1-11.73-5.93C50.14,67.72,51,63.18,51.45,60c.08-.6.14-1.15.18-1.62h1.89a16.53,16.53,0,0,1-3.9-2.37h-.16l-.08,1.08c0,.51-.08,1-.14,1.57-.46,4.15-1.52,8.94-3.25,10.63l-.72.69.8,1.17a16.92,16.92,0,0,0,14,7.33h.23a16.92,16.92,0,0,0,14-7.7l.53-.82Z"/>
    <path class="a" d="M79.37,27.82C77.63,26.32,72.92,22,72,20L71.51,19l-1,.32a33.25,33.25,0,0,1-20.41,0l-1-.32L48.7,20c-.92,1.95-5.6,6.33-7.34,7.86L41,28.1V44.92a21.14,21.14,0,0,0,3,8.22,19.21,19.21,0,0,0,5.26,5.56A18.26,18.26,0,0,0,51.45,60a23.08,23.08,0,0,0,8.71,2.4h.39a23.39,23.39,0,0,0,8.13-2.11,18.63,18.63,0,0,0,2.22-1.24,19.29,19.29,0,0,0,5.83-6,21.14,21.14,0,0,0,3-8.22l0-16.75Zm-2,16.91a18.78,18.78,0,0,1-2.66,7.15,17,17,0,0,1-4.07,4.51,16.4,16.4,0,0,1-3.44,2,21.74,21.74,0,0,1-6.82,1.66h-.09a21.39,21.39,0,0,1-6.79-1.66,16.53,16.53,0,0,1-3.9-2.37,18.4,18.4,0,0,1-6.31-11.32V29.23c1.35-1.2,5.32-4.85,7-7.37a35.49,35.49,0,0,0,20,0c1.7,2.56,5.69,6.18,7.06,7.39Z"/>
    <path class="a" d="M42.13,43.16c-3.6-.24-4-1.94-4-3.83s-.64-4-1.83-8.67,5.24-2.26,5.24-2.26l.55,1.36Z"/>
    <path class="a" d="M83.7,30.66c-1.19,4.66-1.91,6.7-1.83,8.67.07,1.77-.3,3.36-3.28,3.77l0-14.39-.2-.16.06-.15S84.88,26,83.7,30.66Z"/>
    <path class="a" d="M69.86,59.16s-4.53,7.87-16,6.89L51.25,75.2l-4.44-5,3.56-11.7S61.1,63.19,69.86,59.16Z"/>
  </g>
</svg>
