<svg xmlns="http://www.w3.org/2000/svg" xmlns:xlink="http://www.w3.org/1999/xlink" viewBox="0 0 72 72"><defs><style>.a{mix-blend-mode:multiply;}.b{fill:#fff;}.c{mask:url(#a);}</style><mask id="a" x="-40.98" y="-232.01" width="164.42" height="518.37" maskUnits="userSpaceOnUse"><g class="a"><polygon class="b" points="67.72 -232.01 -40.98 -38.82 14.74 286.36 123.44 93.16 67.72 -232.01"/><path d="M70.93,161.57l-.8-2c-.07.88-.1,1.36-.14,1.88-.11,0-.2,0-.26-.08a5.15,5.15,0,0,0-.32-.79c-.66-.63-.56.27-.54,1.54a9.39,9.39,0,0,0,.13,1c-1.17,4.47-1.15,3.6-.67,7.44-.42,1.27-1.21.75-1.1,3.65-.28-.36-.16.23-.64-3.72l.7.22c0-1.8.11-1.46-.53-1.31-.18-1.18-.36-2.4-.56-3.77.68-1,1.56.34,2.13-2.12-.17-.45-.33-.84-.48-1.23.85-4.83.85-4.83,1.38-5.45a9.3,9.3,0,0,1,0,1.78c.31-.56.55-1,.86-1.53l.68,1.54a5.66,5.66,0,0,0,.51-1.28c.47-2.3.35-1.62,1.33-1.52.17-4.06,0-3.29.64-3.74.36,6.12-1.32,3.9-1.49,7.38C71.71,160.72,71.38,161.53,70.93,161.57Z"/><path d="M38.49,205.15c.7-2.77,1.1-5.28,1.95-4.22s1,2.44.58,5l-1.07,1c.75,3.24.69,2.66.61,3.63-.2,2.78-.2,2.78.71,3.7.24-2.12-.05-4.21.13-4.27,1.74-.62,1.51-.35,1.62.08,0,1.62-1,2.19-.26,4.68-4.08,2.59-2.14,3-3.77-9.12C38.4,205.29,38.47,205.4,38.49,205.15Z"/><path d="M57.79,193.22l.46,2.41c1.3-1.56,1.59-2.21,1,.06l1.29,1.3c-.09.63-.15,1-.18,1.22,1.25,5.12,1,3.89.85,5.23,0,0,0,.13-.84-2.84-.27.77-.1,2.41-.55,2.15s-.54-1.09-.59-2.3c.14-.34.29-.68.56-1.31l-.81-.81c-.57,2.72-.27,5.36-.14,8.38l-.69-.79c.06-.84.11-1.49.13-1.85a34,34,0,0,1-.77-7.29c-.35-.21-.62,1-.83-.42.08-.25.16-.72.26-.79.29-.2.45-.63.44-1.58C57.39,192.78,57.92,193.39,57.79,193.22Z"/><path d="M68.28,186.57c-.29-2,.09-1.78-2-2.08,0,1.21.18,3.06-.46,4.06-.07-1.19-.15-2.35-.24-3.86l.73-2.21c-.37-2.69-.47-1.68.79-2.1-.17-.85-.28-1.45-.38-2,.3-1.67,1.49.68,1.41,1.66A5.83,5.83,0,0,0,68,182.4c.24,1.06.52.5.81.27a2,2,0,0,1,.63-.26C69.56,183.13,69.62,182,68.28,186.57Z"/><path d="M11.34,163.58c.12-.78.22-1.43.4-2.57-.59.7-1,.75-1.37-1.09.19-.75.41-1.59.68-2.64.34,1.53.46,2.24.57,2.1.3-.38.53-.24.83.31.21.39.7-.42.83,0,.48,1.62.62,1.12.79,1.48.38,3.16-.83,1.89-.79,4.34C13.29,165.44,13.41,165.61,11.34,163.58ZM13,161.11c-.31.1-.22,0-.26.73C13,161.85,12.94,162,13,161.11Z"/><path d="M-4.4,100.22l1,1.7c.21-.53.36-.94.58-1.52.06,1,.1,1.76.14,2.49l1.3,1.51c-.08,1-.2,1.8-.6,1.55-1.65-1-1.37-.62-2.53.87,0-.9,0-1.64,0-2.6C-5.6,105.19-5.64,105.65-4.4,100.22Z"/><path d="M27.86,159.2c.07-.43.19-1.15.39-2.28.12,1,.2,1.63.28,2.34.35-.44.79-1,1,.55a4,4,0,0,1-.49,2.68c.63,1.19.51.25.65,3.4-.32.66-.6,1.27-.92,2a19.32,19.32,0,0,1-.32-4.46A23.1,23.1,0,0,0,27.86,159.2Z"/><path d="M38.47,205.33c-.17.4-.33,1.41-.58.35-.17-.73-.36-.74-.56-.3a2.9,2.9,0,0,0-.14,2,7.81,7.81,0,0,1,0,1.22c-1.07-.79-.54-.78-.75,1.54,0,.53-.17,1-.29,1.64-.83-2.18.43-4.56.24-7a4.55,4.55,0,0,1,.49-1.55c.15-.33.36-.39.53-.67.61-1,.67-.94.89,1.18C38.51,205.38,38.5,205.05,38.47,205.33Z"/><path d="M16.33,157.8c-.6.76-.6.76-1-1.67L15,157.41c.64,1.58.56,1.24.52,1.91-1.49-.13-1.05.09-1.64-1.39.05-1.15.09-2.08.14-3C15.3,153.6,15.3,153.6,16.33,157.8Z"/><path d="M16,166.72c.24-2.16.24-2.16.69-2.68,0-1.06,0-2.08,0-3.52.72,2.56.51,5.36.65,7.84a2.24,2.24,0,0,1-.79,2.12c.1-1.4.19-2.6.28-3.93-.64-.22-.76,1.06-.86,2.21L14.9,169C14.89,167,14.89,167,16,166.72Z"/><path d="M22.76,94.17c.43,2.53.34,2.32.41,1.48l1.18,1.76c-.49,1.91.35.92.38,1.75-.31,1.93-1,2-1.52.07-.61.47-.37.29-.95.7C22.51,98.05,22.17,96,22.76,94.17Z"/><path d="M71.41,152.82c-.4.83-.71,1.69-1.28,1.06a10.16,10.16,0,0,0-2.45-1.7l.71-2.56C69.53,150,70.32,152.78,71.41,152.82Z"/><path d="M16.84,179.67l.48.57c-.33,1.61-1.08,2.22-.77,4.57-.31.5-.58.92-.82,1.29a14.22,14.22,0,0,1-.61-1.39c.24-1.59-.42-3.35.16-4.94.1.69.19,1.34.33,2.3C15.63,182.05,17.08,179.77,16.84,179.67Z"/><path d="M33.19,110.88c-.58.78-.58.78-1,4.08-.59-.13-.45-1.83-.63-3l.56-1.55c-.33-.52,0-.71-1.06.7-.26-2.52-.23-2.68.43-2.56C31.76,108.61,32.48,107.31,33.19,110.88Z"/><path d="M35.91,222.72,34.22,216c.42-1.58.56.31.86.47.37-.1.57-1.73.89-.69a13.44,13.44,0,0,1,.14,2.38c.06,1.31-.19,2.6,0,3.94A2.47,2.47,0,0,1,35.91,222.72Z"/><path d="M43,196.4c-.66-.59-.65-1.87-.67-3.08l-.67-.93c-.06-1.4,0-2.81-.59-3.3a19.24,19.24,0,0,1-.36-3.19c1,1.28,1.24,4.07,1.79,5.9C44.57,192,42.3,191.47,43,196.4Z"/><path d="M29,106.84c.82-3.69.94-3.85.23-5a8,8,0,0,1-.23-1.34c.77.24,1.64-.94,1.87,3-.58,1.13-1.09,2.86-1.7,4.12C29.12,107.29,29.07,107.07,29,106.84Z"/><path d="M57.36,210.61c.06-.27.11-.58.16-.94l.16.37L59,207.78s-.08-.08-.12-.06c-1.3.86-2.71,1.3-2.33,4a.39.39,0,0,0,.24,0Z"/><path d="M-7.41,144.88c2.2.39-.31-1.08.18-3.1.3-1.23,1.05-.42,1.28-.29-.35,1.33-.36,1.25,0,3.36.31,1.65-.13,3.56-.91,2.3A13,13,0,0,1-7.41,144.88Z"/><path d="M51.53,130.58c.61-.75.65,2,1.21,1.95a9.62,9.62,0,0,0,0,5c-.57.8-.41.77-1.51-2.88A39.29,39.29,0,0,0,51.53,130.58Z"/><path d="M65.41,143.85c-.41,1,.13,1.11-2.15-.31,0-1.24.09-2.54.13-3.52l-.94-1.77c.52-1.12.52-1.12,1.49.85a17.22,17.22,0,0,0-.23,1.9c.11,2,.66-.2.87,1.29C64.68,143,65.08,143.26,65.41,143.85Z"/><path d="M31.71,131.83l.89,1c0-1,0-1.86,0-2.71.35,0,.2-.54.81,3.5-.67.17-.42,3.46-1.25,2.89A13.61,13.61,0,0,1,31.71,131.83Z"/><path d="M16.23,179.32c0-.59-.09-1.37-.17-2.72.14-1.23.84-2.62.36-5.07.49-.45.64.63.82,1.19,0,.9,0,1.67-.06,2.38s-.22,1.55-.24,2.34.27,1.62-.1,2.23C16.87,179.67,17,179.75,16.23,179.32Z"/><path d="M56.66,131l.57-.7c.46,1.73-.17,2.5-.19,3.84L55.6,132.9c.39-3.44.09-2.66,1.3-3.77C57.17,130.33,56.74,130.4,56.66,131Z"/><path d="M47.32,170.24c-.3.2-.62.12-1,.18,0-1,0-2.08.08-3.36.63.4,1.17.95,1.63-.44C47.86,166.5,48.94,169.13,47.32,170.24Z"/><path d="M22.25,79.74c.37,1.46.18,3.46,1,3.21a6.76,6.76,0,0,1-.47,1.33,4,4,0,0,1-1.73.64,11.88,11.88,0,0,0,.7-3.21A13.8,13.8,0,0,1,22.25,79.74Z"/><path d="M48.24,85.67c-.41,2.19-.53,2.19-1,.08-.27-1.16-.89-2.37-.58-3.48.08-.3.35-.5.43-.3C47.47,83.06,48.13,83.21,48.24,85.67Z"/><path d="M63.08,181c.8-1.91,1.36-.27,2,1l-.6.78c.25,1,.45,1.85.64,2.67C64.56,185.79,64.78,185.79,63.08,181Z"/><path d="M46,164.1c0,2.51.08,1.6-.53,3.41-.09-2.8-.17-5-.25-7.27.43.62.94.33,1,2.08C46.63,162.64,46.67,162.27,46,164.1Z"/><path d="M42.27,70.28c.42-.49.75-.87,1.14-1.34,0,2,0,3.85,0,5.78l-.81.66C42.71,71,42.79,72.09,42.27,70.28Z"/><path d="M19.54,274.8c-.09-4.8-.21-2.83.72-4.08a11.18,11.18,0,0,0,.66-1.34c0,2.4.09,3.69-.48,3.89C20.16,273.37,19.9,274.15,19.54,274.8Z"/><path d="M20.77,205.81c-.23-1-.39-1.73-.54-2.41.08-4,1.65-2.11,1.24-.2C21.28,204.09,21,204.84,20.77,205.81Z"/><path d="M26.08,100.78c-.15-.59-.3-1.16-.5-1.91l.53-1.07c.06,1.16-.06,2.37.49,2.2.35-.11.71.38,1,.58-.31,1.25-.68,2.35-1.31,1.49-.16-.21-.4.17-.6.27C25.65,101.65,25.58,102,26.08,100.78Z"/><path d="M-14.63,103.86c-.2,3.81-.46.56-1.18,4.21l0,.17c.52.55,0,1.3,2.36-4.07Z"/><path d="M22.27,181.1a13.58,13.58,0,0,1-.71-6.72A6.74,6.74,0,0,1,22,175a7.23,7.23,0,0,0,.71,4.1Z"/><path d="M-13.87,81.85c1.18,3.45.7,3,2.15,2.52l.09.66c-.52,1.34-.07,1-1.56,1.79C-13.14,85-13.83,84.29-13.87,81.85Z"/><path d="M-5.21,130.61c-.08,1.69-.15,3.07-.22,4.46C-5.71,132.5-6.55,133-7.09,132-7,131.38-7.22,131.65-5.21,130.61Z"/><path d="M39.57,181.56c0,1.35-.28,1.58-.61,1.74s-.55,1-.31,2.19c.19,1,.17,1.32-.18,1.73-.19-1.11-.09.07-.4-4.3C38.55,182.07,39,181.1,39.57,181.56Z"/><path d="M67.1,105.86c0-.54.06-.9.1-1.45-.11,0-.24.1-.29-.07-.43-1.32,0-2,0-2a13.86,13.86,0,0,1,1.65.88C68,104.23,67.59,105,67.1,105.86Z"/><path d="M42,201.62c-.3-2.42.59-2.42.68-3.93l1,1.82c0,.22-.11.91-.12.9-.53-.52-.89.73-1.32,1.25C42.14,201.72,42.08,201.65,42,201.62Z"/><path d="M45.64,220.68c.41-2,.41-2-.13-3.7l.79-.15a8.22,8.22,0,0,1,.09,4C46.23,221.44,46.19,221.43,45.64,220.68Z"/><path d="M30.15,146c.34-1.46.64-2.7,1-4.12a8.1,8.1,0,0,1,.3,3.38C31.2,146.5,30.91,146.66,30.15,146Z"/><path d="M25.8,211.42l-1.11-3.61c0-.65.12-1.44.54-1.06C25.84,207.32,26,208.21,25.8,211.42Z"/><path d="M76.55,173c0,.72,0,1.29,0,1.89-.72,1.1-1.18-1-2-1.09C75.36,172.4,76,173.08,76.55,173Z"/><path d="M45.63,159.07c-.29-.57-.54-1.07-.85-1.72.17-1.17.34-2.37.52-3.62.54,1.2.54,1.2.15,3.06A3.05,3.05,0,0,1,45.63,159.07Z"/><path d="M21.37,170.83c.08-1.22.14-2.31.24-3.84.32,1,.62,1.69.86,2.6.13.54-.13,1.57-.39,1.54A3.79,3.79,0,0,1,21.37,170.83Z"/><path d="M23.67,151.38c.6-2.58,1.28-1.79,1.41-.15a3.62,3.62,0,0,1-.16,1.26C24.72,152.69,24.28,152.09,23.67,151.38Z"/><path d="M37.45,121.88c.39-2,.69-3.62,1-5.44a12.8,12.8,0,0,1,.32,2C38.86,120.83,38.31,120.86,37.45,121.88Z"/><path d="M27,94.56c.71-.71.71-.71,1.28,1.82-.37.43-.71.82-1.13,1.33C27.11,96.5,27.07,95.51,27,94.56Z"/><path d="M48,166.62a4,4,0,0,0-1.09-3.53c.64-.86,1.13-1.48,1.72,0C47.9,167,48,166.59,48,166.62Z"/><path d="M40.81,194.94c-.1-1.13-.19-2.11-.29-3.22.75-.54.89,1.84,1.4,2.44C41.56,195.62,41.17,194.63,40.81,194.94Z"/><path d="M63.41,173.65a8.16,8.16,0,0,1-.2,1.27c-.2.58-.85.31-1-.33C61.88,172.81,63,171.54,63.41,173.65Z"/><path d="M24.23,232.12c0,.6-.1,1.3-.15,1.89l-1.61,1.14A2.85,2.85,0,0,1,24.23,232.12Z"/><path d="M42.17,161c-.06.87-.11,1.68-.18,2.84-.62-1.51-.36-1.45-1.12,0a12.5,12.5,0,0,1,0-1.89C41.19,160.74,41.63,160.5,42.17,161Z"/><path d="M40.08,186.13c-.13-1.57-.21-2.55-.31-3.84l1.42.7C40.77,184.2,40.49,185,40.08,186.13Z"/><path d="M69.61,165.41c.07,2,.12,3.47.17,5.06C68.86,172.33,68.72,168,69.61,165.41Z"/><path d="M8.27,63.54c.22-.51-.14-2.75.58-2.17,0,1.68,0,3.07-.58,3.85-.31.44-.58.92-.83-.22C7.56,63.53,8,64.27,8.27,63.54Z"/><path d="M-11.68,109.45c.75-3.9.77-4.75,1.35-3.84C-10.76,107.55-11.5,111.73-11.68,109.45Z"/><path d="M27.52,77.52a3.33,3.33,0,0,1-.55.65c-.07,0-.24-.32-.24-.51-.07-4.33.05-3.56.35-4.43C27.22,74.62,27.35,75.88,27.52,77.52Z"/><path d="M48.86,155.88a6.54,6.54,0,0,0,.75-2.86c0-1.09.27-1.17.74-.79C49.57,156.56,49.42,157,48.86,155.88Z"/><path d="M53.56,145.59c-1.16,2.64-1.94.9-1.89-.21S51.9,144.69,53.56,145.59Z"/><path d="M8.67,168c.79-1,.88-.68.9,3C8.93,171,8.88,169.26,8.67,168Z"/><path d="M13.69,173.44c-.11-2.45.05-2.76,1.25-2.19C15.15,172.88,14.9,172.69,13.69,173.44Z"/><path d="M102.31,121.08c-.61,1.31-1,.63-1.4-.92C101.57,118,101.26,118,102.31,121.08Z"/><path d="M27.62,175.56c-.43,1.13-.84,2.2-1.23,3.25-.07-.1-.15-.13-.16-.24-.19-1.89.5-2.18.64-3.56C26.93,174.39,27.08,174.53,27.62,175.56Z"/><path d="M32.75,142.43c-.67-3.91-.66-2.74-.2-5.28.46.37,0,2,.42,2.55A4.67,4.67,0,0,1,32.75,142.43Z"/><path d="M52.11,164.19l1.49-2c.23,1.44-.11,2.23-.27,2.28C53,164.61,52.51,165.47,52.11,164.19Z"/><path d="M7.65-68.2c0,2.26-.16,2.94-.91,3.5C6.69-66.72,6.88-67.46,7.65-68.2Z"/><path d="M-7.37,105.67c.17,1,.33,1.9.51,3C-7.38,112.19-8,106.72-7.37,105.67Z"/><path d="M11,256.28a4.67,4.67,0,0,1,.09-3.4c.31.7.63,1.42,1,2.16C11.81,256.87,11.23,254.09,11,256.28Z"/><path d="M2.26,48.81c1-.85,1-.85,1.85,0,0,.61.09.13-.22,1.76L3.28,49C2.59,49.91,2.85,49.8,2.26,48.81Z"/><path d="M-5.78,97.74c-.39.5-.73,1-1-.43A3,3,0,0,1-6.13,95C-6,95.89-5.9,96.78-5.78,97.74Z"/><path d="M41.64,145.07c-.31.7-.57,1.27-.93,2.07-.12-.91-.21-1.69-.32-2.5C41.28,143.78,41.28,143.78,41.64,145.07Z"/><path d="M41.8,69.17c.11-3,.21-2-.54-4.42.85-1.54,1.11,2.4.73,4.54Z"/><path d="M23.81,78.27c-.47.33-.89-.6-1-2,0-.81,0-.81.42-1.34C23.42,76,23.61,77.12,23.81,78.27Z"/><path d="M21.87,268.15c.18.39.37.79.6,1.26-.19.83-.37,1.66-.56,2.49C21.42,270.29,21.42,270.29,21.87,268.15Z"/><path d="M68.4,113.19c.19-1.39.19-1.39.74-2.15a4,4,0,0,0,.49,2.47C69.15,115.18,68.82,113.24,68.4,113.19Z"/><path d="M-5,99c.4-2.09.62-4,1.19-2.22C-4.55,100.51-5,98.5-5,99Z"/><path d="M28.29,107.31c-.26-1.34-.47-2.38-.67-3.42.58-1.88.67,1.16,1.18,1Z"/><path d="M98.07,123.8c.29-.07.53-1.38.84-.3s-.28,1.6-.26,2.82C97.9,124.07,98,124.52,98.07,123.8Z"/><path d="M-12.58,94.67l.78.07c0,2.13,0,2.13-.68,2.65C-12.51,96.63-12.53,95.89-12.58,94.67Z"/><path d="M110.57,54.54c-.11,1.54.58,2.58.11,4-.25-.51-.72-.65-.51-3.24C110.19,55,110.43,54.8,110.57,54.54Z"/><path d="M-7.61,123.8a3.87,3.87,0,0,1,.93,2.86l-.75.71C-7.49,126.21-7.54,125.26-7.61,123.8Z"/><path d="M12.13,171.44c.29-1.17.45-2.43,1-2.05C13,171.89,12.85,172.13,12.13,171.44Z"/><path d="M52.77,202.43c-.71,1-.62-.25-.83-4.25C52.6,198.91,52.53,200.85,52.77,202.43Z"/><path d="M14.55,166.55s-.21.63-.32,1c-.22-.34.1-2.13-1-2,0,.09-.08.2,1.26-2.36C14.86,163.53,14.24,165.13,14.55,166.55Z"/><path d="M64.5,195.19c-.22,1.84-.18,3-.85,2.79a2.13,2.13,0,0,1,.17-2.14C64.12,195.43,64.56,195.26,64.5,195.19Z"/><path d="M39.34,66.37c.39-2.55.24-2,.67-2.22,0,0,.08,2.93.05,2.95C39.53,67.33,39.62,67.12,39.34,66.37Z"/><path d="M60.12,20.73c.27-1.68-.07-1.19,1.16-2.15a4.89,4.89,0,0,1,0,1C61,20.34,60.68,21.3,60.12,20.73Z"/><path d="M73,168.35l-.28-3C74.29,164,74.14,163.88,73,168.35Z"/><path d="M99.16,49.2l-.72-2.43c.19-.87.44-1.3.85-.88C99.25,46.88,99.21,47.78,99.16,49.2Z"/><path d="M13.71,175.53c.16-.54.32-1.08.52-1.79.24.76.42,1.33.67,2.17C13.49,176.68,13.72,176.86,13.71,175.53Z"/><path d="M54.9,133.35,54,131.82c.28-.73.5-1.28.77-2C55.09,133.26,55.1,132.67,54.9,133.35Z"/><path d="M100,63c.31-1.47.61-3,.91-4.36A4.71,4.71,0,0,1,100,63Z"/><path d="M56.77,204c.52-.5.59.63.78,1.18-.12,1.51-.34,2.4-.95,2.15C57.14,205.26,57.12,206,56.77,204Z"/><path d="M54.25,68.93c.26-2.1.22-3.75,1.18-1.39Z"/><path d="M-24.92-12c-.32-.59-.57-.79-.63-1.26-.21-1.52.33-3.18.64-.85C-24.86-13.69-24.91-13.11-24.92-12Z"/><path d="M98.92,129.25a11.68,11.68,0,0,1,0,1.43c-.19,1.44-.41,2.12-.75,2.2C98.68,128.57,98.53,129.11,98.92,129.25Z"/><path d="M46,156.91c.54.72.37.54.67.74v2.61C46,160.11,46.29,158.32,46,156.91Z"/><path d="M14.62,186.53c-.81-2.18-.72-1.42-.49-3.37C14.69,183.61,14.86,184.6,14.62,186.53Z"/><path d="M-28.26-55.62c0,.95-.1,1.86-.16,3-.29-.26-.56-.38-.47-1.46C-28.83-55-28.76-56.1-28.26-55.62Z"/><path d="M98.87,114.51a8.35,8.35,0,0,1-.4,1.69c-.45-.09-.42-1.26-.41-2.56Z"/><path d="M-29.26-47.34l1.07-1.3C-27.6-47-28.74-45.46-29.26-47.34Z"/><path d="M18.41,58.42c-.67,1.52-.67,1.52-1-.82C17.88,56.17,18,58.42,18.41,58.42Z"/><path d="M32.45,205.41l1.22-.48-.15,2.68Z"/><path d="M51-186.54l.79,1.33-.8,2.05C50.94-184.31,51-185.07,51-186.54Z"/><path d="M2.54,37.73c.24,2.14.24,2.14-.25,3.37A6.36,6.36,0,0,1,2.54,37.73Z"/><path d="M-.82,85.49c-.26,1.6.31,3-.24,4A5.51,5.51,0,0,1-.82,85.49Z"/><path d="M13.53,183.1l-.83.29c0-1.59-.15-1,.29-2.34Z"/><path d="M19.6,259.71l-.44-2.53c.35-.59.58-.21.76.66C20,258.36,20,258.44,19.6,259.71Z"/><path d="M12.25,156c-.27-1-.42-1.59-.62-2.38.63-.16.37-.38,1,.57C12.53,154.64,12.42,155.15,12.25,156Z"/><path d="M-8.19,88.3c-.05,1.82-.05,1.82-.81,2.28-.12-2.29.52-1.66.83-2.27Z"/><path d="M-2.88,181.72c.14-1.06.21-1.65.33-2.58.23,1,.4,1.63.68,2.74Z"/><path d="M51,185a12.39,12.39,0,0,1,.52-1.83c.4-.71.75,1,.18,1.85C51.59,185.25,51.41,185.08,51,185Z"/><path d="M109.79,49.48l-.39,1.08c-.46-.39-.48-1.61-.63-3.17Z"/><path d="M-5.33,101.46a14.38,14.38,0,0,1,0-4.45C-5,99.54-5,98.4-5.33,101.46Z"/><path d="M14.23,167.52a4.86,4.86,0,0,1-.23,2.71c-.11-1-.21-1.87-.34-3.06C14.25,167.42,14.11,167.33,14.23,167.52Z"/><path d="M35,177.42c-.77,1-.77,1-1-1C34.43,175.67,34.7,176.43,35,177.42Z"/><path d="M57.83,130.53c.37-1.6.48-1.51,1,.68C58.39,132.48,58.18,130.85,57.83,130.53Z"/><path d="M-9.85,85.93l-.14,2.5C-10.57,87.38-10.57,87.38-9.85,85.93Z"/><path d="M85.88,124c-.14,2.22.05,1.71-.95,2.21-.05-.44-.16,0,.81-2.48Z"/><path d="M99.79,68.2c.42-3.07.25-2.3.67-2.73C100.59,67.12,100.78,66.43,99.79,68.2Z"/><path d="M104.15,68a11.15,11.15,0,0,1,.12,3.87A8.88,8.88,0,0,1,104.15,68Z"/><path d="M4.51,155.13c-.13-3.4-.2-3.42.69-.55C4.92,154.8,4.75,155,4.51,155.13Z"/><path d="M91.73,102.78c.11,1.26.15,2.17-.25,2.31-.11,0-.32-.22-.33-.43A2,2,0,0,1,91.73,102.78Z"/><path d="M11.27,230.21c-.55.44-.76-.13-.83-1.64C10.88,228.32,11.14,228.63,11.27,230.21Z"/><path d="M-8,140.17c0,1.78-.08,2.62-.48,3A4,4,0,0,1-8,140.17Z"/><path d="M-30.43-53.74a8.41,8.41,0,0,1-.24,1.52c-.14.12-.35,0-.46-.26a4.54,4.54,0,0,1,0-1.29C-30.93-53.91-30.73-53.78-30.43-53.74Z"/><path d="M5.35,52.36c.05.74.07,1.21.11,1.81C4.18,54.16,4.34,54.17,5.35,52.36Z"/><path d="M-.54,95.57c-.26-1.2-.39-.3-.65.68,0-4,0-3.63.78-1.2Z"/><path d="M9.68,174.31c.19.2.06-.21.48,1.44-.09.31-.17.84-.27.87C9.41,176.76,9.21,174.8,9.68,174.31Z"/><path d="M69.88,111.32l.35-2.8C71,109.79,70.44,112,69.88,111.32Z"/><path d="M86.32,126c.14-1.81.14-1.81.67-1.68C86.78,126.27,86.78,126.27,86.32,126Z"/><path d="M33.38,119.54l.94-.94C34.11,120.94,34,121.07,33.38,119.54Z"/><path d="M20.74,116.77l-.58,1.46A9.46,9.46,0,0,1,20,116.7C20.18,115.63,20.41,115.8,20.74,116.77Z"/><path d="M100.14,118.49c.18-1.47,0-1.4.64-.94C100.67,119.25,100.8,119,100.14,118.49Z"/><path d="M110,94.66a2.61,2.61,0,0,1,.12-.4c.64-.61.75,1.1.53,1.46C110.33,96.26,110.18,95.53,110,94.66Z"/><path d="M4.59,150.68a3.05,3.05,0,0,1-.49-2.49C4.47,148.43,4.48,149.33,4.59,150.68Z"/><path d="M33.33,115.1a5.77,5.77,0,0,1,.1,2.61c0,.09-.25,0-.27-.11A5.61,5.61,0,0,1,33.33,115.1Z"/><path d="M7.42,45l-.94.61C6.77,43.58,6.77,43.58,7.42,45Z"/><path d="M-16.64,89.64c0-.87.06-1.45.1-2.41l.64,1.45C-16,89.4-15.84,89.19-16.64,89.64Z"/><path d="M-14.38,96.76c.15-.6.29-1.2.46-2,.13.5.23.86.3,1.14C-13.94,96.9-14.6,99.14-14.38,96.76Z"/><path d="M71.29,169.07c-.48,1.41-.48,1.41-.82-.12C70.72,168.21,71,168.19,71.29,169.07Z"/><path d="M60.48,176c.3-1.2.3-1.2.79.47C61.19,177.34,61.35,177.4,60.48,176Z"/><path d="M114.94,82.3c0,2.08-.68.88-.9,1.91C114.5,82.13,114.52,82.08,114.94,82.3Z"/><path d="M-9.06,119.68c.15-1.13.27-2.42.82-2.3A3.66,3.66,0,0,1-9.06,119.68Z"/><path d="M-2-103.19c.28-1.18.6-1.41,1-1C-1-103.18-.84-103.47-2-103.19Z"/><path d="M66,147.18c.19-2.51.19-2.51.84-1.49C66.54,146.17,66.32,146.57,66,147.18Z"/><path d="M57.81,193.25c-.31-1.16,0-2.25.86-.87C58.28,193.65,57.67,193.07,57.81,193.25Z"/><path d="M53.22,183.59a15.05,15.05,0,0,1-.33,1.57c0,.12-.3-.19-.3-.32C52.56,182.72,52.77,183.37,53.22,183.59Z"/><path d="M55.05,120h.84C55.46,121.72,55.46,121.72,55.05,120Z"/><path d="M68.58,109.91c-.61.94-.63.88-.64-1.52C68.17,108.93,68.37,109.39,68.58,109.91Z"/><path d="M64.52,195.21c-.36-1.45.29-2.31.81-2.08C64.41,195.42,64.49,195.18,64.52,195.21Z"/><path d="M42.7,156.1c-.63.7-.79-.08-.86-1.3C42.06,154,41.88,153.83,42.7,156.1Z"/><path d="M3.85,57.79c-.48,3.48-.36,3.05-.58,3C3.33,58.61,3.25,57.35,3.85,57.79Z"/><path d="M43.32,208.74a4,4,0,0,1,.08-3.12C43.37,206.83,43.34,207.79,43.32,208.74Z"/><path d="M-2.89,99.76c-.5-.4-.45-1.46-.42-2.8C-2.86,98-2.86,98-2.89,99.76Z"/><path d="M105.82,36.73c.77-1,.65-1,.76-.56C105.94,38.84,105.87,39.77,105.82,36.73Z"/><path d="M47.57,91.61c-.82,2.65-.67,2.45-.86,1.85.08-1.28.52-1.42.74-2.24Z"/><path d="M61.72,135.29c.35-2.19.81-.39.58.35S61.88,136,61.72,135.29Z"/><path d="M61.31,77.89c.18-.85.37-1.68.76-.45C61.27,78.56,61.42,78.56,61.31,77.89Z"/><path d="M102.6,124.55a5,5,0,0,1-.5,3A5.57,5.57,0,0,1,102.6,124.55Z"/><path d="M38.13,189.54c-.36-.62-.36-.62-.43-2.39A4,4,0,0,1,38.13,189.54Z"/><path d="M54.18,200.27c-.4,1.39-.4,1.39-.91.61C53.31,200.16,53.16,200.35,54.18,200.27Z"/><path d="M46.25,162.32c.55-1.82.57-1.86,1.1-1.15C46.39,162.86,46.63,162.64,46.25,162.32Z"/><path d="M111.58,74.81c.41-.4.25-.35.56-.11-.23,2.54-.14,2.19-.35,2.16C111.73,76.25,111.66,75.63,111.58,74.81Z"/><path d="M104.18,108.67c.17-.67.35-1.33.53-2C104.85,108.19,104.85,108.19,104.18,108.67Z"/><path d="M25.37,232.05c-.53-.21-.39-1.37-.54-2.4C25.37,229.83,25.42,230.7,25.37,232.05Z"/><path d="M-13.63,55.33c.2-.53.37-1,.58-1.54C-13,56.06-13,56.13-13.63,55.33Z"/><path d="M62.76,170.68l-.88-.06a6.6,6.6,0,0,1,0-1C62.27,168.5,62.42,169.58,62.76,170.68Z"/><path d="M-28-52.48c.83-1.67.83-1.67.95.41Z"/><path d="M2.32,44.14c-.35-.32-.32.18-.19-2C2.51,42.28,2.45,41.87,2.32,44.14Z"/><path d="M49.37,110.43c.66,1.21.64.47.31,2.65C49.45,112.93,49.52,113.35,49.37,110.43Z"/><path d="M109.88,73.49l.64,1.13C110.07,75.87,110.07,75.87,109.88,73.49Z"/><path d="M82.67,144c-.45-.9-.45-.9.11-2.6C82.74,142.32,82.71,143,82.67,144Z"/><path d="M105.27,41.82c-.36.62-.57,1-.86,1.52C104.54,42,104.54,42,105.27,41.82Z"/><path d="M46.44,90.13c.13-.06.17-.1.18-.07a3,3,0,0,1,.18,1.86.19.19,0,0,1-.27.12C46.48,91.41,46.46,90.76,46.44,90.13Z"/><path d="M55.11,138.58a5.6,5.6,0,0,1,.06-3.11C55.5,135.77,55.47,135.16,55.11,138.58Z"/><path d="M5.61,35.54l-.43,2.37A2.51,2.51,0,0,1,5.61,35.54Z"/><path d="M61.8,124.89c.33,1.46.33,1.46-.09,2.37Z"/><path d="M-4.44,80.73c0,1.7-.14,2.07-.42,2a3,3,0,0,1-.12-.8C-4.84,81.51-4.68,81.22-4.44,80.73Z"/><path d="M12.38,183.31c-.4-.3-.62-.75-.61-2.18C12.21,181.2,12.33,182,12.38,183.31Z"/><path d="M109.64,63.37c0,.74,0,1.47,0,2.26C109.28,65.32,109.28,65.32,109.64,63.37Z"/><path d="M64,132.08c-.11.67-.17,1.19-.28,1.57,0,.09-.31-.31-.3-.45a8.26,8.26,0,0,1,.16-1.46C63.56,131.64,63.75,131.9,64,132.08Z"/><path d="M109.44,85.74c-.51-.39-.45-1.29-.35-2.58A3.61,3.61,0,0,1,109.44,85.74Z"/><path d="M73.36,179.87c-.49,1.06-.49,1.06-.67-1.61C73,178.94,73.16,179.38,73.36,179.87Z"/><path d="M10.33,166.15c.11-.81.19-1.4.3-2.25.15.88.26,1.5.41,2.34Z"/><path d="M51.36,163.09l.49-1.83C52,163.28,52,163.28,51.36,163.09Z"/><path d="M19.27,95.65c.49.13.4,1.36.61,2.13C19.36,97.68,19.36,97.68,19.27,95.65Z"/><path d="M16.27,106.83c-.14.61-.24,1.85-.65.6a2.89,2.89,0,0,1,.12-1C15.81,106.31,16,106.58,16.27,106.83Z"/><path d="M107.1,68.6c.28-1.06.44-1.83.84-1.13C107.78,68.56,107.6,69.18,107.1,68.6Z"/><path d="M13.54,140.35c-.2,1.34,0,1.19-.59.88C13.05,140.14,12.88,140.31,13.54,140.35Z"/><path d="M67,142.76c.58.87.56.26.29,2.18C67,144.68,67.11,145.14,67,142.76Z"/><path d="M10.17,163.74c0,1.43-.3,2.11-.81,2.54C9.56,163.93,10.41,164,10.17,163.74Z"/><path d="M34.81,82.34l-.32-1.89c.18.08.36,0,.42.22A2.08,2.08,0,0,1,34.81,82.34Z"/><path d="M69,170.39a3.3,3.3,0,0,1-.32,1.23,2.67,2.67,0,0,1-.17-.69c0-1.56.35-.89.5-.78Z"/><path d="M66.55,190.84a5.06,5.06,0,0,1-.44,2.61C65.9,192.91,65.85,193.44,66.55,190.84Z"/><path d="M16.33,270.11c-.16,1.19-.25,1.84-.4,2.91C15.74,271.53,15.72,270.74,16.33,270.11Z"/><path d="M32.46,89.1c-.49.81-.49.81-.87-.07C32.05,87.86,32.43,89.36,32.46,89.1Z"/><path d="M-4.93,79.83c-.14,1.48-.4,1.44-.73.65Z"/><path d="M32.45,89.15c.24-.26.49-.51.77-.8-.26,2-.29,2-.76.75Z"/><path d="M-10.62,92.15c-.24.65-.4,2.18-1,.72Z"/><path d="M55.76,206.74c-.18,2.45-.08,2.14-.38,1.88a3.05,3.05,0,0,1,.09-2.18Z"/><path d="M-21.48,72.48c.07-1.65.31-1.67.58-1.51C-20.77,71.73-20.68,71.37-21.48,72.48Z"/><path d="M111.64,56.79a5.34,5.34,0,0,1,.11,2.74C111.52,59.41,111.56,59.92,111.64,56.79Z"/><path d="M115.6,52.68l-.71,1c.07-.94.11-1.51.18-2.35C115.26,51.79,115.37,52.09,115.6,52.68Z"/><path d="M-28.83-50.72l.81-.42C-28.26-49.63-28.48-49.89-28.83-50.72Z"/><path d="M48.86,39.21c-.43-.47-.32-.21-.31-1.33C49.05,38.25,49,37.92,48.86,39.21Z"/><path d="M42,159.54c.26-.66.42-1.09.67-1.73C42.68,159.52,42.55,160.09,42,159.54Z"/><path d="M41,122.27c.08-3.19,0-2.78.3-1.39C41.48,121.72,41.36,122.05,41,122.27Z"/><path d="M29,72.15c.39-1,.39-1,.63.57Z"/><path d="M30.82,157c.05-.65.09-1.18.16-2a3.6,3.6,0,0,1,.26.81C31.3,156.6,31.31,157.41,30.82,157Z"/><path d="M-8.17,88.31a5.11,5.11,0,0,1-.31-1.17c.05-.83.26-.94.58-.46C-8.23,88.5-8.2,88.3-8.17,88.31Z"/><path d="M6.76,62.58l-.7.11C6.25,61.44,6.25,61.44,6.76,62.58Z"/><path d="M15.31,48.72c.42.53.36.05.34,1.6C15.31,50.1,15.38,50.57,15.31,48.72Z"/><path d="M20.89,241.69c-.11-.34-.23-.68-.33-1.06a2.12,2.12,0,0,1,.14-.5,8.15,8.15,0,0,1,.37.78Z"/><path d="M116,79c0-1.23-.12-.84.47-1.47C116.56,78.45,116.65,78.12,116,79Z"/><path d="M45.84,211.14a2.7,2.7,0,0,1-.2-2c0-.11.21,0,.21,0C45.86,209.74,45.85,210.3,45.84,211.14Z"/><path d="M99.72,70.47a4.41,4.41,0,0,1-.07,1.92c-.2-.1-.16.28-.15-1.87Z"/><path d="M30.29,150.39a4.27,4.27,0,0,1,.16,2.75Z"/><path d="M32.89,129.28c-.63-.55-.27-1.4-.26-2.06C32.85,127.12,32.79,126.74,32.89,129.28Z"/><path d="M20.51,185.69c-.23.7-.35,1.06-.5,1.48C19.85,185.55,19.85,185.55,20.51,185.69Z"/><path d="M13.71,175.53c0,1.29.11.92-.54,1.51C13.24,175.64,13.43,175.4,13.71,175.53Z"/><path d="M43.78,156.94c.6.25.42,1.42.49,2.18C44,159.33,44.16,159.7,43.78,156.94Z"/><path d="M34.72,86.39,34.16,86C34.51,84.91,34.51,84.91,34.72,86.39Z"/><path d="M22.35,94c-.57,1.21-.44,1.21-.61.45C22.3,93.07,22.17,93.12,22.35,94Z"/><path d="M15.51,63c-.14-.24-.29-.47-.46-.73C15.34,61.77,15.34,61.77,15.51,63Z"/><path d="M-1.08,40.66c-.39-.1-.46-.69-.31-1.78C-1,39.06-1,39.65-1.08,40.66Z"/><path d="M4.5,41c.66-1.3.52-1.22.66-.76-.23,1-.08.71-.55,1.28Z"/><path d="M-11.63,79c-.35-1.27-.51-2,0-2.72C-11.62,77.14-11.62,77.77-11.63,79Z"/><path d="M8.92,65.25l-.36,1.27C8.43,65.45,8.43,65.45,8.92,65.25Z"/><path d="M58.14,108.71c.68-.57.56-.7.62.18C58.08,109.43,58.2,109.54,58.14,108.71Z"/><path d="M57.18,114.76c.12,1.36,0,1.88-.45,2A7.18,7.18,0,0,1,57.18,114.76Z"/><path d="M52.33,140.54c0-.49,0-1,.06-1.47,0,0,.14,0,.14,0,0,.48,0,1,.07,1.44Z"/><path d="M69.19,116.44c-.68.71-.55.77-.65-.1C69.18,115.49,69.05,115.43,69.19,116.44Z"/><path d="M90.07,95c.42-1.07.57-.9.66.46Z"/><path d="M109.1,61.55c.66-.47.53-.57.62.29C109.09,62.57,109.22,62.69,109.1,61.55Z"/><path d="M84.84,117.92c.7,1.44.58.93.43,2C84.75,119.13,84.89,119.59,84.84,117.92Z"/><path d="M-1.45,183.3c.09-.65.16-1.18.24-1.78.12.29.19.38.19.5C-1,182.84-1.06,183.38-1.45,183.3Z"/><path d="M64.19,173.09l-.61-.51a4.91,4.91,0,0,1,.12-.87C64,171.17,64.09,171.58,64.19,173.09Z"/><path d="M32.54,238.3c-.18,1.62-.09,1.26-.41,1.11C32.21,237.77,32.1,238,32.54,238.3Z"/><path d="M10.35,154.23c-.13.73-.22,1.23-.33,1.89C9.85,154.81,9.85,154.81,10.35,154.23Z"/><path d="M50.12,77.1c.68-1.22.55-1.15.64-.66C50.09,77.62,50.22,77.56,50.12,77.1Z"/><path d="M100.32,131.44c.16,1.33,0,1.72-.4,2.07C100.09,132.64,100.18,132.18,100.32,131.44Z"/><path d="M-2.21,99.1c.2-.56.32-.87.57-1.57C-1.72,98.87-1.78,99.42-2.21,99.1Z"/><path d="M102.77,44.35c-.19,1.7-.13,1.48-.29,1.47-.11-1.36-.11-.92.12-1.71Z"/><path d="M-22,57.5c0,2-.28,1.78-.72,1.84C-22.39,58.59-22.23,58.2-22,57.5Z"/><path d="M-11.69,81.91c-.06-1-.09-1.49-.13-2.13C-11.45,80.14-11.28,80.55-11.69,81.91Z"/><path d="M40.89,206.85c.46.68.46.68.21,1.83C41,208.13,41,207.7,40.89,206.85Z"/><path d="M10.19,163.76c-.11-1.49-.11-1.49.55-1.26C10.1,163.89,10.16,163.73,10.19,163.76Z"/><path d="M-6.09,67.1c.09,1.34-.12,1.5-.53,1.65C-6.32,67.12-6.46,67.57-6.09,67.1Z"/><path d="M52.5-201.57c-.12.62-.22,1.06-.33,1.62C52.07-201.18,52.07-201.18,52.5-201.57Z"/><path d="M114.18,86.65c-.28-.74-.3-.33,0-1.72C114.43,85.52,114.43,85.15,114.18,86.65Z"/><path d="M72.38,172.17c.26-.46.4-.73.55-.94S73.25,173.36,72.38,172.17Z"/><path d="M-10.57-48.56c.27-.61.4-.92.61-1.38C-9.94-48.66-10.06-48.29-10.57-48.56Z"/><path d="M44.21,170.92c-.1.42-.2.85-.33,1.37C43.76,171.1,43.76,171.1,44.21,170.92Z"/><path d="M102.29,67.61c-.37,1-.28,1-.42,0C102.3,67.08,102.21,67.07,102.29,67.61Z"/><path d="M5.31,45.61c-.32-1-.28-.72-.26-1.23.5.26.46-.05.25,1.22Z"/><path d="M16,58.91c.64.83.55.56.5,1.15C15.79,59.61,15.88,59.89,16,58.91Z"/><path d="M51.58,148.89c.13-.45.22-.81.33-1.21C52.06,149.09,52.06,149.09,51.58,148.89Z"/><path d="M46.74,155.78l.8-.36C47.27,156.76,47.1,157.08,46.74,155.78Z"/><path d="M-.56,91.88c-.59-.42-.51-.18-.48-.91C-.43,91-.52,90.77-.56,91.88Z"/><path d="M18.9,93.72c-.34,1.57-.23,1.46-.45,1C18.8,93.09,18.7,93.26,18.9,93.72Z"/><path d="M92.05,115.11c-.19,1.43-.35.65-.69.09Z"/><path d="M23.23,269.49c-.44.78-.36.74-.44.42C23.18,268.71,23.08,268.77,23.23,269.49Z"/><path d="M32,239.73c-.46,1-.38.92-.49.63.19-1.17.1-.84.41-1.13Z"/><path d="M-13.54,116.73l.48.19C-13.31,118.45-13.4,117-13.54,116.73Z"/><path d="M107.43,98.84c.55-.72.45-.72.53-.25-.35.82-.23.6-.51.67Z"/><path d="M22.08,173.36c-.42-.84-.36-.61-.28-1.13C22.25,172.91,22.2,172.65,22.08,173.36Z"/><path d="M53.91,184.07c-.43,1.45-.28,1.23-.56.64C53.58,183.63,53.45,183.89,53.91,184.07Z"/><path d="M-7.44,102.68s.13-.08.13,0c0,.46.1.93.14,1.4C-7.46,104.16-7.43,104.45-7.44,102.68Z"/><path d="M104.51,74.42c-.26.61-.41.59-.46-.26a4.25,4.25,0,0,1,.07-.69Z"/><path d="M84.55,102.76c-.26,1.24-.13,1.1-.5.87C84.22,102.53,84.11,102.83,84.55,102.76Z"/><path d="M42.39,176.59c-.6.81-.48.82-.56.26C42.43,176.07,42.32,176.06,42.39,176.59Z"/><path d="M49.76,96.25c-.48.87-.38.84-.48.42C49.7,95.42,49.6,95.47,49.76,96.25Z"/><path d="M101.38,116.21a5.07,5.07,0,0,1,.11,2.5C101.36,118.6,101.39,119,101.38,116.21Z"/><path d="M64.61,134c-.35,1.4-.23,1.14-.47.89C64.29,133.78,64.19,134.1,64.61,134Z"/><path d="M110,101c.58.1.48-.08.48.7C109.85,101.82,110,102,110,101Z"/><path d="M41.83,172.13l.64.43C42.21,173.51,42.05,173.4,41.83,172.13Z"/><path d="M106.69,53.86c-.11,1.11-.28,1.19-.57.71C106.24,53.62,106.41,53.54,106.69,53.86Z"/><path d="M105.83,56.21c-.35-.57-.26-.32-.19-1.13C106,55.49,106,55.22,105.83,56.21Z"/><path d="M5.47,226.91c-.18,1.31-.06,1.16-.45,1C5.11,226.86,5,227.13,5.47,226.91Z"/><path d="M111.24,62.79c0-1.38.19-1.35.36-1.54C111.73,61.86,111.78,61.51,111.24,62.79Z"/><path d="M2.18,192.85c.45.54.38.19.31,1.29C2.24,193.93,2.31,194.28,2.18,192.85Z"/><path d="M70.82,90.85l0,1a1,1,0,0,1-.24-.33,1.91,1.91,0,0,1,.06-.61C70.65,90.82,70.74,90.87,70.82,90.85Z"/><path d="M51.12,124.3a2.51,2.51,0,0,1,.38.52,2.3,2.3,0,0,1,0,.6C51,125.68,51.12,125.29,51.12,124.3Z"/><path d="M111.55,88.45c-.33.94-.18,1-.54.38C111.23,88,111.09,88.06,111.55,88.45Z"/><path d="M54,204c.16-.64.05-.72.48.19C54.31,204.88,54.41,204.88,54,204Z"/><path d="M-16.66,94.68c-.41,1.18-.31,1.11-.46.65C-16.75,93.88-16.85,94-16.66,94.68Z"/><path d="M14.63,33.41c-.32-.41-.28-.06-.2-1.19C14.6,32.35,14.55,32,14.63,33.41Z"/><path d="M57.14,201.66c0-.57,0-1.13-.09-2A2.2,2.2,0,0,1,57.14,201.66Z"/><path d="M14.13,31.25c.39-1.34.29-1.22.46-.69C14.17,31.79,14.27,31.72,14.13,31.25Z"/><path d="M3.73,41.25c.42-1.12.33-1.06.45-.54C3.72,41.66,3.81,41.61,3.73,41.25Z"/><path d="M61.8,19.53l.24.15a7,7,0,0,1-.12.77c0,.07-.17-.08-.18-.21A4.12,4.12,0,0,1,61.8,19.53Z"/><path d="M18.52,92.13c-.45.26-.36.29-.4-.26C18.57,91.61,18.49,91.53,18.52,92.13Z"/><path d="M19.36,85.94a10.87,10.87,0,0,1,.27-1.26c0-.06.18.23.17.31C19.75,86,19.58,85.81,19.36,85.94Z"/><path d="M-1.75-86a4.75,4.75,0,0,1-.24.75s-.15-.23-.14-.32C-2.1-86.47-1.9-86.09-1.75-86Z"/><path d="M-1.51-97.61l.47-.7c0,1.29-.23,1.17-.41,1.23S-1.52-97.39-1.51-97.61Z"/><path d="M-4.26-100c.11.77.22,1-.09,1.53C-4.41-100.18-4.44-99.88-4.26-100Z"/><path d="M112.44,93.17c0,.56.09.42-.38.68C112.06,92.92,112,93.1,112.44,93.17Z"/><path d="M-4.36-103.41c.29-.85.21-.83.36-.22C-4.33-103-4.25-103-4.36-103.41Z"/><path d="M-8.31,124.84l.33.52a6.59,6.59,0,0,1-.16.74c0,.09-.19,0-.2-.17S-8.33,125.36-8.31,124.84Z"/><path d="M108.23,83.87c.07-1.45,0-1.21.17-1.18C108.42,84.17,108.46,83.94,108.23,83.87Z"/><path d="M32.72,216.07c.42.09.35-.06.36.49C32.64,216.7,32.71,216.84,32.72,216.07Z"/><path d="M45,231.25c-.24,1.19-.12,1.13-.46.62C44.61,231.1,44.5,231.3,45,231.25Z"/><path d="M62.48,180.68c-.26-.32-.24,0-.15-1.06C62.57,180,62.52,179.72,62.48,180.68Z"/><path d="M32.67,124.51c-.28.56-.18.57-.38,0C32.52,123.91,32.43,124,32.67,124.51Z"/><path d="M94.08,102.77l-.32.32c0-.16,0-.45,0-.46C94.12,102.21,94.06,102.34,94.08,102.77Z"/><path d="M84.67,115.68c.3.49.27.14.16,1.23C84.6,116.63,84.62,117,84.67,115.68Z"/><path d="M41.54,133.33c0,1.24.05,1-.13,1C41.4,133.14,41.37,133.35,41.54,133.33Z"/><path d="M76.5,68.66a1.54,1.54,0,0,1,.15,1.44c0,.09-.19,0-.2-.1C76.44,69.71,76.47,69.41,76.5,68.66Z"/><path d="M15.56,234.44c-.13-1.41-.16-1.16,0-1.31C15.7,234.58,15.71,234.31,15.56,234.44Z"/><path d="M106.3,61.48c-.06,1.35,0,1.07-.26,1C106.12,61.16,106.05,61.36,106.3,61.48Z"/><path d="M11.62,150.83c-.22.84-.11.77-.41.58C11.27,150.66,11.16,150.79,11.62,150.83Z"/><path d="M26.3,72.39c-.12.9-.06.69-.29.59C26.17,72.13,26.1,72.33,26.3,72.39Z"/><path d="M32.72,84.91c.14.32.15.07.05.9C32.58,85.42,32.59,85.63,32.72,84.91Z"/><path d="M-15.1,96.48c.44-.72.59-.28.72.28C-14.42,97.26-14.3,97.24-15.1,96.48Z"/><path d="M33.68,240.21c.28.44.25.16.18,1C33.58,240.92,33.65,241.13,33.68,240.21Z"/><path d="M-5,140.23c-.26.73-.14.78-.47.17C-5.33,139.76-5.46,139.74-5,140.23Z"/><path d="M52.1-185c.4.83.36.57.26,1.1C52-184.69,52-184.42,52.1-185Z"/><path d="M37.19,81.49s-.13-.08-.13-.12c0-.41,0-.81,0-1.22C37.34,80.32,37.35,80.08,37.19,81.49Z"/><path d="M19.42,251.72c-.11.91,0,.79-.3.67C19.19,251.47,19.13,251.7,19.42,251.72Z"/><path d="M13.86,143.29c-.42.56-.33.63-.43-.15C13.89,142.8,13.8,142.73,13.86,143.29Z"/><path d="M44.16,228.13c-.25,1-.18.94-.34.29C44.13,227.73,44.06,227.77,44.16,228.13Z"/><path d="M1,110.83c0,.64.05.55-.21.52C.75,110.81.69,110.92,1,110.83Z"/><path d="M55.34,114.23c-.2-.08-.15.14-.19-.72C55.31,113.56,55.28,113.33,55.34,114.23Z"/><path d="M57.16,102.51a2.27,2.27,0,0,1,.23,1.39C57.09,103.81,57,104,57.16,102.51Z"/><path d="M49.82,210.54c-.17,1.13-.07.94-.38.74C49.59,210.14,49.51,210.41,49.82,210.54Z"/><path d="M2.91,46.72a1.15,1.15,0,0,1,.37,0,3,3,0,0,1,0,.43C2.84,47.51,2.92,47.51,2.91,46.72Z"/><path d="M98.16,39.07c.11-.73,0-.7.35-.43C98.4,39.65,98.48,39.52,98.16,39.07Z"/><path d="M-7.89,24.32c.48,0,.41-.13.41.48C-8,24.79-7.9,24.92-7.89,24.32Z"/><path d="M27.16,80.64c-.13,0-.26,0-.26-.1a7,7,0,0,1,0-.92c0-.06.19-.08.2,0C27.15,79.89,27.14,80.22,27.16,80.64Z"/><path d="M58.37,117c.41.32.33.11.29.94C58.25,117.45,58.31,117.68,58.37,117Z"/><path d="M39,214.35c-.07-.33-.15-.66-.23-1a1.73,1.73,0,0,1,.12-.26C39.17,214.27,39.11,214.08,39,214.35Z"/><path d="M55,125.16c-.31,1.23-.23,1.12-.37.75C54.9,124.69,54.82,124.8,55,125.16Z"/><path d="M60.32,119.93c.31.33.24.12.21.93C60.2,120.66,60.25,120.89,60.32,119.93Z"/><path d="M4.57,30.61c.18.51.21.2-.1,1.41C4.27,31.51,4.26,31.82,4.57,30.61Z"/><path d="M14.31,12.56c.44,0,.37-.07.37.47C14.26,13.14,14.34,13.27,14.31,12.56Z"/><path d="M106.33,46.48c-.31-1.15-.29-.87-.13-1.3C106.49,46.37,106.47,46.09,106.33,46.48Z"/><path d="M-7.59,136.74c-.07,1,0,.85-.33,1C-7.89,137-8,137.19-7.59,136.74Z"/><path d="M14.54,163.13c.5-1.89.38-1.72.56-1.16C14.56,163.43,14.66,163.27,14.54,163.13Z"/><path d="M99,66.76c.06,1.3.1,1.07-.15,1.14C98.82,66.54,98.78,66.75,99,66.76Z"/><path d="M5.3,45.6c.3,1.29.38,1-.32,1-.05-.47-.1-.23.33-1Z"/><path d="M112.29,110c-.1,1.58,0,1.37-.36,1.08C112,109.42,111.92,109.63,112.29,110Z"/><path d="M53.11,153.71c.36.53.33.25.18,1.19C53,154.33,53,154.63,53.11,153.71Z"/><path d="M6.87,109.61c0,1.33,0,1.12-.14,1.13C6.7,109.39,6.66,109.62,6.87,109.61Z"/><path d="M5.64,28.18c.28.35.23.11.19.92C5.58,28.9,5.64,29.1,5.64,28.18Z"/></g><g class="a"><polygon class="b" points="67.72 -232.01 -40.98 -38.82 0.35 202.4 109.05 9.21 67.72 -232.01"/><path d="M28.54,144.59c-.4-.23-.7-.77-.72-2.46.4.35.76.73.86,2.2Z"/><path d="M84,44.55c.5-1.31.5-1.31.92-.1C84.36,45.38,84.56,45.38,84,44.55Z"/><path d="M89.61,34.13c.39-.5.5.1.58.87C90,35.32,90.12,35.43,89.61,34.13Z"/><path d="M73-99.35c.64-.33.65,1.36.9,1.89a7.85,7.85,0,0,1,.39,3.09l.63.52c.35-1.87.6-4.13,1.4-4.53,0-1.12-.08-2.05-.12-2.92l.85-2c.17,3-.12,3.45.66,3.5.46,0,.52.93.51,2.26l-1.1.86c-.49,1.66,0,3.62-.13,5.54-.36-.19-.69-.82-1,.2-.09.31-.43.4-.5.15-.61-2.26-.92,1.3-1.85-.27-.32-.54-.75-.37-1.2-.54a5.79,5.79,0,0,1,.21-2.64,7.85,7.85,0,0,0,.22-2.58C72.8-97.66,72.91-98.52,73-99.35Zm3.71,3c-.29.12-.51,0-.6.29a5.56,5.56,0,0,0,.09,2.8C76.32-94.15,76.45-94.92,76.67-96.3Z"/><path d="M46.94-90.38c-.06-.39-.13-.77-.19-1.15-.66,1.07-.66,1.07-.68,3.75l-.92,2a19.44,19.44,0,0,1,0-2c.22-3.05.07-4-.83-4.42,1.68-5.59,3,1,2-2.88l.53-1.09L47.55-93c.59-1.84.93-1.84,1.7,0-.33,2.68-.44,5.79-1.42,7.19-.2.29-.38.82-.61-.18.28-.45.32-1.93.8-1.51a2.35,2.35,0,0,0,.26-1c0-.32-.2-.86-.31-.88s-.38.3-1.21,1.49A4,4,0,0,1,47-90.42l.5.37c0-.8,0-1.37,0-2.31C47.2-91.44,47.07-90.91,46.94-90.38Z"/><path d="M68.26-53.71c-.06-.49-.11-.88-.19-1.56l1.08-.43c0,1.73-.06,3.09-.09,4.65.59.64.64,2.35.7,4.41-.51-1.08-.28-1.21-.88,1.2s-1.52.48-1.36-1.08c.41-4.07.78-4.08.35-5.41C67.51-53,68.09-53.2,68.26-53.71Z"/><path d="M6.31,24.53c-.48,2.3-1,4.36-2.12,3.53,0-.73-.09-1.6-.16-2.68.43-.08.76,0,1-1.22.1-.57.47-.64.73-.95.14-1.7-.44-1.39-.63-2.23C5,19.5,5,18,4.86,15.87c.6,1.64.83,3.51,1.36,4.52s.93,2.23,1.39,3.36C7.14,25.13,7.14,25.13,6.31,24.53Z"/><path d="M11.48,4.59A6.43,6.43,0,0,0,11.37,8c-.32,1.06-.63,1.82-1.07,1.79.19-3.19.35-3.89-.21-3.83.1,1.29-.47,2.73.21,3.79.28,1.81-.33,2.1-.46,3.1l-1.16-.07A19.89,19.89,0,0,0,8.9,8.1a19.54,19.54,0,0,1,.35-3.3c.53,1,1.1-1.1,1.63.76.07-.68.14-.41-.31-1.63-.31-.83-.31-.83.09-2.18.27.37.26,2,.69,1.77C11.38,3.5,11.47,4.75,11.48,4.59Z"/><path d="M-19.25,19.56c.34-4.16,1,1.05,1.44-2l-.66-1.22c.14-.45.26-.86.39-1.3a10.14,10.14,0,0,1,2.2,3.68,5.63,5.63,0,0,1,.29,2.77C-16.91,23.15-18,20.5-19.25,19.56Z"/><path d="M69.86-115.27c0-1.22,0-1.91,0-2.75l.49-.5a14,14,0,0,1-.49,4.57c.6-.53,1.09-1.37,1.24-3.57.35,2.25-.41,3.35-.5,5.28.5.28.52-1.26.76-1.86.26,1,.26,1-.08,3.33-.49.41-.93.08-1.18-1.16l-1.28,1.55c-.06-.79-.11-1.33-.16-2-.3-.51-.74.86-1-.57a7.79,7.79,0,0,1-.5-3.21c.47.7.9,1.77,1.36,1.93S69.37-114.86,69.86-115.27Z"/><path d="M93-47.91a11.22,11.22,0,0,1,.73-3.64c-.37-1.62.61-1.85.26-3.38l1.34.73c-.09,1.76-1.17,1.26-.94,4l.69.16c.12,1.47.23,2.89.37,4.67C94.49-45.42,93.67-45.73,93-47.91Z"/><path d="M85.46-101.47l-.46-.39a5.88,5.88,0,0,0-.13-3.06c.95-.08,1,.19,1.06,2.83.5-1.37.28-.89.9-1.71-.14.81-.2,1.14-.29,1.62.8,2.62-.23,3.72-.22,4.74,0,1.88-.72,1.37-.82,2.8-2-1.42-.77.18.09-3.59l-.71-1.14C85.06-100,85.22-100.59,85.46-101.47Z"/><path d="M42.4-98.8c-.71-.77-.46-2.88-.81-4,.16-1,.31-1.93.45-2.85-.54-1.93-.54-2,.33-4.91.28.51.54,2.29.9,6.22C43-102.45,42.69-100.61,42.4-98.8Z"/><path d="M56.17-176.08c-.22-.4-.42-1-.64-1.11-.57-.25-1-1.08-1.39-2.45a12.59,12.59,0,0,0-.52-1.16,9.5,9.5,0,0,1-.21-1.15c.91-.8,2.39.73,2.55,3.27.1,1.54,1.2,3,.77,5.13-.3,1.45-.72,1.9-1.3,1.26Z"/><path d="M74.66-100.45c-.48-.9-1.46-.4-.45-3.85.22-.77.4-1.89.86-2,.29-.09.55-1.2.84-1.88a4.59,4.59,0,0,1,.24,2.85c-.18,1.16-.27,2.47-.42,4C74.54-100.36,74.64-100.46,74.66-100.45Z"/><path d="M91.56-49.72a54.28,54.28,0,0,0,.56-9.19c.72-.31,1.12.86.82,2.64-.61,3.73.2,8.13-.46,8.7-.32.28-.5-.24-.59-1.25A3.3,3.3,0,0,0,91.56-49.72Z"/><path d="M5.64,12.9c1.19-1.16,1.64.6,1.32,5.45-.4,0-.86.89-1.18-.53A14.59,14.59,0,0,1,5.64,12.9Z"/><path d="M42.86-147.18a7.62,7.62,0,0,1-.7,3.78c-.25,2.31-.86,1.93-1.46,2.24,0-1.27-.06-2.38-.09-3.51.34.09.7.49,1,.18a8.47,8.47,0,0,0,.68-2c-.11-1-.21-1.77-.31-2.67l.78-.8c0,.06-.06-.65.19,2.28Z"/><path d="M69.74-220.19l0-.05c.24.1-1.21,2.37-1.23,2.4-.14-1-.24-1.61-.34-2.3-.57,1.59.09,3.35-.15,4.93a11.25,11.25,0,0,0,.61,1.4c.24-.37.5-.79.82-1.3a6.74,6.74,0,0,1,.55-3.78Z"/><path d="M50.22-146.42c-.68-3.51.74-2,.57-5.18-1.83,1.16-1.42,1.31-1.95-.37.22-1.35.37-.2.55.07.12-.44.25-.87.36-1.27.42.34.93.3,1.2,1.1a11.7,11.7,0,0,1,.23,3.51C51-146.61,52.27-146.94,50.22-146.42Z"/><path d="M45.45-104.67c-.43-2.93-1.53.92-1.65-2-.11-2.37,1.38-2.6,2.73.73v0c-.19,1.9-.75.68-1.09,1.34Z"/><path d="M55.44,38.75c-.45,0-.93-.77-1.19,1.76a17.7,17.7,0,0,1-.19-2.23,21.35,21.35,0,0,0,.2-4.64l1.61.5C55.26,36.74,55.37,35.52,55.44,38.75Z"/><path d="M51.24,21.63c-.07-1-.13-1.91-.19-2.88.52-.24,1-.25,1.39-.7s.76-1.19,1.29-.33c-.24.81-.43,1.45-.66,2.21-.29-1.46-.12-1.32-.78-.35,0,.87,0,1.67.07,2.75Z"/><path d="M45.66-189.14c.37-1.49,1-2.21,1.31-4.12.71,3.65.14,4-.45,4.8.27,2.46.32,1.66-.31,3.57C46-186.28,45.86-187.58,45.66-189.14Z"/><path d="M4-79.8c.64-.37,1.12-3.15,1.92-1-.22,1.29-.16,3.12-.7,3.54S4.3-78.16,4-79.8Z"/><path d="M64.73-55.65c-.06,1.6-.47,1.67-.82,2-.52-.89-.38-2.33-.34-3.48-.6-2-.53-1.47-.39-2.26,1.38,1.09,1.05.19,1.55,3.82Z"/><path d="M47-74c-.61-2.31-.5-1.35-.4-4.25-.2-.23-.09-.44-.57,1.45-.84-2.47-.35-5.26,0-3.74.26,1.34-.38,1.83.88-.18A28.72,28.72,0,0,1,47-74Z"/><path d="M47.86-164.59a8.57,8.57,0,0,1,.69-1.54c1.06-1.31,1.14,2.9.38,3.83C48.51-161.79,48.26-162.38,47.86-164.59Z"/><path d="M48.65-102c0-.06-.25.23-.44.39,0-1.14.09-2.23.14-3.74l2,3.06c0,1.65-.43.76-.65,1.12C49.08-101.55,48.85-100.61,48.65-102Z"/><path d="M76.48-37.08c0,1.08,0,1.63-.08,2a8.79,8.79,0,0,0-.27,3.31,2,2,0,0,1-.23.83c-.09,0-.29-.33-.3-.6-.16-2.92.38-1.79-.68-3.2C74.91-35.53,74.68-35.06,76.48-37.08Z"/><path d="M72.76-102.35c-1.7,3.42-1.13,3-2.55,2.26.56-3,.09-1.21,1.46-2.08C72.8-102.88,72.52-104.1,72.76-102.35Z"/><path d="M72.39-125.11c-.08-4.8-.2-2.83.72-4.08a11,11,0,0,0,.67-1.34c0,2.4.09,3.69-.48,3.89C73-126.54,72.76-125.76,72.39-125.11Z"/><path d="M70.85-118.34c-.68-1.75-.61-1-.3-2.9.25-1.48.24-1.4.76-.66.24.34.53.29.85.44-.33,2.63-1,1.15-1.48,1.44C71-118.32,71-118.61,70.85-118.34Z"/><path d="M57-99.85c-.33-.77-.83.9-1-1,.37-.36.72-.73,1.08-1,.85-.73,1.37,4.77-.42,3.24Z"/><path d="M8.08,3.35c.45-.07.76-.07.8,1.28.06,2-.23,3.06-1.1,4C7.89,6.8,8,5.11,8.08,3.35Z"/><path d="M43.34-132.5c-.54-2.69-1-2.49-.51-6.33.1-.79.32-1.14.51-.64a6.07,6.07,0,0,1,.18,1.74c-.52,1.28-.16,2.66-.09,4C43.44-133.5,43.4-133.24,43.34-132.5Z"/><path d="M64.73-55.59l.62-1.26c1,2.9.75,2,.81,3.6-.57-.18-.39-.09-.63-.48-.18.67-.17,2.08-.54,1.55C64.7-56.06,64.74-55.67,64.73-55.59Z"/><path d="M-9.47,108.79A10.91,10.91,0,0,1-9.24,114C-10.1,112.63-10.18,110.94-9.47,108.79Z"/><path d="M-4.47,13.83c-.07-4.28-.07-4.28-.78-6.26l.76-.42c0-.58.09-1.27.17-2.44a11.7,11.7,0,0,1,.16,3.83C-4.36,9.69-3.72,12.58-4.47,13.83Z"/><path d="M41.58-174.29l-1-.62c0-1.6,0-3.05,0-4.73.18.27.42.48.43.69C41.05-177.3,41.63-176.47,41.58-174.29Z"/><path d="M8.5-114.2c0-2.47,0-3.71.32-4.25.1-.16.46.51.53,1.62.06.93.09,1.89.14,3.22C9-114.62,9.21-114.57,8.5-114.2Z"/><path d="M9.85-27.49c.52.58,1.13-.36,1.64,1.28a4.17,4.17,0,0,1-.22.95C10.38-24.74,9.51-24.45,9.85-27.49Z"/><path d="M72.62-123.78c.16,0,1.2-.86,1.21,2.06,0,1.07-.39,1.82-.58,1.27-.26-.78-.48-1.67-.72-2.52Z"/><path d="M42.11,39.78l-.6-1.85c.24-1.83.58-.58.88-.61a3.5,3.5,0,0,1,.73-2.68C43.14,37.26,42.52,38.2,42.11,39.78Z"/><path d="M52.6-183.76l.64,2.35-1.14,2A7.29,7.29,0,0,1,52.6-183.76Z"/><path d="M69,57.23c.15-1.23.3-2.46.46-3.73a4.28,4.28,0,0,1,.78,2.84C70,58.27,69.36,56.34,69,57.23Z"/><path d="M82.64,45.15c0,1.92-.34,2.59-1.19,2.78C81.52,45,81.5,44.75,82.64,45.15Z"/><path d="M48.51,45.73c.1,1.57-.48,1.65-.55,2.89-.64-.53-.56-2.17-.7-3.68C48.67,45.67,48.53,45.54,48.51,45.73Z"/><path d="M77.09-167.79c0,.6-.1,1.3-.15,1.89l-1.62,1.14A2.87,2.87,0,0,1,77.09-167.79Z"/><path d="M58.21,44.68c.33-.58.56-1,.86-1.52.23.81.46,1.58.76,2.56C59.15,46.36,58.66,46.39,58.21,44.68Z"/><path d="M61.4,79.74c.3-1.17.55-2.2.85-3.43a14,14,0,0,1,.37,1.49c.27,1.89-.27,1.93-1,2.28C61.62,80.09,61.59,80,61.4,79.74Z"/><path d="M75.16-117.57c.1.87.19,1.62.28,2.44-.57.94-1-.11-1.47-.38C73.94-116.33,73.77-115.91,75.16-117.57Z"/><path d="M31.77-87.95c.32.37,1.72,1.38,1,3-.22.47-.46.82-.64,1.16C32-85.15,31.92-86.29,31.77-87.95Z"/><path d="M54.46-23.41c-.48.2-.9.76-1.2-.84.31-.95.59-2,1.18-1.59C54.44-25.09,54.45-24.3,54.46-23.41Z"/><path d="M8.64-13.51a6.21,6.21,0,0,1-.84-3.63c.12-.88.39-.93,1-.1A6.38,6.38,0,0,0,8.64-13.51Z"/><path d="M89.49-70.13l-.19-4.93c.19,0,.33-.13.34,0C89.79-74,90-73,90-71.84,90.08-70.91,90-69.89,89.49-70.13Z"/><path d="M59-94.25c.22-.46.48-1,.93-2-.36,2.23.28,2.76.34,4.32C59.22-92,59.52-91.53,59-94.25Z"/><path d="M56.72-79.57c-.39,2.65-.94.81-1.38,2.25C55.71-87.5,55.17-78.13,56.72-79.57Z"/><path d="M66.55-226.47c-.12-2.45,0-2.76,1.24-2.19C68-227,67.76-227.23,66.55-226.47Z"/><path d="M86.82-78.45c.38-1.27.67-2.27,1-3.41a5.46,5.46,0,0,1,.11,2.79C87.67-77.74,87.28-78,86.82-78.45Z"/><path d="M54.38-148.83c-.31.84-.62,1.67-1,2.62-.19-1-.38-2-.62-3.23Z"/><path d="M-20.51-61c.42-.73.73-1.82,1.3-.6a9.64,9.64,0,0,1-.42,2C-20-59.13-20.21-60.21-20.51-61Z"/><path d="M49.42,27.31c-1-.67-1.33-2.35-1-4.91C48.73,24,49,25.44,49.42,27.31Z"/><path d="M13.88,103.51c1.22-1,1.49,1.6,1.31,2.37C14.94,106.89,14.64,105.62,13.88,103.51Z"/><path d="M21.84-98.86a15.14,15.14,0,0,0-.77-4.44,10.59,10.59,0,0,1,0-1.57c.14.22.35.33.42.7.2,1,.31,2.19.5,3.21A3.29,3.29,0,0,1,21.84-98.86Z"/><path d="M49.56,41.94c.19,1,.35,1.79.5,2.61-.62-.64-1,1.53-1.54,1.18C48.51,45.82,48.38,46.12,49.56,41.94Z"/><path d="M19-13.53c0,2.08.07,3.67.1,5.28C18.29-9.57,18.21-11,19-13.53Z"/><path d="M61.94-63.22l.39-1.17a9,9,0,0,1,.39,4.73A24.48,24.48,0,0,0,61.94-63.22Z"/><path d="M77.83-107.31c.16.22.37.76.47.6.58-1,.78.24,1,1.58C78.5-104.29,78.37-104.46,77.83-107.31Z"/><path d="M45.47-176.47c0-1.52-.34-2.79,0-4.11C46.27-177.83,46.28-177.16,45.47-176.47Z"/><path d="M63.88-143.63A4.65,4.65,0,0,1,64-147l1,2.17C64.67-143,64.09-145.82,63.88-143.63Z"/><path d="M40.66,27.46c.69-1,.8,1.86,1,4.44C41.13,32.68,41.16,31.74,40.66,27.46Z"/><path d="M74.72-84.81c-.32,1.3-.63,2.62-1.34,2.36.22-1,.42-2,.66-3.07C74.8-84.67,74.72-84.73,74.72-84.81Z"/><path d="M58.22-29.74c0,1.54,0,2.85-.08,4.22-.47-.57-.57-1.17-.53-2.95C57.63-29.4,57.63-29.4,58.22-29.74Z"/><path d="M42.86-147.18a5.07,5.07,0,0,0-.12-2.82c0,.05,0,.14.2-1L44-148.2C43.52-147.82,43.28-146.71,42.86-147.18Z"/><path d="M74.72-131.76l.61,1.26c-.19.83-.38,1.66-.56,2.49C74.28-129.62,74.28-129.62,74.72-131.76Z"/><path d="M96.22-42.75c.61,2.16.4,2.22-.68,3.56C95.37-39.8,95.29-39.17,96.22-42.75Z"/><path d="M50.57-90.52c.24.7.43,1.25.6,1.76C51-86.2,51-86.2,50.46-86.51,50.49-87.71,50.52-88.91,50.57-90.52Z"/><path d="M59.26-23c-.31-.53-.51-.88-.73-1.24.15-1.48.37-2.14.9-1.74Z"/><path d="M47.81-183.42c-.24,2.37-.73,2.51-1.26,2.48C46.87-182.09,47.12-183.6,47.81-183.42Z"/><path d="M66.56-224.38l.53-1.79c.24.76.41,1.33.67,2.17C66.34-223.23,66.57-223,66.56-224.38Z"/><path d="M26.3,108.51c.58,2.52.55,2.82-.32,4.2a12.59,12.59,0,0,0,.13-2A4.32,4.32,0,0,1,26.3,108.51Z"/><path d="M3.82,23.84c-.31-2.5.83-3.89.89-.6Z"/><path d="M46.6-83.31c.68-.36.68-.36,1,1.54C47-81.28,47-81.3,46.6-83.31Z"/><path d="M49.05,30.26c.65.49,1.1-2,1.74.34-.44-.07-.79-.4-1,.92C49.65,32.16,49.34,31.62,49.05,30.26Z"/><path d="M64.86-61.29c.37-.42.62-2.3,1.28-1C65.66-61.4,65.36-60.14,64.86-61.29Z"/><path d="M60.93-144.25c.11,1.08.16,1.55.24,2.31-.87.24-.61.34-.91-.72Z"/><path d="M4,12.53c-.48-2.39-.4-3.24.38-4.39C4.38,8.1,4.43,7.62,4,12.53Z"/><path d="M56.15,68.8c.44-1.57.8-1,1.18,1.37C57.19,70.84,57.39,71,56.15,68.8Z"/><path d="M67.48-213.38c-.81-2.18-.73-1.42-.49-3.37C67.55-216.3,67.72-215.31,67.48-213.38Z"/><path d="M78.19-93.43c0-1.25-.09-2.23-.14-3.4C78.78-95.94,78.81-95.27,78.19-93.43Z"/><path d="M51.15-93.46c-.12,1.09.15.53-.95,2.19l-.09-.19c-.06-1.74,0-2.43.46-3,0-.06,0-.4,0,1.43C50.9-93.91,50.77-93.83,51.15-93.46Z"/><path d="M42.29-113.54c-.16.52-.3,1-.44,1.48-.42-1-.42-1-.41-2.77C41.71-114.41,42-114,42.29-113.54Z"/><path d="M46.17,56.14c-.46-1.76.14-2.32.29-3.34A4.68,4.68,0,0,1,46.17,56.14Z"/><path d="M66.38-216.81l-.82.29c0-1.59-.15-1,.28-2.34Z"/><path d="M58.61-103.39l.75-.42a4.63,4.63,0,0,1-.53,2.64C58.75-102,58.69-102.55,58.61-103.39Z"/><path d="M-4.62,167.38c0-.91.08-1.64.13-2.51l.57.35C-3.87,167-4.14,167.4-4.62,167.38Z"/><path d="M43.31-170.91c.47,0,.77.54.84,2C43.59-168.37,43.59-168.37,43.31-170.91Z"/><path d="M72.45-140.2c-.16-.93-.28-1.67-.43-2.53.35-.59.58-.22.76.66C72.88-141.55,72.86-141.47,72.45-140.2Z"/><path d="M77.55-82.25l-.81-.39C76.86-84.8,77.92-84.62,77.55-82.25Z"/><path d="M43.9,30c0-.73,0-1.5.08-2.19,0-.3.27-.68.35-.57a3,3,0,0,1,.19,1.13c-.12.7-.32,1.26-.48,1.87Z"/><path d="M58.07-82.26l-.9,1.6c0-1,0-1.65,0-2.64Z"/><path d="M46.2-152c.15,1.17.26,2,.37,2.81-.32.27-.09.48-.89-.82C45.83-150.64,46-151.18,46.2-152Z"/><path d="M44.67-156c-.09-.79-.14-1.34-.21-2,.49-1.15.68.8,1,1Z"/><path d="M78.66-98.08c-.53-.6-.32-1.61-.28-2.77l.57.6C78.84-99.45,78.76-98.79,78.66-98.08Z"/><path d="M86.45-81.42c-.22,1.17-.35,2.08-.78,1.86a3.33,3.33,0,0,1,.25-2.19C86-81.91,86.23-81.58,86.45-81.42Z"/><path d="M83.92-90.3c.84-1.33,1.07.63.91,1.25s-.43-.09-.93-1.26Z"/><path d="M38.7-146.78c-.36-.93-1,.9-1.21-1.37C37.85-147.08,38.45-148.95,38.7-146.78Z"/><path d="M54-142.3a3.08,3.08,0,0,1,.75,2.75C54.33-139.79,54.18-140.69,54-142.3Z"/><path d="M54.31-104.34l.71,1c-.17.77-.29,1.29-.46,2C54.13-104.14,54.15-103.61,54.31-104.34Z"/><path d="M29.58-80.61c-.19,1.06-.39,2.11-.62,3.37A3.88,3.88,0,0,1,29.58-80.61Z"/><path d="M66.94-71.84l-.69-.46,0-1.92C66.75-74.12,66.74-73.06,66.94-71.84Z"/><path d="M59.93-84.77c-.27-.55-.54-1.1-.81-1.67C59.56-87.46,59.72-87.25,59.93-84.77Z"/><path d="M52.24-146.73c0-.84-.06-1.55-.12-2.78l.9,1.4Z"/><path d="M64.12-169.7c-.54.44-.75-.13-.82-1.64C63.73-171.59,64-171.28,64.12-169.7Z"/><path d="M6.44-48.16a6.1,6.1,0,0,1-.13-3.19A5,5,0,0,1,6.44-48.16Z"/><path d="M43.82-111c-.21.75-.36,1.31-.51,1.83-.32-.24-.39-.82-.27-1.55C43.2-111.68,43.44-111.74,43.82-111Z"/><path d="M75.75-111.38c-.08,1.9-.6,2-.89,3.19C74.71-110.1,74.58-109.53,75.75-111.38Z"/><path d="M10-18c-.34,1.06-.34,1.06-.86-.12C9.57-19,9.57-19,10-18Z"/><path d="M83.23,39.81c-.68.27-.32,2.15-.57,3.81-.16-1.4-.24-2.14-.34-3C83.19,39.11,83,39.19,83.23,39.81Z"/><path d="M45.65-77l-1,.34C44.57-78.3,45.36-79.28,45.65-77Z"/><path d="M-10.23,137.26a5.31,5.31,0,0,1,0-.62c.19-.61.41-1.19.68-.61S-9.59,138.85-10.23,137.26Z"/><path d="M68.62,50.34a11.14,11.14,0,0,1-.49,3.6l-.38-.5A29.34,29.34,0,0,0,68.62,50.34Z"/><path d="M18.71,117.88c.45,2,.4,2.8-.18,3.74C18.67,119.23,18.61,120.25,18.71,117.88Z"/><path d="M43.94-174.9c.35.26.82-1.39,1,1C44.57-174,44.17-173.21,43.94-174.9Z"/><path d="M39.81-133.24l.72,1.19c0,.93-.16,1.32-.41,1.07S39.73-131.95,39.81-133.24Z"/><path d="M67.58,61.65c-.51-1.78-.5-2,.17-3.52C67.69,59.34,67.64,60.44,67.58,61.65Z"/><path d="M8.67-4c.48-1.76.5-1.75.77.25Z"/><path d="M49.44-97.9c-.45.81-.74,0-1.1-1.11C49.34-99.93,49.36-97.58,49.44-97.9Z"/><path d="M62-66.28l.74-2.3a8.64,8.64,0,0,1,.05,1.45C62.58-66.34,62.36-65.74,62-66.28Z"/><path d="M68.27,64c-.27.48-.48.87-.78,1.39.05-1.3.14-2.21.53-2.33C68.09,63.06,68.17,63.61,68.27,64Z"/><path d="M59.43,38.94c0-2.12,0-2.12.54-2.19C59.83,37.65,60,39,59.43,38.94Z"/><path d="M56.64,18.66l-.5,0c-.13-.91-.08-1.55.2-1.64S56.72,17.59,56.64,18.66Z"/><path d="M50.87-83.5c-.37-.22-.68-.12-.82-.56a1.81,1.81,0,0,1,.22-1.53C50.43-85,50.59-84.49,50.87-83.5Z"/><path d="M50-96.49l-.87.94c.14-1.2.21-1.78.28-2.35v0C50.08-96.31,50-96.4,50-96.49Z"/><path d="M68.47-87.4c0,.9,0,1.53.07,2.17-.25.09-.12.46-.51-1.51C68.16-86.93,68.29-87.12,68.47-87.4Z"/><path d="M61.33-91.93c.36.23.68.66.66,2.45C61.09-91.65,61.17-91.17,61.33-91.93Z"/><path d="M6,86.25c-.77,0-.47-2.43-.21-2.21S6.08,85.26,6,86.25Z"/><path d="M85-88.68c0,2.54,0,2.58-.71,3C84.53-86.73,84.71-87.49,85-88.68Z"/><path d="M78.72-109c-.72.11-.73.08-.73-2.21C78.23-110.49,78.43-109.88,78.72-109Z"/><path d="M48.11-82.31c.38-2,.38-2,1-.53Z"/><path d="M48-145.43c.2-2.13.2-2.13.78-1.11Z"/><path d="M57.47-33.06c.57-.48.57-.48.56,2.14Z"/><path d="M34.36-91.55c-.4-.32-.58-.79-.42-2.06C34.27-93.44,34.45-93,34.36-91.55Z"/><path d="M9.25-9.91,9.32-12c.14.18.27.21.32.42C9.9-10.52,9.61-10.17,9.25-9.91Z"/><path d="M78.23-167.86c-.53-.21-.39-1.38-.54-2.4C78.22-170.08,78.27-169.21,78.23-167.86Z"/><path d="M8.85-10.76c0,2.41.09,2-.36,1.91C8.58-11.2,8.49-10.82,8.85-10.76Z"/><path d="M49-13.93a5.55,5.55,0,0,1-.32-3.46C48.94-17.31,48.87-17.84,49-13.93Z"/><path d="M59.54,3.06c0,1.52,0,2.4-.47,2.48A2.74,2.74,0,0,1,59.54,3.06Z"/><path d="M78.38-89.53c-.16.55-.33,1.09-.58,1.94C77.7-89.39,77.75-90.25,78.38-89.53Z"/><path d="M42.55,9.75c-.4-.89-.07-2-.14-3.09C43.28,8.14,42.41,9.67,42.55,9.75Z"/><path d="M38-155.46a3.23,3.23,0,0,1-.64-2.8C37.51-157.5,37.68-156.74,38-155.46Z"/><path d="M63-74.06l.86,1.78C63.33-71.8,63.33-71.8,63-74.06Z"/><path d="M51.15-174c-.32,1.33-.58.76-.89,0C50.59-174.89,50.85-174.65,51.15-174Z"/><path d="M-5.83-73.6c.2-1,.42-.92.81.29C-5.92-72.79-5.77-72.65-5.83-73.6Z"/><path d="M70.39,52.48c-.73-1.07-.73-1.07-.48-2.51C70.27,50.23,70.26,51.21,70.39,52.48Z"/><path d="M62-99.16A5.45,5.45,0,0,1,62.05-96,6.79,6.79,0,0,1,62-99.16Z"/><path d="M7.54-119.95c-.23-1.46-.45-2.37-.11-3.14C7.72-122.82,7.68-123.33,7.54-119.95Z"/><path d="M68.78,59.73c.13,1.7-.09,1.94-.49,1.61C68.43,60.87,68.58,60.41,68.78,59.73Z"/><path d="M67.22-58.61c.18-.84.3-1.39.41-1.89.08.06.15.06.16.13C67.92-59.12,67.86-58.31,67.22-58.61Z"/><path d="M34.14,121.82l.91,1.13C34.52,123.88,34.52,123.88,34.14,121.82Z"/><path d="M65.24-216.6c-.4-.31-.62-.75-.61-2.18C65.07-218.71,65.19-218,65.24-216.6Z"/><path d="M53.81,34.23c-.33-.44-.48-.53-.57-.83a3,3,0,0,1,.12-1c.13-.07.31,0,.4.31A10.51,10.51,0,0,1,53.81,34.23Z"/><path d="M65.32-71.21c-.68-.85-.68-.85-.24-2.57C65.17-72.86,65.23-72.17,65.32-71.21Z"/><path d="M59.12-62.61c.53,1,.51.4.3,2.14C59-61,59.08-60.4,59.12-62.61Z"/><path d="M24.41,95.68l.51.95c-.1.56.08.42-.79.57C24.23,96.65,24.31,96.21,24.41,95.68Z"/><path d="M6.56,7.78c.2.8.32,1.3.55,2.23-.32-.18-.5-.15-.63-.38C6.16,9.06,6.39,8.58,6.56,7.78Z"/><path d="M86.57-117.45c-.59,0-.82-.44-.83-1.62C86-119.77,85.78-120,86.57-117.45Z"/><path d="M3.31-35.66c-.54,1.6-.54,1.6-.83-.31Z"/><path d="M4.4,8.14c.19-1.24.15-1.56.58-1.7A1.67,1.67,0,0,1,5.09,7a4.09,4.09,0,0,1-.3,1C4.66,8.21,4.35,8.05,4.4,8.14Z"/><path d="M57.22-116.76c.14,1.82-.22,1.91-.46,2.32C56.56-115,56.48-114.49,57.22-116.76Z"/><path d="M-5.8-99.43c.43.56.38.15.14,1.91C-6-98-6-97.5-5.8-99.43Z"/><path d="M69.18-129.8c-.16,1.19-.25,1.84-.39,2.91C68.6-128.38,68.58-129.18,69.18-129.8Z"/><path d="M70.7,55.09c.45-1.3.61-.48.84.9Z"/><path d="M66.15,56.78c.08.86.21,1.82-.41,1.93C66,56.18,65.9,56.52,66.15,56.78Z"/><path d="M73.25-108c.44.46.25,0,.68,1.54C73.48-105.86,73.36-106.55,73.25-108Z"/><path d="M53.41-94.92c.22.68.34,1.07.47,1.49C53.44-92.79,53.44-92.79,53.41-94.92Z"/><path d="M51-181.28c-.31,1.49-.54,1.22-.79.23Z"/><path d="M57.42-111c-.18,1.41-.42,2-.81.79Z"/><path d="M7.54-.25l.68.51L7.71,2.41Z"/><path d="M12.9,107.78c0-1.93.36-1.6.68-1.21Z"/><path d="M45.44-104.68c.43,2.55.52,2.21-.18,1.46C45.47-104.83,45.46-104.66,45.44-104.68Z"/><path d="M46.53-106c.4-.25.51.46.54,1.72C46.6-104.3,46.58-106.49,46.53-106Z"/><path d="M39.48-79.72a5.43,5.43,0,0,1,.12,2.65C39.29-77.19,39.35-76.7,39.48-79.72Z"/><path d="M74.72-84.76c.48-2.4.36-2.13.54-1.7-.1.78,0,2-.54,1.65Z"/><path d="M81.59,14.36c0-1.15,0-1.72,0-2.34C81.94,12.67,81.94,12.67,81.59,14.36Z"/><path d="M60.41-115.7l-.64-.77C60-116.95,60.3-117.69,60.41-115.7Z"/><path d="M62.12,74c-.35-1.3-.37-.93,0-1.68C62.33,73.9,62.34,73.55,62.12,74Z"/><path d="M3.76,19.4c-.44,1.33-.75-.27-.58-.63C3.42,18.23,3.6,18.54,3.76,19.4Z"/><path d="M48.25-150.77l.73,1.18-.57.85C48.37-149.27,48.33-149.71,48.25-150.77Z"/><path d="M73.75-158.22c-.11-.35-.23-.68-.34-1.06a2.71,2.71,0,0,1,.15-.5,8.15,8.15,0,0,1,.37.78Z"/><path d="M30.16-82.54c-.21-.74-.32-1.1-.5-1.74l.63-.39C30.25-83.93,30.22-83.45,30.16-82.54Z"/><path d="M52.44-86.27c.4-.92.53-.46.65.42C52.8-85.43,53-85.26,52.44-86.27Z"/><path d="M80.21-99.47c-.18-.19-.36-.23-.38-.45a3.47,3.47,0,0,1,.07-1.1c.08-.2.24,0,.36,0C80.25-100.61,80.23-100.15,80.21-99.47Z"/><path d="M74.47-111.52l-.78-.47c.35-.53.53-.79.79-1.2C74.44-111.3,74.44-111.55,74.47-111.52Z"/><path d="M44.41-183.88c.76-1,.61-1,.7-.33C44.37-183.14,44.51-183.12,44.41-183.88Z"/><path d="M66.56-224.38c0,1.29.12.92-.53,1.51C66.09-224.27,66.29-224.51,66.56-224.38Z"/><path d="M50.08-171.88a2.28,2.28,0,0,1,.29,1.95c0,.16-.18.05-.27.07Z"/><path d="M13.22,10.53c-.21,1.25-.09,1.05-.45.87C12.91,10,12.81,10.33,13.22,10.53Z"/><path d="M52.92-54.68c-.18-.19-.31-.21-.34-.4a3.08,3.08,0,0,1,0-.91c0-.15.24-.18.26-.06C52.9-55.75,52.89-55.34,52.92-54.68Z"/><path d="M83.92-88.21c-.1-.06-.24,0-.28-.21-.19-.87.13-1.13.22-1.68S83.93-89.28,83.92-88.21Z"/><path d="M31.09-155.82c-.28,1.5-.14,1.31-.52,1.19C30.53-155.35,30.43-155.07,31.09-155.82Z"/><path d="M53.61-12.84c-.31,1.24-.12,1.15-.69.79C53-13.13,52.85-13,53.61-12.84Z"/><path d="M38,16l-.59-.19C37.63,14.69,37.81,14.86,38,16Z"/><path d="M11.77,63.62c0,.87.05,1.44.07,2.15-.11,0-.19,0-.23-.12A2.37,2.37,0,0,1,11.77,63.62Z"/><path d="M41.39,16.08c.1-1.85.1-1.85.59-1.45C41.84,16.14,41.19,16,41.39,16.08Z"/><path d="M40.09,46.42c-.08.73-.05,1.56-.45.82a3.34,3.34,0,0,1,0-.83C39.79,46.28,39.92,46.4,40.09,46.42Z"/><path d="M27.59-150.14c.25-.2.17-.48.35,1.09C27.64-148.73,27.73-148.53,27.59-150.14Z"/><path d="M50.41,40.44c0,1.58-.15,1.83-.37,2C49.83,41.76,49.78,42.2,50.41,40.44Z"/><path d="M25.65,94.28c-.33,1.1-.17,1.13-.6.4C25.26,93.82,25.1,93.86,25.65,94.28Z"/><path d="M61.72,32.13c.22-1.2.38-1.3.69-.14Z"/><path d="M24,101.82c-.24.41-.43.76-.68,1.2C23.36,101.32,23.64,101.57,24,101.82Z"/><path d="M66.73,63.44c.27,1.58.29,1.2,0,1.76C66.44,63.58,66.42,64,66.73,63.44Z"/><path d="M90.76,21.63c-.14,1.19,0,1.07-.45.88C90.36,21.15,90.27,21.39,90.76,21.63Z"/><path d="M62.74,74.51l.79.36C63.13,76,63.13,76,62.74,74.51Z"/><path d="M12.45,167.94c.24-.17.46-.83.86.19C12.35,168.57,12.51,168.69,12.45,167.94Z"/><path d="M53.67-183.73c-.46.45-.36.48-.44-.34C53.7-184.52,53.61-184.63,53.67-183.73Z"/><path d="M48.08-154c-.52.52-.59-.09-.56-1.41C47.71-154.88,47.84-154.55,48.08-154Z"/><path d="M42.81-114.93c.48.52.36,1.17.08,2.08A3.74,3.74,0,0,1,42.81-114.93Z"/><path d="M30.72-90.73c-.39,1.42-.55.92-.78-.26Z"/><path d="M45.62-99.59c-.09.56-.18,1.13-.34,2.1C45.1-99,45.28-99.44,45.62-99.59Z"/><path d="M53.48,37.71l.16-2C53.87,36.87,53.87,36.87,53.48,37.71Z"/><path d="M11.4-18.38c-.3.75-.48.65-.65-.27C11-19.42,11.18-19.11,11.4-18.38Z"/><path d="M51.65-86c-.25,1.13-.25,1.13-.56.11Z"/><path d="M38.91-48.17c-.11.29-.23.61-.35.86a2.87,2.87,0,0,1-.14-.44c.09-.38.2-.73.3-1.08C38.78-48.61,38.85-48.39,38.91-48.17Z"/><path d="M74.45-111.54c.57,2.76.44,2.25-.51,1C74.55-111.66,74.48-111.51,74.45-111.54Z"/><path d="M71.58-98.44,72-96.17C71.44-96.44,71.62-97.61,71.58-98.44Z"/><path d="M88.17,22.09l-.67,1.19C87.67,21.67,87.94,22,88.17,22.09Z"/><path d="M41.86-71.87c0-1.24-.11-.86.5-1.44C42.45-72.48,42.54-72.81,41.86-71.87Z"/><path d="M40.5-96.51c-.47.6-.4.92-.27-1.23.15,0,.09-.27.26,1.27Z"/><path d="M20.22-112.41a5.63,5.63,0,0,1-.25.9c0,.1-.21-.1-.25-.3a2.79,2.79,0,0,1,0-.82c0-.16.17-.1.26-.13Z"/><path d="M10.7-40.92c-.34-1.18-.3-.86-.12-1.45C10.93-41.12,10.91-41.43,10.7-40.92Z"/><path d="M85.74,15.92c-.34,1.22-.18,1.15-.63.78C85.24,15.53,85.1,15.83,85.74,15.92Z"/><path d="M3.06-85.48l.4-.57c0,.15.06.41.06.43C3.07-84.71,3.14-84.86,3.06-85.48Z"/><path d="M38.59-156.9c.1.81.18.5-.32,1.39C38.13-156.56,38.08-156.23,38.59-156.9Z"/><path d="M51.15-93.46c-.37-.37-.24-.15-.58-1,0,.09-.07.15.48-.55C51.09-94.51,51.12-94,51.15-93.46Z"/><path d="M42.94-95.3c.49-1.15.38-1.09.52-.55C43-94.52,43.13-94.59,42.94-95.3Z"/><path d="M52.39-88.75c.6.68.5.44.5,1.07C52.34-87.15,52.46-86.86,52.39-88.75Z"/><path d="M45.67-114.34c0-1.7-.1-1.41.27-1.41C45.87-114,45.93-114.29,45.67-114.34Z"/><path d="M-4.42,66.19a2.71,2.71,0,0,1,.28.46c-.12,1.47-.21,1-.41.79C-4.51,67.09-4.48,66.74-4.42,66.19Z"/><path d="M22.47,118a5.23,5.23,0,0,1-.18.89c-.11,0-.24-.18-.3-.44a4.67,4.67,0,0,1,.07-.89Z"/><path d="M49.67-80.4a4.15,4.15,0,0,1,0,2.19A2.62,2.62,0,0,1,49.67-80.4Z"/><path d="M60,27.1c.41.44.37,0,.23,1.4C59.91,28.06,60,28.41,60,27.1Z"/><path d="M51.28,40.28c.37-1.64.26-1.48.5-.91C51.4,41,51.51,40.83,51.28,40.28Z"/><path d="M53-18.73c-.15,0-.33.2-.45,0s0-.88.22-.88S53.05-19.78,53-18.73Z"/><path d="M49-140.65c-.09,1.7-.09,1.7-.62,1.38C49.11-140.78,49.05-140.62,49-140.65Z"/><path d="M41.06-127.11c-.09,1-.16,1.68-.27,2.86C40.57-125.74,40.62-126.43,41.06-127.11Z"/><path d="M49.42-141.31c0,.56,0,.4-.39.66C49-141.88,48.68-142.09,49.42-141.31Z"/><path d="M43.6-132.09c.22.43.24.06,0,1.64C43.37-130.8,43.38-130.46,43.6-132.09Z"/><path d="M98.64-49.15c-.15.77-.13,1.34-.5.37a2.38,2.38,0,0,1,.11-.73C98.35-49.52,98.47-49.33,98.64-49.15Z"/><path d="M41.05-128.06c-.09-1.36-.13-1.06.22-1.2C41.22-127.84,41.28-128.08,41.05-128.06Z"/><path d="M49.2-116.88a5.59,5.59,0,0,1,.46,2.24C48.94-116,49-115.45,49.2-116.88Z"/><path d="M2.4,87.25c-.18,1.22,0,1.12-.48.81C2.09,87,2,87.24,2.4,87.25Z"/><path d="M3.41,15.76c.12.77.19.51-.23,1.24C3.05,16.3,3,16.58,3.41,15.76Z"/><path d="M13.7,99c-.24,1.78-.13,1.41-.47,1.19C13.34,98.84,13.25,99.22,13.7,99Z"/><path d="M52-90.28c.15.1.28.08.33.26a2.38,2.38,0,0,1,0,.8c-.06.13-.21.1-.26,0A6.5,6.5,0,0,1,52-90.28Z"/><path d="M29.63-67c-.25,1.08-.12,1-.48.6C29.3-67.53,29.18-67.34,29.63-67Z"/><path d="M46.85,12.88c0-2.27,0-1.94.21-1.86C47,13.27,47,13,46.85,12.88Z"/><path d="M52.06,94.74a2.32,2.32,0,0,1-.42-1.83C51.92,92.75,51.82,92.39,52.06,94.74Z"/><path d="M13.77,1.55c0,.66-.08,1.17-.12,1.7-.09-.12-.16-.13-.18-.24C13.31,2.16,13.35,1.62,13.77,1.55Z"/><path d="M46.12-181.31c-.46-.55-.4-.39-.4-.84.27-.13.16-.32.46.49Z"/><path d="M19.92,116.12c.12-.27.23-.55.35-.8a1.41,1.41,0,0,1,.1.31c-.08.39-.16.76-.25,1.14C20.06,116.55,20,116.34,19.92,116.12Z"/><path d="M46.85,48.89c.5.68.43.44.34,1.06C46.71,49.17,46.77,49.41,46.85,48.89Z"/><path d="M76.08-130.43c-.44.79-.35.75-.43.43C76-131.2,75.94-131.14,76.08-130.43Z"/><path d="M31.48,114c.07-.38.14-.77.22-1.14,0,0,.13.15.13.17C31.67,114.65,31.72,114.41,31.48,114Z"/><path d="M61.81,74.77c.4.23.34-.15.28,1.25C61.7,75.75,61.8,76,61.81,74.77Z"/><path d="M60.53,78.63c0-.42.06-.83.1-1.24,0,0,.14,0,.14,0C60.76,79.05,60.78,78.79,60.53,78.63Z"/><path d="M8.89-44.16A3.34,3.34,0,0,1,9-44.77c.13-.24.29-.39.48-.29C8.89-43.62,9-43.74,8.89-44.16Z"/><path d="M31.32-103.67a4.72,4.72,0,0,1-.38-.39l0-.43C31.46-104.3,31.38-104.37,31.32-103.67Z"/><path d="M42.14-125.25c.17-.65.08-.73.42.16C42.42-124.39,42.51-124.39,42.14-125.25Z"/><path d="M70,64.38c-.32,1.16-.24,1.05-.38.66C69.89,63.9,69.8,64,70,64.38Z"/><path d="M39.73-123.63c0-.46,0-.86-.09-1.39C39.92-124.5,39.92-124.5,39.73-123.63Z"/><path d="M27.45-107.36c-.19,1.1-.07,1-.45.76C27.11-107.65,27-107.47,27.45-107.36Z"/><path d="M35.11-71.07c.2.41.15,0,.22,1.33C34.87-70,35-70.3,35.11-71.07Z"/><path d="M51.49-66.28c.08.36.17.72.25,1.08,0,.09-.11.28-.12.26C51.25-66.08,51.32-65.9,51.49-66.28Z"/><path d="M58.32-173c-.18,1.31,0,1.16-.44,1C58-173,57.86-172.78,58.32-173Z"/><path d="M13.1,4.93c-.28,1-.17.78-.42.58C12.89,4.26,12.8,4.45,13.1,4.93Z"/><path d="M50-96.45l.72-1.62C50.53-95.53,50-96.73,50-96.45Z"/><path d="M55-207.06c.45.54.37.18.31,1.29C55.1-206,55.17-205.63,55-207.06Z"/><path d="M74.65-100.45a2.17,2.17,0,0,1,.27,1.89C74.46-99.13,74.72-100.44,74.65-100.45Z"/><path d="M17.49-115.33c-.28.89-.16.93-.49.31C17.17-115.87,17.05-115.83,17.49-115.33Z"/><path d="M36.1-151.57l-.33.26,0-.47C36.12-152.15,36.06-152.06,36.1-151.57Z"/><path d="M21.18-125.3c-.1.91,0,.83-.35.49C20.94-125.59,20.85-125.49,21.18-125.3Z"/><path d="M11.75-111.22c-.22,1.2-.07,1.14-.5.72C11.42-111.49,11.29-111.29,11.75-111.22Z"/><path d="M3-97.15c.38,1,.31.54.21,1.59C2.83-96.16,2.91-95.82,3-97.15Z"/><path d="M68.49-78.36c-.53-.75-.43-.35-.43-1.53C68.25-80.07,68.16-80.31,68.49-78.36Z"/><path d="M67.26-76.22c-.14-.17-.26-.19-.29-.37a2.58,2.58,0,0,1,0-.81c0-.13.21-.09.25.08A6.33,6.33,0,0,1,67.26-76.22Z"/><path d="M-16.56,72.08c.11,1,.17,1.55.27,2.53A3.12,3.12,0,0,1-16.56,72.08Z"/><path d="M65.94-66.34c.39-.7.31-.66.39-.27C66-65.78,66.05-65.81,65.94-66.34Z"/><path d="M38.82-15.57c-.09-.12-.19-.17-.21-.3a2.56,2.56,0,0,1,0-.66c0-.09.18,0,.2.14A5.45,5.45,0,0,1,38.82-15.57Z"/><path d="M59.84-53.39c-.1.46-.15.81-.23,1.08,0,.06-.19-.22-.18-.24C59.55-54,59.56-53.59,59.84-53.39Z"/><path d="M72-73.87c.19,1.76.21,1.41,0,1.69C71.74-74,71.73-73.64,72-73.87Z"/><path d="M56.73-45l-.26-.22c0-.29.05-.6.09-.87,0-.06.13,0,.14,0C56.72-45.81,56.72-45.5,56.73-45Z"/><path d="M10.32-114.35c-.45.13-.54-.4-.55-1.21C10-116.06,9.86-116.28,10.32-114.35Z"/><path d="M87.18-82.89c-.54-.72-.47-.47-.43-1,.45.1.31,0,.51.71Z"/><path d="M30.3-73.35c-.05.38-.08.68-.13.88,0,0-.32,0-.14-1C30-73.56,30.17-73.43,30.3-73.35Z"/><path d="M50-89.85c-.11-.72-.17-1.13-.27-1.8C50.32-91.35,50.25-91.61,50-89.85Z"/><path d="M49.7-101.15c.13.83,0,1.23-.33,1.46C49.56-101.55,49.47-101.29,49.7-101.15Z"/><path d="M36.47,18.2c-.26,1.46-.18,1.3-.38.92C36.36,17.68,36.28,17.84,36.47,18.2Z"/><path d="M5,77.21c-.42-.45-.38-.07-.31-1.31C5.1,76.14,5,75.89,5,77.21Z"/><path d="M44.58-79.92c-.19,1.28-.07,1.2-.44.84C44.23-79.91,44.11-79.72,44.58-79.92Z"/><path d="M40.49-96.47c.55.22.33,1.43.14,1.33C40.24-95.37,40.57-96.86,40.49-96.47Z"/><path d="M2.48-26.85c-.2-1.84-.21-1.48,0-1.74C2.75-26.86,2.75-27.23,2.48-26.85Z"/><path d="M51.39,31.43c.45-.95.35-.93.48-.38C51.4,32.19,51.51,32.15,51.39,31.43Z"/><path d="M-19.7,11.11c.1-.48.19-1.52.43-.42a1.83,1.83,0,0,1-.08.62C-19.43,11.35-19.53,11.22-19.7,11.11Z"/><path d="M-26.55-52.41c-.28,1.16-.43,1-.65-.21Z"/><path d="M46.27,60.74c-.4,1.89-.31,1.69-.48,1.49C45.85,60.84,45.76,61.3,46.27,60.74Z"/><path d="M68.42-165.47c-.13-1.41-.16-1.16,0-1.31C68.55-165.33,68.57-165.6,68.42-165.47Z"/><path d="M44.82-124c0,.35-.1.63-.14.9-.18-.35-.32-.21-.08-1.24C44.61-124.39,44.72-124.17,44.82-124Z"/><path d="M55-85.62l.49-1.27C55.5-85.75,55.5-85.75,55-85.62Z"/><path d="M52.66-143.16c0,.34.09.67.13,1a.62.62,0,0,1-.11.17C52.45-143,52.49-142.83,52.66-143.16Z"/><path d="M29.34-104l.25.31a6.36,6.36,0,0,1-.12.83c0,.07-.18-.09-.18-.15A9.59,9.59,0,0,1,29.34-104Z"/><path d="M41.13-58.3c-.23,1-.17.87-.31.55C41.05-58.74,41-58.65,41.13-58.3Z"/><path d="M7.22,6.74c-.18.77-.06.78-.41.25C7.05,6.29,7,6.43,7.22,6.74Z"/><path d="M10.52,94.81a2,2,0,0,1,.26.44,2.34,2.34,0,0,1-.07.57c-.09,0-.18-.12-.27-.2S10.48,95.19,10.52,94.81Z"/><path d="M42.54,9.75a2.65,2.65,0,0,1,0,1.77A4.59,4.59,0,0,1,42.54,9.75Z"/><path d="M42.72,40.46c-.26,1.07-.15.95-.45.43C42.53,39.94,42.42,40.14,42.72,40.46Z"/><path d="M39.31,48.1a3.88,3.88,0,0,1-.1.73c-.05.07-.16,0-.19-.2a1.55,1.55,0,0,1,.06-.61C39.12,47.93,39.21,48.05,39.31,48.1Z"/><path d="M72.4-81.8a2.05,2.05,0,0,1,.27,1.38C72.39-80.57,72.47-80.26,72.4-81.8Z"/><path d="M80.86-95.36c-.18-.06-.14.22-.19-1.13C80.84-96.53,80.8-96.76,80.86-95.36Z"/><path d="M24.32,84.68l.23.25a2.91,2.91,0,0,1-.07.58c-.05.07-.15,0-.19-.16A3.48,3.48,0,0,1,24.32,84.68Z"/><path d="M72.28-148.19c-.12.91,0,.78-.31.67C72-148.44,72-148.21,72.28-148.19Z"/><path d="M73.53-86a4.15,4.15,0,0,1,.11-1.74,3.94,3.94,0,0,1,0,1.72Z"/><path d="M97.7-38c-.27-.22-.24,0-.22-.87C97.74-38.82,97.68-39,97.7-38Z"/><path d="M1.82-99l.24.1c0,.25,0,.54-.09.75s-.14,0-.18-.18A4.39,4.39,0,0,1,1.82-99Z"/><path d="M53.09,40.87c.1,1.27.13,1-.1,1.17C53,40.73,52.92,41,53.09,40.87Z"/><path d="M10.18,70.28c.45-.71.36-.69.43-.21C10.18,70.84,10.27,70.87,10.18,70.28Z"/><path d="M41.37,16.07a1.25,1.25,0,0,1,.1,1.12c0,.14-.16,0-.25,0C41.42,15.91,41.4,16.08,41.37,16.07Z"/><path d="M42.25,2.81c0,.92,0,.79-.29.72C42,2.7,42,2.89,42.25,2.81Z"/><path d="M5.53,32.21c-.3-.12-.27.12-.18-.93C5.63,31.55,5.56,31.37,5.53,32.21Z"/><path d="M29.07,99.23c-.39-.43-.32-.15-.24-1.18C29.18,98.48,29.1,98.21,29.07,99.23Z"/><path d="M57.89,46.67c0-.29.06-.59.11-.86,0,0,.13.08.13.11C58.1,47,58.1,46.81,57.89,46.67Z"/><path d="M81.39,9c0,1.42,0,1.2-.16,1.19C81.23,8.81,81.19,9.05,81.39,9Z"/><path d="M43-74.6c-.21,1-.14.85-.34.42C42.88-75.13,42.8-75.07,43-74.6Z"/><path d="M60,51.38c-.4-.51-.31-.29-.31-.9C60.16,51.06,60.11,50.84,60,51.38Z"/><path d="M79,22.29l.27.68C78.94,23.05,79,23.17,79,22.29Z"/><path d="M-3.3-77.44c-.3-.49-.27-.14-.15-1.24C-3.23-78.4-3.25-78.76-3.3-77.44Z"/><path d="M6.82-118.61l.21.45a3.44,3.44,0,0,1-.15.48c0,.05-.13-.11-.12-.15C6.76-118,6.79-118.27,6.82-118.61Z"/><path d="M61-106.88c.08-.27.15-.54.23-.79a2.74,2.74,0,0,1,.11.28C61.17-106.22,61.2-106.42,61-106.88Z"/><path d="M84.33,16.5s0,.43,0,.43a1.56,1.56,0,0,1-.39.15C84,16.26,83.88,16.28,84.33,16.5Z"/><path d="M81.86,21.37c.37.44.34.17.19,1.12C81.72,21.92,81.78,22.2,81.86,21.37Z"/><path d="M30.42-133.78c.28.47.24.2.18,1C30.32-133.11,30.39-132.9,30.42-133.78Z"/><path d="M3.9,94.31c-.26-.28-.23,0-.19-.93C4,93.57,3.91,93.33,3.9,94.31Z"/><path d="M57.33-104.85c.23,1.1.21.86.09,1.13C57.19-104.78,57.19-104.54,57.33-104.85Z"/><path d="M33.93,109.62c.39-.87.3-.84.42-.36C34,110.31,34.08,110.27,33.93,109.62Z"/><path d="M45.51-49.77l-.21-.35c.05-.24.1-.51.16-.69s.16.21.16.36A3.61,3.61,0,0,1,45.51-49.77Z"/><path d="M68.63,50.36c.28-1.16.21-1.1.33-.62C68.58,50.4,68.61,50.32,68.63,50.36Z"/><path d="M51.57-200.61l.38-.25c0,.16,0,.45,0,.46C51.54-200,51.61-200.07,51.57-200.61Z"/><path d="M17.81-32.17c-.16-.68-.21-.36.17-1.41C18.16-32.9,18.18-33.22,17.81-32.17Z"/><path d="M-12,50.08c-.39,1.33-.29,1.22-.46.69C-12,49.43-12.13,49.54-12,50.08Z"/><path d="M3.22-78.16a2.66,2.66,0,0,1,.34.51,3.58,3.58,0,0,1-.06.6C3.06-77.23,3.18-77.38,3.22-78.16Z"/><path d="M61.27,70.86c0,.36-.05.64-.09.81s-.17-.06-.18-.18a1.93,1.93,0,0,1,0-.69C61.06,70.7,61.17,70.83,61.27,70.86Z"/><path d="M28.58,130.07l.36-.27a3.35,3.35,0,0,1,0,.46C28.55,130.7,28.61,130.54,28.58,130.07Z"/><path d="M20.56-10.37c.3.23.26-.1.24,1.09C20.51-9.68,20.59-9.46,20.56-10.37Z"/><path d="M7.9,11.32a2.26,2.26,0,0,1,.24.6,2.08,2.08,0,0,1-.15.75c0,.08-.21-.17-.22-.33A6.81,6.81,0,0,1,7.9,11.32Z"/><path d="M56.59-168.82c-.18.77-.11.65-.3.2C56.5-169.3,56.42-169.21,56.59-168.82Z"/><path d="M30.38,129.12a2.88,2.88,0,0,1,.39.64,2.58,2.58,0,0,1-.07.59C30.33,130.39,30.41,129.77,30.38,129.12Z"/><path d="M11.48,4.64c.12-.16.25-.32.42-.56,0,.52,0,.91.08,1.79C11.43,4.45,11.49,4.56,11.48,4.64Z"/><path d="M67,66.21c0,.81.07.65-.29.64C66.73,66.28,66.65,66.43,67,66.21Z"/><path d="M25.35-110.21c.25.28.23,0,.17.95C25.2-109.52,25.25-109.31,25.35-110.21Z"/><path d="M94.29-58.46c-.24,1.22-.12,1.06-.44.94C94-58.6,93.92-58.29,94.29-58.46Z"/><path d="M5.68,11.25c-.13,1,0,.87-.39.8C5.34,11.27,5.22,11.42,5.68,11.25Z"/><path d="M12.83,33.85A2.52,2.52,0,0,1,13,35.61C12.67,35.22,12.76,35.63,12.83,33.85Z"/><path d="M27,64.2c-.15.77-.09.61-.25.44C26.84,63.83,26.78,64,27,64.2Z"/></g></mask></defs><g class="c"><path d="M72,71.77,0,72,0,.23,72,0Zm-70.37-5,68.75-.22V5.2L1.62,5.42Z"/><path d="M28.54,36.77h1.27l-.66-9.11ZM20.6,27.92h-.67v6.28h.34a1,1,0,0,0,.52-.15,1.28,1.28,0,0,0,.43-.48,3,3,0,0,0,.33-1A9.79,9.79,0,0,0,21.66,31a7.29,7.29,0,0,0-.28-2.26C21.19,28.2,20.93,27.92,20.6,27.92ZM3.21,10.7l0,51.15,65.54-.55,0-51.15ZM15.65,33.54H14.06L13.7,28H12.57v4.86H13.7v6.38H12.58v5.1h.86v6.44l-4.88,0V44.36h.88V28H8.54V21.69l7.1-.06ZM34.24,50.59l-4.6,0V44.19h.67c0-2-.13-2.94-.38-2.94H28.39c-.05,0-.08.07-.11.19a1.72,1.72,0,0,0,0,.39c0,.13,0,.32,0,.57s0,.72.06,1.15.1.65.18.65h.46v6.44l-3.75,0h-1.8l-.33-.05a1,1,0,0,1-.34-.11,1.42,1.42,0,0,1-.3-.24,1.1,1.1,0,0,1-.29-.38,6,6,0,0,1-.23-.57,4.3,4.3,0,0,1-.18-.8c0-.3-.09-.65-.12-1.07s0-.86,0-1.35V42.6c0-.7,0-1.29,0-1.76s-.07-.92-.14-1.35a2.44,2.44,0,0,0-.32-.94.63.63,0,0,0-.54-.3H20v6h.68V50.7l-4.51,0V44.3H17L17,28h-.86V21.63l5.66-.05A1.9,1.9,0,0,1,23,22a3.45,3.45,0,0,1,.92,1.37,9.66,9.66,0,0,1,.61,2.52,29.41,29.41,0,0,1,.21,3.79A14.49,14.49,0,0,1,24.2,34a3.81,3.81,0,0,1-1.48,2.26,3.23,3.23,0,0,1,1.19,1.69,8.88,8.88,0,0,1,.36,2.74v1.67c0,.35,0,.62,0,.83a2.29,2.29,0,0,0,.11.58.69.69,0,0,0,.28.39,1,1,0,0,0,.48.11.68.68,0,0,0,.42-.14,2.74,2.74,0,0,0,.62-1.71c0-.29.11-1.06.21-2.32l.95-12.18H26.19V21.55l5.54-.05,1.72,21.08c0,.37.06.65.08.84a3.35,3.35,0,0,0,.09.51c0,.15.09.22.15.22h.48Zm8.68-.08-1.53,0-.24-1.81c-.54,1.56-1.27,2.34-2.2,2.35a2.26,2.26,0,0,1-1.52-.62,5.53,5.53,0,0,1-1.31-1.85,15.38,15.38,0,0,1-1-3,29.52,29.52,0,0,1-.66-4.11c-.16-1.58-.24-3.29-.25-5.13a58.53,58.53,0,0,1,.29-6,35.58,35.58,0,0,1,.84-4.91,10.57,10.57,0,0,1,1.41-3.34,2.42,2.42,0,0,1,1.92-1.24c.76,0,1.38.53,1.86,1.62l.24-1.12H42.5V33.57H40.9q0-1.09-.09-1.86c0-.52-.09-1-.16-1.61a8.38,8.38,0,0,0-.28-1.36,2.36,2.36,0,0,0-.42-.84.77.77,0,0,0-.62-.32.86.86,0,0,0-.69.41,3.33,3.33,0,0,0-.49,1.16c-.12.5-.23,1-.31,1.62s-.14,1.25-.18,2-.07,1.46-.09,2.08,0,1.32,0,2.08q0,7.9,1.76,7.89c.29,0,.53-.26.74-.77A5.35,5.35,0,0,0,40.37,42c0-.62,0-1.11,0-1.45h-.89V35.08l3.48,0Zm5.69-22.82h-.82l0,16.33h.78v6.44l-4.8,0V44.07h.82V27.72h-.8V21.4l4.81,0Zm8,22.71-7.09.06V44h.8V27.68h-.82V21.37l4.84,0v6.31h-.86L53.5,44h1.06L55,37.7l1.59,0Zm7.63-.06-7.12.06V44H58V27.61h-.88V21.29l7.06-.06V33l-1.5,0-.42-5.41H61.09v5.05h1.15V39H61.1v5h1.22l.07-1.09L62.74,38h1.52Z"/></g><path d="M61.94,32.69c7.66,0,7.67-11.91,0-11.91s-7.68,11.91,0,11.91Z"/><path d="M59.5,21.33c-.55.09-1.11.2-1.66.33l6.72,8.74.23-.4-5.14,3a11.49,11.49,0,0,1,1.42-.12c4.69-.28,8.45-6.61,4.21-10.17a8.4,8.4,0,0,0-4.06-2.18L59.64,32.17l-1.94-.89L56,27.07c.48,6.6-1.2,13.29.08,19.88l1.53-5.79c1-1.21,3.64-.82.86-1.16a26.23,26.23,0,0,0-3.86.14c-2.12.06-4.24-.11-6.36-.13C43,40,37.84,40,32.66,40a104.58,104.58,0,0,0-14.16.51c-3.67.5-7.38.56-10.32,3-2.47,2.09-2.1,6.29,0,8.42l.18.18c3,3.07,9,1.81,10-2.62.81-3.76.15-7.67.73-11.44.32-2.07,1-3.65.75-5.85-.16-1.66-1.31-4.16-.7-5.72l-2.74,3.55c-1.67.44-1.6.55.23.35a1.6,1.6,0,0,1-1.15-1.1c.37,1.23.36,2.51.62,3.76a17.26,17.26,0,0,0,4,8.25c3.72,3.89,13.39,3.52,18.11,1.9,6.29-2.16,5.31-11.46-1.58-11.69a125.12,125.12,0,0,0-14.1.31c-7.54.6-7.77,12,0,11.91,8.52-.08,17,0,25.56,0,5.33,0,14.79,1.24,16.64-5.61,2-7.39-6.82-12.14-12.67-13a59.24,59.24,0,0,0-11.6-.53c-1.93.11-3.85.31-5.78.36q-1.44.06-2.88,0-2.86-.89-.43,3.58l-4.15,4.15c9.37-1.83,19.47-.22,29-.22,7.66,0,7.67-11.91,0-11.91-7,0-14-.33-21.09-.34-5.49,0-15.53-.51-15.66,7.32C19.28,34.5,27.51,36.87,33,37c4.92.07,18.3-3.1,20.91,2.24l-.6-4.58-.17.74,4.15-4.15c-4.12,1.7-10,.65-14.46.64-6.78,0-13.55-.05-20.33,0V43.76a125.13,125.13,0,0,1,14.1-.32L35,31.75c1,0,.62.11-1.12.24a23.27,23.27,0,0,1-2.64.06l-2.83,0q-3.21-.47.32,1.17c-.23.19-1.62-6.31-1.83-7-1.77-6.1-8.26-9-14.29-7.34-7.44,2-5,9.45-4.64,15,.09,1.29,1.16-3.86-.25.65a13.89,13.89,0,0,0-.6,4.24c-.07,2.41.2,5.37-.3,7.67l10-2.63-.18-.18V52q-3.48,1.52,0,.83c1.11-.14,2.22-.3,3.32-.48,2-.21,4.09-.34,6.13-.41,4.35-.15,8.73,0,13.07,0s8.68.07,13,.12c3.21.05,7.3.48,10.43-.36,7.29-2,4.62-10.75,4.79-16.27.1-3.11,1.24-6.88.28-9.92-1.15-3.66-4.41-5.18-8-5.22C53.1,20.18,51.32,30.7,58.06,32l-1.2-.88,4.21-10.16c-2.94.17-5.21.75-6.79,3.47C51.56,29.09,56,34.18,61,33.14c.55-.13,1.1-.23,1.66-.33C70.2,31.46,67,20,59.5,21.33Z"/></svg>